<?xml version="1.0" encoding="UTF-8"?>
<mxfile host="app.diagrams.net" modified="2022-12-29T09:32:10.269Z" agent="5.0 (Macintosh; Intel Mac OS X 10_15_7) AppleWebKit/537.36 (KHTML, like Gecko) Chrome/108.0.0.0 Safari/537.36" etag="c5ZFyWd5Af44NX88zSLH" version="20.7.4" type="google" pages="12">
  <diagram name="Stg 0" id="5i_jaZe84Wi5PsP-JmeP">
    <mxGraphModel dx="1201" dy="686" grid="1" gridSize="10" guides="1" tooltips="1" connect="1" arrows="1" fold="1" page="1" pageScale="1" pageWidth="827" pageHeight="1169" math="0" shadow="0">
      <root>
        <mxCell id="on72GH7DSc_zivMauQpq-0" />
        <mxCell id="on72GH7DSc_zivMauQpq-1" parent="on72GH7DSc_zivMauQpq-0" />
        <mxCell id="V-AM5UANYhFWf1TFeAPN-0" style="edgeStyle=orthogonalEdgeStyle;rounded=0;orthogonalLoop=1;jettySize=auto;html=1;exitX=0.5;exitY=0;exitDx=0;exitDy=0;entryX=0.5;entryY=1;entryDx=0;entryDy=0;startArrow=classic;startFill=1;strokeWidth=3;fillColor=#f5f5f5;strokeColor=#666666;endArrow=none;endFill=0;entryPerimeter=0;" parent="on72GH7DSc_zivMauQpq-1" source="on72GH7DSc_zivMauQpq-8" target="on72GH7DSc_zivMauQpq-2" edge="1">
          <mxGeometry relative="1" as="geometry">
            <mxPoint x="335" y="-110" as="sourcePoint" />
            <mxPoint x="335" y="160" as="targetPoint" />
          </mxGeometry>
        </mxCell>
        <mxCell id="on72GH7DSc_zivMauQpq-2" value="NOMIS&lt;br&gt;Database" style="shape=cylinder3;whiteSpace=wrap;html=1;boundedLbl=1;backgroundOutline=1;size=15;shadow=0;fontFamily=Helvetica;fontSize=12;fontColor=default;align=center;strokeColor=#d79b00;strokeWidth=3;fillColor=#ffe6cc;sketch=0;" parent="on72GH7DSc_zivMauQpq-1" vertex="1">
          <mxGeometry x="255" y="80" width="90" height="80" as="geometry" />
        </mxCell>
        <mxCell id="on72GH7DSc_zivMauQpq-6" value="NOMIS screens are used to maintain data in the NOMIS database" style="text;html=1;strokeColor=none;fillColor=none;align=left;verticalAlign=middle;whiteSpace=wrap;rounded=0;strokeWidth=3;fontSize=16;" parent="on72GH7DSc_zivMauQpq-1" vertex="1">
          <mxGeometry x="450" y="90" width="270" height="60" as="geometry" />
        </mxCell>
        <mxCell id="on72GH7DSc_zivMauQpq-8" value="NART &amp;amp; other downstream requirements" style="swimlane;fontStyle=0;childLayout=stackLayout;horizontal=1;startSize=30;horizontalStack=0;resizeParent=1;resizeParentMax=0;resizeLast=0;collapsible=1;marginBottom=0;whiteSpace=wrap;html=1;strokeWidth=3;" parent="on72GH7DSc_zivMauQpq-1" vertex="1">
          <mxGeometry x="215" y="280" width="170" height="240" as="geometry" />
        </mxCell>
        <mxCell id="on72GH7DSc_zivMauQpq-10" value="Domain Operational Reports" style="text;strokeColor=none;fillColor=none;align=left;verticalAlign=middle;spacingLeft=4;spacingRight=4;overflow=hidden;points=[[0,0.5],[1,0.5]];portConstraint=eastwest;rotatable=0;whiteSpace=wrap;html=1;strokeWidth=3;" parent="on72GH7DSc_zivMauQpq-8" vertex="1">
          <mxGeometry y="30" width="170" height="30" as="geometry" />
        </mxCell>
        <mxCell id="on72GH7DSc_zivMauQpq-9" value="Cross Domain Reports&lt;br&gt;&lt;ul&gt;&lt;li&gt;Offloc&lt;/li&gt;&lt;li&gt;Contingency Report&lt;/li&gt;&lt;li&gt;Unlock Report&lt;/li&gt;&lt;/ul&gt;" style="text;strokeColor=none;fillColor=none;align=left;verticalAlign=middle;spacingLeft=4;spacingRight=4;overflow=hidden;points=[[0,0.5],[1,0.5]];portConstraint=eastwest;rotatable=0;whiteSpace=wrap;html=1;strokeWidth=3;" parent="on72GH7DSc_zivMauQpq-8" vertex="1">
          <mxGeometry y="60" width="170" height="90" as="geometry" />
        </mxCell>
        <mxCell id="on72GH7DSc_zivMauQpq-11" value="MIS Reports" style="text;strokeColor=none;fillColor=none;align=left;verticalAlign=middle;spacingLeft=4;spacingRight=4;overflow=hidden;points=[[0,0.5],[1,0.5]];portConstraint=eastwest;rotatable=0;whiteSpace=wrap;html=1;strokeWidth=3;" parent="on72GH7DSc_zivMauQpq-8" vertex="1">
          <mxGeometry y="150" width="170" height="30" as="geometry" />
        </mxCell>
        <mxCell id="on72GH7DSc_zivMauQpq-12" value="FOI Reports" style="text;strokeColor=none;fillColor=none;align=left;verticalAlign=middle;spacingLeft=4;spacingRight=4;overflow=hidden;points=[[0,0.5],[1,0.5]];portConstraint=eastwest;rotatable=0;whiteSpace=wrap;html=1;strokeWidth=3;" parent="on72GH7DSc_zivMauQpq-8" vertex="1">
          <mxGeometry y="180" width="170" height="30" as="geometry" />
        </mxCell>
        <mxCell id="on72GH7DSc_zivMauQpq-13" value="etc" style="text;strokeColor=none;fillColor=none;align=left;verticalAlign=middle;spacingLeft=4;spacingRight=4;overflow=hidden;points=[[0,0.5],[1,0.5]];portConstraint=eastwest;rotatable=0;whiteSpace=wrap;html=1;strokeWidth=3;" parent="on72GH7DSc_zivMauQpq-8" vertex="1">
          <mxGeometry y="210" width="170" height="30" as="geometry" />
        </mxCell>
        <mxCell id="on72GH7DSc_zivMauQpq-14" value="NOMIS ETL&lt;br&gt;to NART etc" style="rounded=1;whiteSpace=wrap;html=1;fillColor=#f5f5f5;strokeColor=#666666;strokeWidth=3;fontColor=#333333;" parent="on72GH7DSc_zivMauQpq-1" vertex="1">
          <mxGeometry x="240" y="200" width="120" height="40" as="geometry" />
        </mxCell>
        <mxCell id="LlIDiRNxHnSBtg2zCAEA-1" value="NOMIS&lt;br&gt;Screens" style="rounded=1;whiteSpace=wrap;html=1;fillColor=#ffe6cc;strokeColor=#d79b00;strokeWidth=3;" parent="on72GH7DSc_zivMauQpq-1" vertex="1">
          <mxGeometry x="190" y="100" width="50" height="40" as="geometry" />
        </mxCell>
        <mxCell id="5WpQjQLnfwvnkiZnvv_8-0" value="A NOMIS-specific ETL service makes data available to the NART reporting suite and other downstream Services." style="text;html=1;strokeColor=none;fillColor=none;align=left;verticalAlign=middle;whiteSpace=wrap;rounded=0;strokeWidth=3;fontSize=16;" parent="on72GH7DSc_zivMauQpq-1" vertex="1">
          <mxGeometry x="450" y="190" width="320" height="60" as="geometry" />
        </mxCell>
        <mxCell id="b_dZ-AUed8VOw0ttON6T-1" value="&lt;b&gt;&lt;font style=&quot;font-size: 18px;&quot;&gt;Stage 0&lt;/font&gt;&lt;/b&gt;" style="rounded=1;whiteSpace=wrap;html=1;arcSize=50;fillColor=#050505;fontColor=#FFFFFF;" parent="on72GH7DSc_zivMauQpq-1" vertex="1">
          <mxGeometry x="40" y="40" width="120" height="20" as="geometry" />
        </mxCell>
      </root>
    </mxGraphModel>
  </diagram>
  <diagram name="Stg 0.5" id="cI8inMsf819DL8GW4uTh">
    <mxGraphModel grid="1" page="1" gridSize="10" guides="1" tooltips="1" connect="1" arrows="1" fold="1" pageScale="1" pageWidth="827" pageHeight="1169" math="0" shadow="0">
      <root>
        <mxCell id="SHk5qmzMXnnU5XY-aRfp-0" />
        <mxCell id="SHk5qmzMXnnU5XY-aRfp-1" parent="SHk5qmzMXnnU5XY-aRfp-0" />
        <mxCell id="Iz6waQmEpmhX--XBoseW-0" value="Old style&lt;br&gt;product team" style="rounded=1;whiteSpace=wrap;html=1;fontFamily=Helvetica;fontSize=19;align=left;strokeColor=none;fillColor=#EAFFEA;arcSize=7;strokeWidth=3;dashed=1;spacingBottom=0;verticalAlign=middle;" vertex="1" parent="SHk5qmzMXnnU5XY-aRfp-1">
          <mxGeometry x="140" y="80" width="274" height="210" as="geometry" />
        </mxCell>
        <mxCell id="7YmpkTZLkL_vWxHjUYh8-0" value="DPS Tech" style="rounded=1;whiteSpace=wrap;html=1;fontFamily=Helvetica;fontSize=19;align=left;strokeColor=none;fillColor=#FFF9F0;arcSize=7;strokeWidth=3;dashed=1;spacingBottom=47;" vertex="1" parent="SHk5qmzMXnnU5XY-aRfp-1">
          <mxGeometry x="140" y="300" width="274" height="190" as="geometry" />
        </mxCell>
        <mxCell id="ZZy3JiRAfhlyRCLP-_1Z-0" style="edgeStyle=orthogonalEdgeStyle;rounded=0;orthogonalLoop=1;jettySize=auto;html=1;exitX=0.5;exitY=0;exitDx=0;exitDy=0;entryX=0.5;entryY=1;entryDx=0;entryDy=0;startArrow=classic;startFill=1;strokeWidth=3;fillColor=#f5f5f5;strokeColor=#666666;endArrow=none;endFill=0;entryPerimeter=0;" edge="1" parent="SHk5qmzMXnnU5XY-aRfp-1" source="-RqEhpFeTvMipSfYmDns-2" target="SHk5qmzMXnnU5XY-aRfp-28">
          <mxGeometry relative="1" as="geometry">
            <mxPoint x="668.5" y="590" as="sourcePoint" />
            <mxPoint x="338.5" y="540" as="targetPoint" />
          </mxGeometry>
        </mxCell>
        <mxCell id="SHk5qmzMXnnU5XY-aRfp-28" value="NOMIS&lt;br&gt;Database" style="shape=cylinder3;whiteSpace=wrap;html=1;boundedLbl=1;backgroundOutline=1;size=15;shadow=0;fontFamily=Helvetica;fontSize=12;fontColor=default;align=center;strokeColor=#d79b00;strokeWidth=3;fillColor=#ffe6cc;sketch=0;" vertex="1" parent="SHk5qmzMXnnU5XY-aRfp-1">
          <mxGeometry x="292" y="380" width="90" height="80" as="geometry" />
        </mxCell>
        <mxCell id="Rq2gPCtHRe3s-0W7NEYs-0" value="Prison/Search API" style="rounded=1;whiteSpace=wrap;html=1;fillColor=#ffe6cc;strokeColor=#d79b00;strokeWidth=3;" vertex="1" parent="SHk5qmzMXnnU5XY-aRfp-1">
          <mxGeometry x="277" y="320" width="120" height="40" as="geometry" />
        </mxCell>
        <mxCell id="-RqEhpFeTvMipSfYmDns-1" style="edgeStyle=orthogonalEdgeStyle;rounded=0;orthogonalLoop=1;jettySize=auto;html=1;exitX=0.5;exitY=1;exitDx=0;exitDy=0;entryX=0.5;entryY=0;entryDx=0;entryDy=0;startArrow=classic;startFill=1;strokeWidth=3;fillColor=#f5f5f5;strokeColor=#666666;" edge="1" parent="SHk5qmzMXnnU5XY-aRfp-1" source="Rq2gPCtHRe3s-0W7NEYs-2" target="Rq2gPCtHRe3s-0W7NEYs-0">
          <mxGeometry relative="1" as="geometry" />
        </mxCell>
        <mxCell id="Rq2gPCtHRe3s-0W7NEYs-2" value="Front End Service" style="rounded=1;whiteSpace=wrap;html=1;strokeWidth=3;fillColor=#d5e8d4;strokeColor=#82b366;" vertex="1" parent="SHk5qmzMXnnU5XY-aRfp-1">
          <mxGeometry x="277" y="120" width="120" height="40" as="geometry" />
        </mxCell>
        <mxCell id="Rq2gPCtHRe3s-0W7NEYs-4" value="A new front end service improves the user experience.&amp;nbsp;" style="text;html=1;strokeColor=none;fillColor=none;align=left;verticalAlign=middle;whiteSpace=wrap;rounded=0;strokeWidth=3;fontSize=16;" vertex="1" parent="SHk5qmzMXnnU5XY-aRfp-1">
          <mxGeometry x="460" y="120" width="338" height="60" as="geometry" />
        </mxCell>
        <mxCell id="Rq2gPCtHRe3s-0W7NEYs-5" value="Examples of this include:&lt;br style=&quot;font-size: 16px;&quot;&gt;&lt;ul style=&quot;font-size: 16px;&quot;&gt;&lt;li style=&quot;font-size: 16px;&quot;&gt;Prisoner Profile&lt;/li&gt;&lt;li style=&quot;font-size: 16px;&quot;&gt;Global Prisoner Search&lt;/li&gt;&lt;li style=&quot;font-size: 16px;&quot;&gt;Check My Diary&lt;/li&gt;&lt;li style=&quot;font-size: 16px;&quot;&gt;Establishment Role Check&lt;/li&gt;&lt;/ul&gt;" style="text;html=1;strokeColor=none;fillColor=none;align=left;verticalAlign=middle;whiteSpace=wrap;rounded=0;strokeWidth=3;fontSize=16;" vertex="1" parent="SHk5qmzMXnnU5XY-aRfp-1">
          <mxGeometry x="460" y="170" width="300" height="150" as="geometry" />
        </mxCell>
        <mxCell id="X6LeXUtPveAARcicDlaM-3" value="NART &amp;amp; other downstream requirements" style="swimlane;fontStyle=0;childLayout=stackLayout;horizontal=1;startSize=30;horizontalStack=0;resizeParent=1;resizeParentMax=0;resizeLast=0;collapsible=1;marginBottom=0;whiteSpace=wrap;html=1;strokeWidth=3;" vertex="1" parent="SHk5qmzMXnnU5XY-aRfp-1">
          <mxGeometry x="253.5" y="620" width="167" height="240" as="geometry" />
        </mxCell>
        <mxCell id="X6LeXUtPveAARcicDlaM-5" value="Domain Operational Reports" style="text;strokeColor=none;fillColor=none;align=left;verticalAlign=middle;spacingLeft=4;spacingRight=4;overflow=hidden;points=[[0,0.5],[1,0.5]];portConstraint=eastwest;rotatable=0;whiteSpace=wrap;html=1;strokeWidth=3;" vertex="1" parent="X6LeXUtPveAARcicDlaM-3">
          <mxGeometry y="30" width="167" height="30" as="geometry" />
        </mxCell>
        <mxCell id="X6LeXUtPveAARcicDlaM-4" value="Cross Domain Reports&lt;br&gt;&lt;ul&gt;&lt;li&gt;Offloc&lt;/li&gt;&lt;li&gt;Contingency Report&lt;/li&gt;&lt;li&gt;Unlock Report&lt;/li&gt;&lt;/ul&gt;" style="text;strokeColor=none;fillColor=none;align=left;verticalAlign=middle;spacingLeft=4;spacingRight=4;overflow=hidden;points=[[0,0.5],[1,0.5]];portConstraint=eastwest;rotatable=0;whiteSpace=wrap;html=1;strokeWidth=3;" vertex="1" parent="X6LeXUtPveAARcicDlaM-3">
          <mxGeometry y="60" width="167" height="90" as="geometry" />
        </mxCell>
        <mxCell id="X6LeXUtPveAARcicDlaM-6" value="MIS Reports" style="text;strokeColor=none;fillColor=none;align=left;verticalAlign=middle;spacingLeft=4;spacingRight=4;overflow=hidden;points=[[0,0.5],[1,0.5]];portConstraint=eastwest;rotatable=0;whiteSpace=wrap;html=1;strokeWidth=3;" vertex="1" parent="X6LeXUtPveAARcicDlaM-3">
          <mxGeometry y="150" width="167" height="30" as="geometry" />
        </mxCell>
        <mxCell id="X6LeXUtPveAARcicDlaM-7" value="FOI Reports" style="text;strokeColor=none;fillColor=none;align=left;verticalAlign=middle;spacingLeft=4;spacingRight=4;overflow=hidden;points=[[0,0.5],[1,0.5]];portConstraint=eastwest;rotatable=0;whiteSpace=wrap;html=1;strokeWidth=3;" vertex="1" parent="X6LeXUtPveAARcicDlaM-3">
          <mxGeometry y="180" width="167" height="30" as="geometry" />
        </mxCell>
        <mxCell id="X6LeXUtPveAARcicDlaM-8" value="etc" style="text;strokeColor=none;fillColor=none;align=left;verticalAlign=middle;spacingLeft=4;spacingRight=4;overflow=hidden;points=[[0,0.5],[1,0.5]];portConstraint=eastwest;rotatable=0;whiteSpace=wrap;html=1;strokeWidth=3;" vertex="1" parent="X6LeXUtPveAARcicDlaM-3">
          <mxGeometry y="210" width="167" height="30" as="geometry" />
        </mxCell>
        <mxCell id="-RqEhpFeTvMipSfYmDns-2" value="NOMIS ETL&lt;br&gt;to NART etc&amp;nbsp;" style="rounded=1;whiteSpace=wrap;html=1;fillColor=#f5f5f5;strokeColor=#666666;strokeWidth=3;fontColor=#333333;" vertex="1" parent="SHk5qmzMXnnU5XY-aRfp-1">
          <mxGeometry x="277" y="570" width="120" height="40" as="geometry" />
        </mxCell>
        <mxCell id="nGpOVfI08w9J1eCwpb3T-0" value="NOMIS&lt;br&gt;Screens" style="rounded=1;whiteSpace=wrap;html=1;fillColor=#ffe6cc;strokeColor=#d79b00;strokeWidth=3;" vertex="1" parent="SHk5qmzMXnnU5XY-aRfp-1">
          <mxGeometry x="227" y="400" width="50" height="40" as="geometry" />
        </mxCell>
        <mxCell id="pjwkFEEKeBBWQN4X4o40-0" value="&lt;b&gt;&lt;font style=&quot;font-size: 18px;&quot;&gt;Level 1&lt;/font&gt;&lt;/b&gt;" style="rounded=1;whiteSpace=wrap;html=1;arcSize=50;fillColor=#050505;fontColor=#FFFFFF;" vertex="1" parent="SHk5qmzMXnnU5XY-aRfp-1">
          <mxGeometry x="39" y="40" width="120" height="20" as="geometry" />
        </mxCell>
      </root>
    </mxGraphModel>
  </diagram>
  <diagram name="As Is Stg 1" id="ghnd3_wBr5r_gUbB9bon">
    <mxGraphModel grid="1" page="1" gridSize="10" guides="1" tooltips="1" connect="1" arrows="1" fold="1" pageScale="1" pageWidth="827" pageHeight="1169" math="0" shadow="0">
      <root>
        <mxCell id="Q-nA4hEn0SDXsuiz2zWB-0" />
        <mxCell id="Q-nA4hEn0SDXsuiz2zWB-1" parent="Q-nA4hEn0SDXsuiz2zWB-0" />
        <mxCell id="Q-nA4hEn0SDXsuiz2zWB-2" value="Syscon" style="rounded=1;whiteSpace=wrap;html=1;fontFamily=Helvetica;fontSize=19;fontColor=default;align=left;strokeColor=none;fillColor=#FFF9F0;arcSize=7;strokeWidth=3;dashed=1;" vertex="1" parent="Q-nA4hEn0SDXsuiz2zWB-1">
          <mxGeometry x="20" y="370" width="320" height="190" as="geometry" />
        </mxCell>
        <mxCell id="Q-nA4hEn0SDXsuiz2zWB-4" value="Old style&lt;br&gt;Product Team" style="rounded=1;whiteSpace=wrap;html=1;fontFamily=Helvetica;fontSize=19;fontColor=default;align=right;strokeColor=none;fillColor=#EAFFEA;arcSize=7;strokeWidth=3;dashed=1;" vertex="1" parent="Q-nA4hEn0SDXsuiz2zWB-1">
          <mxGeometry x="350" y="20" width="400" height="540" as="geometry" />
        </mxCell>
        <mxCell id="Q-nA4hEn0SDXsuiz2zWB-5" style="edgeStyle=orthogonalEdgeStyle;rounded=0;orthogonalLoop=1;jettySize=auto;html=1;entryX=0.5;entryY=1;entryDx=0;entryDy=0;startArrow=classic;startFill=1;strokeWidth=3;fillColor=#f5f5f5;strokeColor=#666666;endArrow=none;endFill=0;entryPerimeter=0;exitX=0.5;exitY=0;exitDx=0;exitDy=0;" edge="1" parent="Q-nA4hEn0SDXsuiz2zWB-1" source="Q-nA4hEn0SDXsuiz2zWB-18" target="Q-nA4hEn0SDXsuiz2zWB-6">
          <mxGeometry relative="1" as="geometry">
            <mxPoint x="310" y="640" as="sourcePoint" />
            <mxPoint x="589" y="470" as="targetPoint" />
            <Array as="points">
              <mxPoint x="100" y="550" />
              <mxPoint x="259" y="550" />
            </Array>
          </mxGeometry>
        </mxCell>
        <mxCell id="Q-nA4hEn0SDXsuiz2zWB-6" value="NOMIS&lt;br&gt;Database" style="shape=cylinder3;whiteSpace=wrap;html=1;boundedLbl=1;backgroundOutline=1;size=15;shadow=0;fontFamily=Helvetica;fontSize=12;fontColor=default;align=center;strokeColor=#d79b00;strokeWidth=3;fillColor=#ffe6cc;sketch=0;" vertex="1" parent="Q-nA4hEn0SDXsuiz2zWB-1">
          <mxGeometry x="214" y="459" width="90" height="80" as="geometry" />
        </mxCell>
        <mxCell id="Q-nA4hEn0SDXsuiz2zWB-7" value="Prison/Search API" style="rounded=1;whiteSpace=wrap;html=1;fillColor=#ffe6cc;strokeColor=#d79b00;strokeWidth=3;" vertex="1" parent="Q-nA4hEn0SDXsuiz2zWB-1">
          <mxGeometry x="199" y="404" width="120" height="40" as="geometry" />
        </mxCell>
        <mxCell id="Q-nA4hEn0SDXsuiz2zWB-9" value="Front End Service" style="rounded=1;whiteSpace=wrap;html=1;strokeWidth=3;fillColor=#d5e8d4;strokeColor=#82b366;" vertex="1" parent="Q-nA4hEn0SDXsuiz2zWB-1">
          <mxGeometry x="430" y="50" width="120" height="40" as="geometry" />
        </mxCell>
        <mxCell id="Q-nA4hEn0SDXsuiz2zWB-10" value="A new front end service improves the user experience.&lt;br&gt;&lt;br&gt;Augmented data addresses additional business requirements.&lt;br style=&quot;font-size: 18px;&quot;&gt;&lt;br style=&quot;font-size: 18px;&quot;&gt;An API enables access to the augmented data" style="text;html=1;strokeColor=none;fillColor=none;align=left;verticalAlign=middle;whiteSpace=wrap;rounded=0;strokeWidth=3;fontSize=18;" vertex="1" parent="Q-nA4hEn0SDXsuiz2zWB-1">
          <mxGeometry x="240" y="590" width="560" height="170" as="geometry" />
        </mxCell>
        <mxCell id="Q-nA4hEn0SDXsuiz2zWB-11" value="Examples:&lt;br&gt;&lt;br&gt;Keyworker Service" style="text;html=1;strokeColor=none;fillColor=none;align=left;verticalAlign=middle;whiteSpace=wrap;rounded=0;strokeWidth=3;fontSize=16;" vertex="1" parent="Q-nA4hEn0SDXsuiz2zWB-1">
          <mxGeometry x="240" y="920" width="295" height="70" as="geometry" />
        </mxCell>
        <mxCell id="Q-nA4hEn0SDXsuiz2zWB-12" value="NART &amp;amp; other downstream requirements" style="swimlane;fontStyle=0;childLayout=stackLayout;horizontal=1;startSize=30;horizontalStack=0;resizeParent=1;resizeParentMax=0;resizeLast=0;collapsible=1;marginBottom=0;whiteSpace=wrap;html=1;strokeWidth=3;" vertex="1" parent="Q-nA4hEn0SDXsuiz2zWB-1">
          <mxGeometry x="9" y="653" width="191" height="240" as="geometry" />
        </mxCell>
        <mxCell id="Q-nA4hEn0SDXsuiz2zWB-13" value="Domain Operational Reports" style="text;strokeColor=none;fillColor=none;align=left;verticalAlign=middle;spacingLeft=4;spacingRight=4;overflow=hidden;points=[[0,0.5],[1,0.5]];portConstraint=eastwest;rotatable=0;whiteSpace=wrap;html=1;strokeWidth=3;fontStyle=0;fontColor=#000000;" vertex="1" parent="Q-nA4hEn0SDXsuiz2zWB-12">
          <mxGeometry y="30" width="191" height="30" as="geometry" />
        </mxCell>
        <mxCell id="Q-nA4hEn0SDXsuiz2zWB-14" value="Cross Domain Reports&lt;br&gt;&lt;ul&gt;&lt;li&gt;Offloc&lt;/li&gt;&lt;li&gt;Contingency Report&lt;/li&gt;&lt;li&gt;Unlock Report&lt;/li&gt;&lt;/ul&gt;" style="text;strokeColor=none;fillColor=none;align=left;verticalAlign=middle;spacingLeft=4;spacingRight=4;overflow=hidden;points=[[0,0.5],[1,0.5]];portConstraint=eastwest;rotatable=0;whiteSpace=wrap;html=1;strokeWidth=3;" vertex="1" parent="Q-nA4hEn0SDXsuiz2zWB-12">
          <mxGeometry y="60" width="191" height="90" as="geometry" />
        </mxCell>
        <mxCell id="Q-nA4hEn0SDXsuiz2zWB-15" value="MIS Reports" style="text;strokeColor=none;fillColor=none;align=left;verticalAlign=middle;spacingLeft=4;spacingRight=4;overflow=hidden;points=[[0,0.5],[1,0.5]];portConstraint=eastwest;rotatable=0;whiteSpace=wrap;html=1;strokeWidth=3;" vertex="1" parent="Q-nA4hEn0SDXsuiz2zWB-12">
          <mxGeometry y="150" width="191" height="30" as="geometry" />
        </mxCell>
        <mxCell id="Q-nA4hEn0SDXsuiz2zWB-16" value="FOI Reports" style="text;strokeColor=none;fillColor=none;align=left;verticalAlign=middle;spacingLeft=4;spacingRight=4;overflow=hidden;points=[[0,0.5],[1,0.5]];portConstraint=eastwest;rotatable=0;whiteSpace=wrap;html=1;strokeWidth=3;" vertex="1" parent="Q-nA4hEn0SDXsuiz2zWB-12">
          <mxGeometry y="180" width="191" height="30" as="geometry" />
        </mxCell>
        <mxCell id="Q-nA4hEn0SDXsuiz2zWB-17" value="etc" style="text;strokeColor=none;fillColor=none;align=left;verticalAlign=middle;spacingLeft=4;spacingRight=4;overflow=hidden;points=[[0,0.5],[1,0.5]];portConstraint=eastwest;rotatable=0;whiteSpace=wrap;html=1;strokeWidth=3;" vertex="1" parent="Q-nA4hEn0SDXsuiz2zWB-12">
          <mxGeometry y="210" width="191" height="30" as="geometry" />
        </mxCell>
        <mxCell id="Q-nA4hEn0SDXsuiz2zWB-18" value="NOMIS ETL&lt;br&gt;to NART etc&amp;nbsp;" style="rounded=1;whiteSpace=wrap;html=1;fillColor=#ffe6cc;strokeColor=#d79b00;strokeWidth=3;" vertex="1" parent="Q-nA4hEn0SDXsuiz2zWB-1">
          <mxGeometry x="40" y="603" width="120" height="40" as="geometry" />
        </mxCell>
        <mxCell id="Q-nA4hEn0SDXsuiz2zWB-19" value="NOMIS&lt;br&gt;Screens" style="rounded=1;whiteSpace=wrap;html=1;fillColor=#ffe6cc;strokeColor=#d79b00;strokeWidth=3;" vertex="1" parent="Q-nA4hEn0SDXsuiz2zWB-1">
          <mxGeometry x="149" y="479" width="50" height="40" as="geometry" />
        </mxCell>
        <mxCell id="Q-nA4hEn0SDXsuiz2zWB-26" value="" style="edgeStyle=orthogonalEdgeStyle;rounded=0;orthogonalLoop=1;jettySize=auto;html=1;exitX=0.25;exitY=1;exitDx=0;exitDy=0;startArrow=none;startFill=0;strokeWidth=3;fillColor=#f5f5f5;strokeColor=#050505;endArrow=none;endFill=0;" edge="1" parent="Q-nA4hEn0SDXsuiz2zWB-1" source="Q-nA4hEn0SDXsuiz2zWB-9" target="Q-nA4hEn0SDXsuiz2zWB-7">
          <mxGeometry relative="1" as="geometry">
            <mxPoint x="234" y="80" as="sourcePoint" />
            <mxPoint x="234" y="404" as="targetPoint" />
            <Array as="points">
              <mxPoint x="460" y="120" />
              <mxPoint x="259" y="120" />
            </Array>
          </mxGeometry>
        </mxCell>
        <mxCell id="Q-nA4hEn0SDXsuiz2zWB-27" value="MIcroservice API for augmented data" style="rounded=1;whiteSpace=wrap;html=1;strokeWidth=3;fillColor=#d5e8d4;strokeColor=#82b366;" vertex="1" parent="Q-nA4hEn0SDXsuiz2zWB-1">
          <mxGeometry x="360" y="404" width="120" height="40" as="geometry" />
        </mxCell>
        <mxCell id="Q-nA4hEn0SDXsuiz2zWB-28" value="Augmented Data Database" style="shape=cylinder3;whiteSpace=wrap;html=1;boundedLbl=1;backgroundOutline=1;size=15;shadow=0;fontFamily=Helvetica;fontSize=12;align=center;strokeColor=#82b366;strokeWidth=3;fillColor=#d5e8d4;sketch=0;" vertex="1" parent="Q-nA4hEn0SDXsuiz2zWB-1">
          <mxGeometry x="440" y="459" width="90" height="80" as="geometry" />
        </mxCell>
        <mxCell id="Q-nA4hEn0SDXsuiz2zWB-29" value="" style="endArrow=none;html=1;rounded=0;strokeColor=#000000;strokeWidth=3;fontSize=14;fontColor=#FF0000;exitX=0.5;exitY=0;exitDx=0;exitDy=0;edgeStyle=elbowEdgeStyle;elbow=vertical;startArrow=none;" edge="1" parent="Q-nA4hEn0SDXsuiz2zWB-1" source="Q-nA4hEn0SDXsuiz2zWB-27" target="Q-nA4hEn0SDXsuiz2zWB-9">
          <mxGeometry width="50" height="50" relative="1" as="geometry">
            <mxPoint x="710" y="430" as="sourcePoint" />
            <mxPoint x="289" y="320" as="targetPoint" />
            <Array as="points">
              <mxPoint x="420" y="160" />
              <mxPoint x="420" y="230" />
            </Array>
          </mxGeometry>
        </mxCell>
        <mxCell id="t1f-P7tUuRRbevZNIyYr-0" value="&lt;b&gt;&lt;font style=&quot;font-size: 18px;&quot;&gt;As Is Stage 1&lt;/font&gt;&lt;/b&gt;" style="rounded=1;whiteSpace=wrap;html=1;arcSize=50;fillColor=#050505;fontColor=#FFFFFF;" vertex="1" parent="Q-nA4hEn0SDXsuiz2zWB-1">
          <mxGeometry x="40" y="40" width="120" height="20" as="geometry" />
        </mxCell>
        <mxCell id="LEdBsihbB1pkbFojsyMb-0" value="MIcroservice API for augmented data" style="rounded=1;whiteSpace=wrap;html=1;strokeWidth=3;fillColor=#d5e8d4;strokeColor=#82b366;" vertex="1" parent="Q-nA4hEn0SDXsuiz2zWB-1">
          <mxGeometry x="490" y="404" width="120" height="40" as="geometry" />
        </mxCell>
        <mxCell id="LEdBsihbB1pkbFojsyMb-1" value="" style="endArrow=none;html=1;rounded=0;strokeColor=#000000;strokeWidth=3;fontSize=14;fontColor=#FF0000;exitX=0.5;exitY=0;exitDx=0;exitDy=0;edgeStyle=elbowEdgeStyle;elbow=vertical;startArrow=none;entryX=0.75;entryY=1;entryDx=0;entryDy=0;" edge="1" parent="Q-nA4hEn0SDXsuiz2zWB-1" source="LEdBsihbB1pkbFojsyMb-0" target="Q-nA4hEn0SDXsuiz2zWB-9">
          <mxGeometry width="50" height="50" relative="1" as="geometry">
            <mxPoint x="430" y="414" as="sourcePoint" />
            <mxPoint x="500" y="99.99999999999989" as="targetPoint" />
            <Array as="points">
              <mxPoint x="540" y="160" />
              <mxPoint x="430" y="240" />
            </Array>
          </mxGeometry>
        </mxCell>
      </root>
    </mxGraphModel>
  </diagram>
  <diagram name="To Be Stg 1" id="AUZ6GyUN2bsFlLUk-0zf">
    <mxGraphModel grid="1" page="1" gridSize="10" guides="1" tooltips="1" connect="1" arrows="1" fold="1" pageScale="1" pageWidth="827" pageHeight="1169" math="0" shadow="0">
      <root>
        <mxCell id="hpCw-tIb5tWCJmx0_N-y-0" />
        <mxCell id="hpCw-tIb5tWCJmx0_N-y-1" parent="hpCw-tIb5tWCJmx0_N-y-0" />
        <mxCell id="E9_ftqIJAWs3SNV2zDeG-0" value="Syscon" style="rounded=1;whiteSpace=wrap;html=1;fontFamily=Helvetica;fontSize=19;fontColor=default;align=left;strokeColor=none;fillColor=#FFF9F0;arcSize=7;strokeWidth=3;dashed=1;" vertex="1" parent="hpCw-tIb5tWCJmx0_N-y-1">
          <mxGeometry x="40" y="370" width="300" height="190" as="geometry" />
        </mxCell>
        <mxCell id="hpCw-tIb5tWCJmx0_N-y-2" value="New style&lt;br&gt;Domain Team" style="rounded=1;whiteSpace=wrap;html=1;fontFamily=Helvetica;fontSize=19;fontColor=default;align=right;strokeColor=none;fillColor=#EAFFEA;arcSize=7;strokeWidth=3;dashed=1;" vertex="1" parent="hpCw-tIb5tWCJmx0_N-y-1">
          <mxGeometry x="350" y="20" width="420" height="540" as="geometry" />
        </mxCell>
        <mxCell id="hpCw-tIb5tWCJmx0_N-y-3" style="edgeStyle=orthogonalEdgeStyle;rounded=0;orthogonalLoop=1;jettySize=auto;html=1;entryX=0.5;entryY=1;entryDx=0;entryDy=0;startArrow=classic;startFill=1;strokeWidth=3;fillColor=#f5f5f5;strokeColor=#666666;endArrow=none;endFill=0;entryPerimeter=0;exitX=0.5;exitY=0;exitDx=0;exitDy=0;" edge="1" parent="hpCw-tIb5tWCJmx0_N-y-1" source="hpCw-tIb5tWCJmx0_N-y-16" target="hpCw-tIb5tWCJmx0_N-y-4">
          <mxGeometry relative="1" as="geometry">
            <mxPoint x="310" y="640" as="sourcePoint" />
            <mxPoint x="589" y="470" as="targetPoint" />
            <Array as="points">
              <mxPoint x="100" y="550" />
              <mxPoint x="259" y="550" />
            </Array>
          </mxGeometry>
        </mxCell>
        <mxCell id="hpCw-tIb5tWCJmx0_N-y-4" value="NOMIS&lt;br&gt;Database" style="shape=cylinder3;whiteSpace=wrap;html=1;boundedLbl=1;backgroundOutline=1;size=15;shadow=0;fontFamily=Helvetica;fontSize=12;fontColor=default;align=center;strokeColor=#d79b00;strokeWidth=3;fillColor=#ffe6cc;sketch=0;" vertex="1" parent="hpCw-tIb5tWCJmx0_N-y-1">
          <mxGeometry x="214" y="459" width="90" height="80" as="geometry" />
        </mxCell>
        <mxCell id="hpCw-tIb5tWCJmx0_N-y-5" value="Prison/Search API" style="rounded=1;whiteSpace=wrap;html=1;fillColor=#ffe6cc;strokeColor=#d79b00;strokeWidth=3;" vertex="1" parent="hpCw-tIb5tWCJmx0_N-y-1">
          <mxGeometry x="199" y="404" width="120" height="40" as="geometry" />
        </mxCell>
        <mxCell id="hpCw-tIb5tWCJmx0_N-y-6" style="edgeStyle=orthogonalEdgeStyle;rounded=0;orthogonalLoop=1;jettySize=auto;html=1;startArrow=none;startFill=0;strokeWidth=3;fillColor=#f5f5f5;strokeColor=#666666;endArrow=none;endFill=0;exitX=0.25;exitY=1;exitDx=0;exitDy=0;" edge="1" parent="hpCw-tIb5tWCJmx0_N-y-1" source="hpCw-tIb5tWCJmx0_N-y-18" target="hpCw-tIb5tWCJmx0_N-y-5">
          <mxGeometry relative="1" as="geometry">
            <mxPoint x="258" y="360" as="sourcePoint" />
            <mxPoint x="258" y="405" as="targetPoint" />
            <Array as="points">
              <mxPoint x="460" y="350" />
              <mxPoint x="259" y="350" />
            </Array>
          </mxGeometry>
        </mxCell>
        <mxCell id="hpCw-tIb5tWCJmx0_N-y-7" value="Front End Service" style="rounded=1;whiteSpace=wrap;html=1;strokeWidth=3;fillColor=#d5e8d4;strokeColor=#82b366;" vertex="1" parent="hpCw-tIb5tWCJmx0_N-y-1">
          <mxGeometry x="430" y="40" width="120" height="40" as="geometry" />
        </mxCell>
        <mxCell id="hpCw-tIb5tWCJmx0_N-y-8" value="A new front end service improves the user experience.&lt;br&gt;&lt;br&gt;Augmented data addresses additional business requirements.&lt;br style=&quot;font-size: 18px;&quot;&gt;&lt;br style=&quot;font-size: 18px;&quot;&gt;Separation of orchestration - data fetching, joining &amp;amp; transforming etc allows the front end service to focus on user interaction. &lt;br style=&quot;font-size: 18px;&quot;&gt;&lt;br style=&quot;font-size: 18px;&quot;&gt;Domain APIs abstract the front end service away from the NOMIS&#39;s Prison API which enables data to be introduced from non-NOMIS sources.&lt;br&gt;&lt;br&gt;The Domain API includes access to the augmented data&lt;br&gt;&lt;br&gt;The Domain service encompasses the provision of operational lists/reports." style="text;html=1;strokeColor=none;fillColor=none;align=left;verticalAlign=middle;whiteSpace=wrap;rounded=0;strokeWidth=3;fontSize=18;" vertex="1" parent="hpCw-tIb5tWCJmx0_N-y-1">
          <mxGeometry x="240" y="590" width="560" height="380" as="geometry" />
        </mxCell>
        <mxCell id="hpCw-tIb5tWCJmx0_N-y-10" value="NART &amp;amp; other downstream requirements" style="swimlane;fontStyle=0;childLayout=stackLayout;horizontal=1;startSize=30;horizontalStack=0;resizeParent=1;resizeParentMax=0;resizeLast=0;collapsible=1;marginBottom=0;whiteSpace=wrap;html=1;strokeWidth=3;" vertex="1" parent="hpCw-tIb5tWCJmx0_N-y-1">
          <mxGeometry x="9" y="653" width="191" height="240" as="geometry" />
        </mxCell>
        <mxCell id="hpCw-tIb5tWCJmx0_N-y-12" value="Domain Operational Reports" style="text;strokeColor=none;fillColor=none;align=left;verticalAlign=middle;spacingLeft=4;spacingRight=4;overflow=hidden;points=[[0,0.5],[1,0.5]];portConstraint=eastwest;rotatable=0;whiteSpace=wrap;html=1;strokeWidth=3;fontStyle=1;fontColor=#FF0000;" vertex="1" parent="hpCw-tIb5tWCJmx0_N-y-10">
          <mxGeometry y="30" width="191" height="30" as="geometry" />
        </mxCell>
        <mxCell id="hpCw-tIb5tWCJmx0_N-y-11" value="Cross Domain Reports&lt;br&gt;&lt;ul&gt;&lt;li&gt;Offloc&lt;/li&gt;&lt;li&gt;Contingency Report&lt;/li&gt;&lt;li&gt;Unlock Report&lt;/li&gt;&lt;/ul&gt;" style="text;strokeColor=none;fillColor=none;align=left;verticalAlign=middle;spacingLeft=4;spacingRight=4;overflow=hidden;points=[[0,0.5],[1,0.5]];portConstraint=eastwest;rotatable=0;whiteSpace=wrap;html=1;strokeWidth=3;" vertex="1" parent="hpCw-tIb5tWCJmx0_N-y-10">
          <mxGeometry y="60" width="191" height="90" as="geometry" />
        </mxCell>
        <mxCell id="hpCw-tIb5tWCJmx0_N-y-13" value="MIS Reports" style="text;strokeColor=none;fillColor=none;align=left;verticalAlign=middle;spacingLeft=4;spacingRight=4;overflow=hidden;points=[[0,0.5],[1,0.5]];portConstraint=eastwest;rotatable=0;whiteSpace=wrap;html=1;strokeWidth=3;" vertex="1" parent="hpCw-tIb5tWCJmx0_N-y-10">
          <mxGeometry y="150" width="191" height="30" as="geometry" />
        </mxCell>
        <mxCell id="hpCw-tIb5tWCJmx0_N-y-14" value="FOI Reports" style="text;strokeColor=none;fillColor=none;align=left;verticalAlign=middle;spacingLeft=4;spacingRight=4;overflow=hidden;points=[[0,0.5],[1,0.5]];portConstraint=eastwest;rotatable=0;whiteSpace=wrap;html=1;strokeWidth=3;" vertex="1" parent="hpCw-tIb5tWCJmx0_N-y-10">
          <mxGeometry y="180" width="191" height="30" as="geometry" />
        </mxCell>
        <mxCell id="hpCw-tIb5tWCJmx0_N-y-15" value="etc" style="text;strokeColor=none;fillColor=none;align=left;verticalAlign=middle;spacingLeft=4;spacingRight=4;overflow=hidden;points=[[0,0.5],[1,0.5]];portConstraint=eastwest;rotatable=0;whiteSpace=wrap;html=1;strokeWidth=3;" vertex="1" parent="hpCw-tIb5tWCJmx0_N-y-10">
          <mxGeometry y="210" width="191" height="30" as="geometry" />
        </mxCell>
        <mxCell id="hpCw-tIb5tWCJmx0_N-y-16" value="NOMIS ETL&lt;br&gt;to NART etc&amp;nbsp;" style="rounded=1;whiteSpace=wrap;html=1;fillColor=#ffe6cc;strokeColor=#d79b00;strokeWidth=3;" vertex="1" parent="hpCw-tIb5tWCJmx0_N-y-1">
          <mxGeometry x="40" y="603" width="120" height="40" as="geometry" />
        </mxCell>
        <mxCell id="hpCw-tIb5tWCJmx0_N-y-17" value="NOMIS&lt;br&gt;Screens" style="rounded=1;whiteSpace=wrap;html=1;fillColor=#ffe6cc;strokeColor=#d79b00;strokeWidth=3;" vertex="1" parent="hpCw-tIb5tWCJmx0_N-y-1">
          <mxGeometry x="149" y="479" width="50" height="40" as="geometry" />
        </mxCell>
        <mxCell id="hpCw-tIb5tWCJmx0_N-y-18" value="Domain API&lt;br&gt;Own" style="rounded=1;whiteSpace=wrap;html=1;fillColor=#d5e8d4;strokeColor=#82b366;strokeWidth=3;" vertex="1" parent="hpCw-tIb5tWCJmx0_N-y-1">
          <mxGeometry x="430" y="280" width="120" height="40" as="geometry" />
        </mxCell>
        <mxCell id="hpCw-tIb5tWCJmx0_N-y-19" value="" style="edgeStyle=orthogonalEdgeStyle;rounded=0;orthogonalLoop=1;jettySize=auto;html=1;exitX=0.5;exitY=1;exitDx=0;exitDy=0;entryX=0.5;entryY=0;entryDx=0;entryDy=0;startArrow=none;startFill=0;strokeWidth=3;fillColor=#f5f5f5;strokeColor=#666666;endArrow=none;endFill=0;" edge="1" parent="hpCw-tIb5tWCJmx0_N-y-1" source="hpCw-tIb5tWCJmx0_N-y-23" target="hpCw-tIb5tWCJmx0_N-y-18">
          <mxGeometry relative="1" as="geometry">
            <mxPoint x="390" y="130" as="sourcePoint" />
            <mxPoint x="390" y="267" as="targetPoint" />
          </mxGeometry>
        </mxCell>
        <mxCell id="hpCw-tIb5tWCJmx0_N-y-20" value="Domain API&lt;br&gt;Dependent on" style="rounded=1;whiteSpace=wrap;html=1;fillColor=#d5e8d4;strokeColor=#82b366;strokeWidth=3;fillStyle=hatch;" vertex="1" parent="hpCw-tIb5tWCJmx0_N-y-1">
          <mxGeometry x="170" y="280" width="120" height="40" as="geometry" />
        </mxCell>
        <mxCell id="hpCw-tIb5tWCJmx0_N-y-21" value="" style="endArrow=none;startArrow=none;html=1;rounded=0;strokeWidth=3;fontSize=16;elbow=vertical;edgeStyle=elbowEdgeStyle;startFill=0;endFill=0;" edge="1" parent="hpCw-tIb5tWCJmx0_N-y-1" source="hpCw-tIb5tWCJmx0_N-y-5" target="hpCw-tIb5tWCJmx0_N-y-20">
          <mxGeometry width="50" height="50" relative="1" as="geometry">
            <mxPoint x="80" y="470" as="sourcePoint" />
            <mxPoint x="130" y="420" as="targetPoint" />
            <Array as="points">
              <mxPoint x="230" y="380" />
              <mxPoint x="100" y="360" />
              <mxPoint x="220" y="370" />
              <mxPoint x="170" y="360" />
              <mxPoint x="220" y="362" />
            </Array>
          </mxGeometry>
        </mxCell>
        <mxCell id="hpCw-tIb5tWCJmx0_N-y-22" value="" style="endArrow=none;startArrow=none;html=1;rounded=0;strokeWidth=3;fontSize=16;elbow=vertical;edgeStyle=elbowEdgeStyle;startFill=0;endFill=0;entryX=0.25;entryY=1;entryDx=0;entryDy=0;" edge="1" parent="hpCw-tIb5tWCJmx0_N-y-1" source="hpCw-tIb5tWCJmx0_N-y-20" target="hpCw-tIb5tWCJmx0_N-y-23">
          <mxGeometry width="50" height="50" relative="1" as="geometry">
            <mxPoint x="160" y="203" as="sourcePoint" />
            <mxPoint x="220" y="170" as="targetPoint" />
            <Array as="points">
              <mxPoint x="230" y="230" />
              <mxPoint x="160" y="240" />
              <mxPoint x="150" y="180" />
              <mxPoint x="160" y="160" />
              <mxPoint x="100" y="170" />
            </Array>
          </mxGeometry>
        </mxCell>
        <mxCell id="hpCw-tIb5tWCJmx0_N-y-23" value="Orchestration&lt;br&gt;Layer" style="rounded=1;whiteSpace=wrap;html=1;fillColor=#d5e8d4;strokeColor=#82b366;strokeWidth=3;" vertex="1" parent="hpCw-tIb5tWCJmx0_N-y-1">
          <mxGeometry x="430" y="160" width="120" height="40" as="geometry" />
        </mxCell>
        <mxCell id="hpCw-tIb5tWCJmx0_N-y-24" value="" style="edgeStyle=orthogonalEdgeStyle;rounded=0;orthogonalLoop=1;jettySize=auto;html=1;exitX=0.5;exitY=1;exitDx=0;exitDy=0;entryX=0.5;entryY=0;entryDx=0;entryDy=0;startArrow=none;startFill=0;strokeWidth=3;fillColor=#f5f5f5;strokeColor=#666666;endArrow=none;endFill=0;" edge="1" parent="hpCw-tIb5tWCJmx0_N-y-1" source="hpCw-tIb5tWCJmx0_N-y-7" target="hpCw-tIb5tWCJmx0_N-y-23">
          <mxGeometry relative="1" as="geometry">
            <mxPoint x="390" y="80" as="sourcePoint" />
            <mxPoint x="390" y="280" as="targetPoint" />
          </mxGeometry>
        </mxCell>
        <mxCell id="JAFtBBqVJ7ntNm_EM_ZV-0" value="MIcroservice API for augmented data" style="rounded=1;whiteSpace=wrap;html=1;strokeWidth=3;fillColor=#d5e8d4;strokeColor=#82b366;" vertex="1" parent="hpCw-tIb5tWCJmx0_N-y-1">
          <mxGeometry x="360" y="404" width="120" height="40" as="geometry" />
        </mxCell>
        <mxCell id="JAFtBBqVJ7ntNm_EM_ZV-1" value="Augmented Data" style="shape=cylinder3;whiteSpace=wrap;html=1;boundedLbl=1;backgroundOutline=1;size=15;shadow=0;fontFamily=Helvetica;fontSize=12;align=center;strokeColor=#82b366;strokeWidth=3;fillColor=#d5e8d4;sketch=0;" vertex="1" parent="hpCw-tIb5tWCJmx0_N-y-1">
          <mxGeometry x="440" y="459" width="90" height="80" as="geometry" />
        </mxCell>
        <mxCell id="JAFtBBqVJ7ntNm_EM_ZV-2" value="" style="endArrow=none;html=1;rounded=0;strokeColor=#000000;strokeWidth=3;fontSize=14;fontColor=#FF0000;exitX=0.5;exitY=0;exitDx=0;exitDy=0;edgeStyle=elbowEdgeStyle;elbow=vertical;startArrow=none;entryX=0.5;entryY=1;entryDx=0;entryDy=0;" edge="1" parent="hpCw-tIb5tWCJmx0_N-y-1" source="JAFtBBqVJ7ntNm_EM_ZV-0" target="hpCw-tIb5tWCJmx0_N-y-18">
          <mxGeometry width="50" height="50" relative="1" as="geometry">
            <mxPoint x="710" y="430" as="sourcePoint" />
            <mxPoint x="760" y="380" as="targetPoint" />
            <Array as="points">
              <mxPoint x="460" y="370" />
              <mxPoint x="420" y="360" />
            </Array>
          </mxGeometry>
        </mxCell>
        <mxCell id="AgcTq0NyLTMR-1TAJt9Z-0" value="" style="curved=1;endArrow=classic;html=1;rounded=0;fontSize=14;fontColor=#FF0000;exitX=0.18;exitY=0.043;exitDx=0;exitDy=0;exitPerimeter=0;strokeWidth=3;strokeColor=#FF0000;entryX=0;entryY=0.5;entryDx=0;entryDy=0;" edge="1" parent="hpCw-tIb5tWCJmx0_N-y-1" target="hpCw-tIb5tWCJmx0_N-y-7">
          <mxGeometry width="50" height="50" relative="1" as="geometry">
            <mxPoint x="46" y="699.29" as="sourcePoint" />
            <mxPoint x="198.99999999999977" y="40.139737991266315" as="targetPoint" />
            <Array as="points">
              <mxPoint x="-10.000000000000227" y="478" />
              <mxPoint x="29.999999999999773" y="18" />
            </Array>
          </mxGeometry>
        </mxCell>
        <mxCell id="6yRUBu7mAjCOBG5ohTnf-0" value="&lt;b&gt;&lt;font style=&quot;font-size: 18px;&quot;&gt;To Be Stage 1&lt;/font&gt;&lt;/b&gt;" style="rounded=1;whiteSpace=wrap;html=1;arcSize=50;fillColor=#050505;fontColor=#FFFFFF;" vertex="1" parent="hpCw-tIb5tWCJmx0_N-y-1">
          <mxGeometry x="40" y="40" width="120" height="20" as="geometry" />
        </mxCell>
        <mxCell id="FMBJy0A3p0wtkJswKYBC-0" value="MIcroservice API for augmented data" style="rounded=1;whiteSpace=wrap;html=1;strokeWidth=3;fillColor=#d5e8d4;strokeColor=#82b366;" vertex="1" parent="hpCw-tIb5tWCJmx0_N-y-1">
          <mxGeometry x="490" y="404" width="120" height="40" as="geometry" />
        </mxCell>
        <mxCell id="FMBJy0A3p0wtkJswKYBC-1" value="" style="endArrow=none;html=1;rounded=0;strokeColor=#000000;strokeWidth=3;fontSize=14;fontColor=#FF0000;exitX=0.5;exitY=0;exitDx=0;exitDy=0;edgeStyle=elbowEdgeStyle;elbow=vertical;startArrow=none;entryX=0.75;entryY=1;entryDx=0;entryDy=0;" edge="1" parent="hpCw-tIb5tWCJmx0_N-y-1" source="FMBJy0A3p0wtkJswKYBC-0" target="hpCw-tIb5tWCJmx0_N-y-18">
          <mxGeometry width="50" height="50" relative="1" as="geometry">
            <mxPoint x="430" y="414" as="sourcePoint" />
            <mxPoint x="500" y="330" as="targetPoint" />
            <Array as="points">
              <mxPoint x="530" y="370" />
              <mxPoint x="430" y="370" />
            </Array>
          </mxGeometry>
        </mxCell>
      </root>
    </mxGraphModel>
  </diagram>
  <diagram name="As Is Stg 2" id="HtY25ePP93B4yO8tpLyM">
    <mxGraphModel grid="1" page="1" gridSize="10" guides="1" tooltips="1" connect="1" arrows="1" fold="1" pageScale="1" pageWidth="827" pageHeight="1169" math="0" shadow="0">
      <root>
        <mxCell id="1Gu2aNW7ppcC_a8Sjn-T-0" />
        <mxCell id="1Gu2aNW7ppcC_a8Sjn-T-1" parent="1Gu2aNW7ppcC_a8Sjn-T-0" />
        <mxCell id="1Gu2aNW7ppcC_a8Sjn-T-2" value="Syscon" style="rounded=1;whiteSpace=wrap;html=1;fontFamily=Helvetica;fontSize=19;fontColor=default;align=left;strokeColor=none;fillColor=#FFF9F0;arcSize=7;strokeWidth=3;dashed=1;" vertex="1" parent="1Gu2aNW7ppcC_a8Sjn-T-1">
          <mxGeometry x="40" y="370" width="420" height="190" as="geometry" />
        </mxCell>
        <mxCell id="1Gu2aNW7ppcC_a8Sjn-T-4" value="Old Style&lt;br&gt;Product Team" style="rounded=1;whiteSpace=wrap;html=1;fontFamily=Helvetica;fontSize=19;fontColor=default;align=right;strokeColor=none;fillColor=#EAFFEA;arcSize=7;strokeWidth=3;dashed=1;" vertex="1" parent="1Gu2aNW7ppcC_a8Sjn-T-1">
          <mxGeometry x="470" y="20" width="290" height="540" as="geometry" />
        </mxCell>
        <mxCell id="1Gu2aNW7ppcC_a8Sjn-T-5" style="edgeStyle=orthogonalEdgeStyle;rounded=0;orthogonalLoop=1;jettySize=auto;html=1;entryX=0.5;entryY=1;entryDx=0;entryDy=0;startArrow=classic;startFill=1;strokeWidth=3;fillColor=#f5f5f5;strokeColor=#666666;endArrow=none;endFill=0;entryPerimeter=0;exitX=0.5;exitY=0;exitDx=0;exitDy=0;" edge="1" parent="1Gu2aNW7ppcC_a8Sjn-T-1" source="1Gu2aNW7ppcC_a8Sjn-T-18" target="1Gu2aNW7ppcC_a8Sjn-T-6">
          <mxGeometry relative="1" as="geometry">
            <mxPoint x="310" y="640" as="sourcePoint" />
            <mxPoint x="589" y="470" as="targetPoint" />
            <Array as="points">
              <mxPoint x="100" y="550" />
              <mxPoint x="259" y="550" />
            </Array>
          </mxGeometry>
        </mxCell>
        <mxCell id="qAl9GxNGHQt-X6rLCX5M-1" style="edgeStyle=elbowEdgeStyle;rounded=0;orthogonalLoop=1;jettySize=auto;elbow=vertical;html=1;exitX=1;exitY=0.5;exitDx=0;exitDy=0;entryX=0;entryY=0.5;entryDx=0;entryDy=0;strokeColor=#000000;strokeWidth=3;fontSize=14;fontColor=#FF0000;startArrow=none;startFill=0;endArrow=none;endFill=0;" edge="1" parent="1Gu2aNW7ppcC_a8Sjn-T-1" source="1Gu2aNW7ppcC_a8Sjn-T-7" target="qAl9GxNGHQt-X6rLCX5M-0">
          <mxGeometry relative="1" as="geometry" />
        </mxCell>
        <mxCell id="1Gu2aNW7ppcC_a8Sjn-T-6" value="NOMIS&lt;br&gt;Database" style="shape=cylinder3;whiteSpace=wrap;html=1;boundedLbl=1;backgroundOutline=1;size=15;shadow=0;fontFamily=Helvetica;fontSize=12;fontColor=default;align=center;strokeColor=#d79b00;strokeWidth=3;fillColor=#ffe6cc;sketch=0;" vertex="1" parent="1Gu2aNW7ppcC_a8Sjn-T-1">
          <mxGeometry x="214" y="459" width="90" height="80" as="geometry" />
        </mxCell>
        <mxCell id="1Gu2aNW7ppcC_a8Sjn-T-7" value="Prison/Search API" style="rounded=1;whiteSpace=wrap;html=1;fillColor=#ffe6cc;strokeColor=#d79b00;strokeWidth=3;" vertex="1" parent="1Gu2aNW7ppcC_a8Sjn-T-1">
          <mxGeometry x="199" y="404" width="120" height="40" as="geometry" />
        </mxCell>
        <mxCell id="1Gu2aNW7ppcC_a8Sjn-T-8" style="edgeStyle=orthogonalEdgeStyle;rounded=0;orthogonalLoop=1;jettySize=auto;html=1;startArrow=none;startFill=0;strokeWidth=3;fillColor=#f5f5f5;strokeColor=#666666;endArrow=none;endFill=0;exitX=0.25;exitY=1;exitDx=0;exitDy=0;fontColor=#000000;" edge="1" parent="1Gu2aNW7ppcC_a8Sjn-T-1" source="1Gu2aNW7ppcC_a8Sjn-T-9" target="1Gu2aNW7ppcC_a8Sjn-T-7">
          <mxGeometry relative="1" as="geometry">
            <mxPoint x="227" y="80" as="sourcePoint" />
            <mxPoint x="227" y="404" as="targetPoint" />
            <Array as="points">
              <mxPoint x="511" y="320" />
              <mxPoint x="259" y="320" />
            </Array>
          </mxGeometry>
        </mxCell>
        <mxCell id="1Gu2aNW7ppcC_a8Sjn-T-9" value="Front End Service" style="rounded=1;whiteSpace=wrap;html=1;strokeWidth=3;fillColor=#d5e8d4;strokeColor=#82b366;" vertex="1" parent="1Gu2aNW7ppcC_a8Sjn-T-1">
          <mxGeometry x="481" y="30" width="120" height="40" as="geometry" />
        </mxCell>
        <mxCell id="1Gu2aNW7ppcC_a8Sjn-T-10" value="A new front end service improves the user experience.&lt;br&gt;&lt;br&gt;New source of truth domain data stored outside NOMIS.&lt;br style=&quot;font-size: 18px;&quot;&gt;&lt;br style=&quot;font-size: 18px;&quot;&gt;Data must be synchronised with NOMIS to satisfy NOMIS&#39;s downstream dependencies" style="text;html=1;strokeColor=none;fillColor=none;align=left;verticalAlign=middle;whiteSpace=wrap;rounded=0;strokeWidth=3;fontSize=18;" vertex="1" parent="1Gu2aNW7ppcC_a8Sjn-T-1">
          <mxGeometry x="230" y="590" width="560" height="190" as="geometry" />
        </mxCell>
        <mxCell id="1Gu2aNW7ppcC_a8Sjn-T-12" value="NART &amp;amp; other downstream requirements" style="swimlane;fontStyle=0;childLayout=stackLayout;horizontal=1;startSize=30;horizontalStack=0;resizeParent=1;resizeParentMax=0;resizeLast=0;collapsible=1;marginBottom=0;whiteSpace=wrap;html=1;strokeWidth=3;" vertex="1" parent="1Gu2aNW7ppcC_a8Sjn-T-1">
          <mxGeometry x="9" y="653" width="191" height="240" as="geometry" />
        </mxCell>
        <mxCell id="1Gu2aNW7ppcC_a8Sjn-T-13" value="Domain Operational Reports" style="text;strokeColor=none;fillColor=none;align=left;verticalAlign=middle;spacingLeft=4;spacingRight=4;overflow=hidden;points=[[0,0.5],[1,0.5]];portConstraint=eastwest;rotatable=0;whiteSpace=wrap;html=1;strokeWidth=3;fontStyle=0;fontColor=#000000;" vertex="1" parent="1Gu2aNW7ppcC_a8Sjn-T-12">
          <mxGeometry y="30" width="191" height="30" as="geometry" />
        </mxCell>
        <mxCell id="1Gu2aNW7ppcC_a8Sjn-T-14" value="Cross Domain Reports&lt;br&gt;&lt;ul&gt;&lt;li&gt;Offloc&lt;/li&gt;&lt;li&gt;Contingency Report&lt;/li&gt;&lt;li&gt;Unlock Report&lt;/li&gt;&lt;/ul&gt;" style="text;strokeColor=none;fillColor=none;align=left;verticalAlign=middle;spacingLeft=4;spacingRight=4;overflow=hidden;points=[[0,0.5],[1,0.5]];portConstraint=eastwest;rotatable=0;whiteSpace=wrap;html=1;strokeWidth=3;" vertex="1" parent="1Gu2aNW7ppcC_a8Sjn-T-12">
          <mxGeometry y="60" width="191" height="90" as="geometry" />
        </mxCell>
        <mxCell id="1Gu2aNW7ppcC_a8Sjn-T-15" value="MIS Reports" style="text;strokeColor=none;fillColor=none;align=left;verticalAlign=middle;spacingLeft=4;spacingRight=4;overflow=hidden;points=[[0,0.5],[1,0.5]];portConstraint=eastwest;rotatable=0;whiteSpace=wrap;html=1;strokeWidth=3;" vertex="1" parent="1Gu2aNW7ppcC_a8Sjn-T-12">
          <mxGeometry y="150" width="191" height="30" as="geometry" />
        </mxCell>
        <mxCell id="1Gu2aNW7ppcC_a8Sjn-T-16" value="FOI Reports" style="text;strokeColor=none;fillColor=none;align=left;verticalAlign=middle;spacingLeft=4;spacingRight=4;overflow=hidden;points=[[0,0.5],[1,0.5]];portConstraint=eastwest;rotatable=0;whiteSpace=wrap;html=1;strokeWidth=3;" vertex="1" parent="1Gu2aNW7ppcC_a8Sjn-T-12">
          <mxGeometry y="180" width="191" height="30" as="geometry" />
        </mxCell>
        <mxCell id="1Gu2aNW7ppcC_a8Sjn-T-17" value="etc" style="text;strokeColor=none;fillColor=none;align=left;verticalAlign=middle;spacingLeft=4;spacingRight=4;overflow=hidden;points=[[0,0.5],[1,0.5]];portConstraint=eastwest;rotatable=0;whiteSpace=wrap;html=1;strokeWidth=3;" vertex="1" parent="1Gu2aNW7ppcC_a8Sjn-T-12">
          <mxGeometry y="210" width="191" height="30" as="geometry" />
        </mxCell>
        <mxCell id="1Gu2aNW7ppcC_a8Sjn-T-18" value="NOMIS ETL&lt;br&gt;to NART etc&amp;nbsp;" style="rounded=1;whiteSpace=wrap;html=1;fillColor=#ffe6cc;strokeColor=#d79b00;strokeWidth=3;" vertex="1" parent="1Gu2aNW7ppcC_a8Sjn-T-1">
          <mxGeometry x="40" y="603" width="120" height="40" as="geometry" />
        </mxCell>
        <mxCell id="1Gu2aNW7ppcC_a8Sjn-T-19" value="NOMIS&lt;br&gt;Screens" style="rounded=1;whiteSpace=wrap;html=1;fillColor=#ffe6cc;strokeColor=#d79b00;strokeWidth=3;" vertex="1" parent="1Gu2aNW7ppcC_a8Sjn-T-1">
          <mxGeometry x="149" y="479" width="50" height="40" as="geometry" />
        </mxCell>
        <mxCell id="1Gu2aNW7ppcC_a8Sjn-T-27" value="Sub-domain Microservice API" style="rounded=1;whiteSpace=wrap;html=1;strokeWidth=3;fillColor=#d5e8d4;strokeColor=#82b366;" vertex="1" parent="1Gu2aNW7ppcC_a8Sjn-T-1">
          <mxGeometry x="481" y="404" width="120" height="40" as="geometry" />
        </mxCell>
        <mxCell id="1Gu2aNW7ppcC_a8Sjn-T-29" value="" style="endArrow=none;html=1;rounded=0;strokeColor=#000000;strokeWidth=3;fontSize=14;fontColor=#FF0000;edgeStyle=elbowEdgeStyle;elbow=vertical;startArrow=none;" edge="1" parent="1Gu2aNW7ppcC_a8Sjn-T-1" source="1Gu2aNW7ppcC_a8Sjn-T-27" target="1Gu2aNW7ppcC_a8Sjn-T-9">
          <mxGeometry width="50" height="50" relative="1" as="geometry">
            <mxPoint x="541" y="404" as="sourcePoint" />
            <mxPoint x="540" y="70" as="targetPoint" />
            <Array as="points">
              <mxPoint x="540" y="90" />
              <mxPoint x="550" y="130" />
              <mxPoint x="530" y="230" />
              <mxPoint x="350" y="340" />
            </Array>
          </mxGeometry>
        </mxCell>
        <mxCell id="qAl9GxNGHQt-X6rLCX5M-2" style="edgeStyle=elbowEdgeStyle;rounded=0;orthogonalLoop=1;jettySize=auto;elbow=vertical;html=1;exitX=1;exitY=0.5;exitDx=0;exitDy=0;entryX=0;entryY=0.5;entryDx=0;entryDy=0;strokeColor=#000000;strokeWidth=3;fontSize=14;fontColor=#FF0000;startArrow=none;startFill=0;endArrow=none;endFill=0;" edge="1" parent="1Gu2aNW7ppcC_a8Sjn-T-1" source="qAl9GxNGHQt-X6rLCX5M-0" target="1Gu2aNW7ppcC_a8Sjn-T-27">
          <mxGeometry relative="1" as="geometry" />
        </mxCell>
        <mxCell id="qAl9GxNGHQt-X6rLCX5M-0" value="Data Migration &amp;amp; Synchronisation Services" style="rounded=1;whiteSpace=wrap;html=1;fillColor=#ffe6cc;strokeColor=#d79b00;strokeWidth=3;" vertex="1" parent="1Gu2aNW7ppcC_a8Sjn-T-1">
          <mxGeometry x="330" y="384" width="100" height="80" as="geometry" />
        </mxCell>
        <mxCell id="eIsN8YbxCPFKWF5uouzb-0" value="Sub-domain Microservice API" style="rounded=1;whiteSpace=wrap;html=1;strokeWidth=3;fillColor=#d5e8d4;strokeColor=#82b366;" vertex="1" parent="1Gu2aNW7ppcC_a8Sjn-T-1">
          <mxGeometry x="620" y="404" width="120" height="40" as="geometry" />
        </mxCell>
        <mxCell id="eIsN8YbxCPFKWF5uouzb-1" value="New Domain&lt;br&gt;Data" style="shape=cylinder3;whiteSpace=wrap;html=1;boundedLbl=1;backgroundOutline=1;size=15;shadow=0;fontFamily=Helvetica;fontSize=12;align=center;strokeColor=#82b366;strokeWidth=3;fillColor=#d5e8d4;sketch=0;" vertex="1" parent="1Gu2aNW7ppcC_a8Sjn-T-1">
          <mxGeometry x="570" y="459" width="90" height="80" as="geometry" />
        </mxCell>
        <mxCell id="eIsN8YbxCPFKWF5uouzb-2" value="" style="endArrow=none;html=1;rounded=0;strokeColor=#000000;strokeWidth=3;fontSize=14;fontColor=#FF0000;edgeStyle=elbowEdgeStyle;elbow=vertical;startArrow=none;entryX=0.75;entryY=1;entryDx=0;entryDy=0;exitX=0.5;exitY=0;exitDx=0;exitDy=0;" edge="1" parent="1Gu2aNW7ppcC_a8Sjn-T-1" source="eIsN8YbxCPFKWF5uouzb-0" target="1Gu2aNW7ppcC_a8Sjn-T-9">
          <mxGeometry width="50" height="50" relative="1" as="geometry">
            <mxPoint x="550" y="414" as="sourcePoint" />
            <mxPoint x="550" y="80" as="targetPoint" />
            <Array as="points">
              <mxPoint x="630" y="320" />
              <mxPoint x="560" y="140" />
              <mxPoint x="540" y="240" />
              <mxPoint x="360" y="350" />
            </Array>
          </mxGeometry>
        </mxCell>
        <mxCell id="4Amdqg2GR76RsmSrCYUh-0" value="&lt;b&gt;&lt;font style=&quot;font-size: 18px;&quot;&gt;As Is Stage 2&lt;/font&gt;&lt;/b&gt;" style="rounded=1;whiteSpace=wrap;html=1;arcSize=50;fillColor=#050505;fontColor=#FFFFFF;" vertex="1" parent="1Gu2aNW7ppcC_a8Sjn-T-1">
          <mxGeometry x="40" y="40" width="120" height="20" as="geometry" />
        </mxCell>
      </root>
    </mxGraphModel>
  </diagram>
  <diagram name="To Be Stg 2" id="0dHKGIR5agGzOPQrkrLH">
    <mxGraphModel grid="1" page="1" gridSize="10" guides="1" tooltips="1" connect="1" arrows="1" fold="1" pageScale="1" pageWidth="827" pageHeight="1169" math="0" shadow="0">
      <root>
        <mxCell id="pSGtF9QR5gS2GcMtyKp2-0" />
        <mxCell id="pSGtF9QR5gS2GcMtyKp2-1" parent="pSGtF9QR5gS2GcMtyKp2-0" />
        <mxCell id="pSGtF9QR5gS2GcMtyKp2-2" value="Syscon" style="rounded=1;whiteSpace=wrap;html=1;fontFamily=Helvetica;fontSize=19;fontColor=default;align=left;strokeColor=none;fillColor=#FFF9F0;arcSize=7;strokeWidth=3;dashed=1;" vertex="1" parent="pSGtF9QR5gS2GcMtyKp2-1">
          <mxGeometry x="40" y="290" width="420" height="270" as="geometry" />
        </mxCell>
        <mxCell id="pSGtF9QR5gS2GcMtyKp2-3" value="New style&lt;br&gt;Domain Team" style="rounded=1;whiteSpace=wrap;html=1;fontFamily=Helvetica;fontSize=19;fontColor=default;align=right;strokeColor=none;fillColor=#EAFFEA;arcSize=7;strokeWidth=3;dashed=1;" vertex="1" parent="pSGtF9QR5gS2GcMtyKp2-1">
          <mxGeometry x="470" y="20" width="330" height="540" as="geometry" />
        </mxCell>
        <mxCell id="pSGtF9QR5gS2GcMtyKp2-4" style="edgeStyle=orthogonalEdgeStyle;rounded=0;orthogonalLoop=1;jettySize=auto;html=1;entryX=0.5;entryY=1;entryDx=0;entryDy=0;startArrow=classic;startFill=1;strokeWidth=3;fillColor=#f5f5f5;strokeColor=#666666;endArrow=none;endFill=0;entryPerimeter=0;exitX=0.5;exitY=0;exitDx=0;exitDy=0;" edge="1" parent="pSGtF9QR5gS2GcMtyKp2-1" source="pSGtF9QR5gS2GcMtyKp2-18" target="pSGtF9QR5gS2GcMtyKp2-6">
          <mxGeometry relative="1" as="geometry">
            <mxPoint x="310" y="640" as="sourcePoint" />
            <mxPoint x="589" y="470" as="targetPoint" />
            <Array as="points">
              <mxPoint x="100" y="570" />
              <mxPoint x="259" y="570" />
            </Array>
          </mxGeometry>
        </mxCell>
        <mxCell id="pSGtF9QR5gS2GcMtyKp2-5" style="edgeStyle=elbowEdgeStyle;rounded=0;orthogonalLoop=1;jettySize=auto;elbow=vertical;html=1;exitX=1;exitY=0.5;exitDx=0;exitDy=0;entryX=0;entryY=0.5;entryDx=0;entryDy=0;strokeColor=#000000;strokeWidth=3;fontSize=14;fontColor=#FF0000;startArrow=none;startFill=0;endArrow=none;endFill=0;" edge="1" parent="pSGtF9QR5gS2GcMtyKp2-1" source="pSGtF9QR5gS2GcMtyKp2-7" target="pSGtF9QR5gS2GcMtyKp2-24">
          <mxGeometry relative="1" as="geometry">
            <Array as="points">
              <mxPoint x="330" y="424" />
              <mxPoint x="370" y="360" />
              <mxPoint x="330" y="300" />
            </Array>
          </mxGeometry>
        </mxCell>
        <mxCell id="pSGtF9QR5gS2GcMtyKp2-6" value="NOMIS&lt;br&gt;Database" style="shape=cylinder3;whiteSpace=wrap;html=1;boundedLbl=1;backgroundOutline=1;size=15;shadow=0;fontFamily=Helvetica;fontSize=12;fontColor=default;align=center;strokeColor=#d79b00;strokeWidth=3;fillColor=#ffe6cc;sketch=0;" vertex="1" parent="pSGtF9QR5gS2GcMtyKp2-1">
          <mxGeometry x="214" y="459" width="90" height="80" as="geometry" />
        </mxCell>
        <mxCell id="pSGtF9QR5gS2GcMtyKp2-7" value="Prison/Search API" style="rounded=1;whiteSpace=wrap;html=1;fillColor=#ffe6cc;strokeColor=#d79b00;strokeWidth=3;" vertex="1" parent="pSGtF9QR5gS2GcMtyKp2-1">
          <mxGeometry x="199" y="404" width="120" height="40" as="geometry" />
        </mxCell>
        <mxCell id="pSGtF9QR5gS2GcMtyKp2-8" style="edgeStyle=orthogonalEdgeStyle;rounded=0;orthogonalLoop=1;jettySize=auto;html=1;startArrow=none;startFill=0;strokeWidth=3;fillColor=#f5f5f5;strokeColor=#666666;endArrow=none;endFill=0;exitX=0.25;exitY=1;exitDx=0;exitDy=0;entryX=0.5;entryY=0;entryDx=0;entryDy=0;" edge="1" parent="pSGtF9QR5gS2GcMtyKp2-1" source="akiohdTLJtmqq1WnYXgh-2" target="akiohdTLJtmqq1WnYXgh-1">
          <mxGeometry relative="1" as="geometry">
            <mxPoint x="227" y="80" as="sourcePoint" />
            <mxPoint x="227" y="404" as="targetPoint" />
            <Array as="points">
              <mxPoint x="582" y="190" />
              <mxPoint x="259" y="190" />
            </Array>
          </mxGeometry>
        </mxCell>
        <mxCell id="pSGtF9QR5gS2GcMtyKp2-9" value="Front End Service" style="rounded=1;whiteSpace=wrap;html=1;strokeWidth=3;fillColor=#d5e8d4;strokeColor=#82b366;" vertex="1" parent="pSGtF9QR5gS2GcMtyKp2-1">
          <mxGeometry x="552" y="30" width="120" height="40" as="geometry" />
        </mxCell>
        <mxCell id="pSGtF9QR5gS2GcMtyKp2-10" value="A new front end service improves the user experience.&lt;br&gt;&lt;br&gt;New source of truth domain data stored outside NOMIS in sub-domain microservices.&lt;br style=&quot;font-size: 18px;&quot;&gt;&lt;br style=&quot;font-size: 18px;&quot;&gt;Data must be synchronised with NOMIS to satisfy NOMIS&#39;s downstream dependencies&lt;br&gt;&lt;br&gt;Separation of orchestration - data fetching, joining &amp;amp; transforming etc allows the front end service to focus on user interaction.&lt;br&gt;&lt;br&gt;Domain APIs abstract the front end service away from the NOMIS&#39;s Prison API which enables data to be introduced from non-NOMIS sources.&lt;br&gt;&lt;br&gt;The Domain API includes access to the domain data regardless of its source&lt;br&gt;&lt;br&gt;The Domain service encompasses the provision of operational lists/reports." style="text;html=1;strokeColor=none;fillColor=none;align=left;verticalAlign=middle;whiteSpace=wrap;rounded=0;strokeWidth=3;fontSize=18;" vertex="1" parent="pSGtF9QR5gS2GcMtyKp2-1">
          <mxGeometry x="240" y="590" width="560" height="470" as="geometry" />
        </mxCell>
        <mxCell id="pSGtF9QR5gS2GcMtyKp2-12" value="NART &amp;amp; other downstream requirements" style="swimlane;fontStyle=0;childLayout=stackLayout;horizontal=1;startSize=30;horizontalStack=0;resizeParent=1;resizeParentMax=0;resizeLast=0;collapsible=1;marginBottom=0;whiteSpace=wrap;html=1;strokeWidth=3;" vertex="1" parent="pSGtF9QR5gS2GcMtyKp2-1">
          <mxGeometry x="9" y="653" width="191" height="240" as="geometry" />
        </mxCell>
        <mxCell id="pSGtF9QR5gS2GcMtyKp2-13" value="&lt;font color=&quot;#ff0000&quot;&gt;&lt;b&gt;Domain Operational Reports&lt;/b&gt;&lt;/font&gt;" style="text;strokeColor=none;fillColor=none;align=left;verticalAlign=middle;spacingLeft=4;spacingRight=4;overflow=hidden;points=[[0,0.5],[1,0.5]];portConstraint=eastwest;rotatable=0;whiteSpace=wrap;html=1;strokeWidth=3;fontStyle=0;fontColor=#000000;" vertex="1" parent="pSGtF9QR5gS2GcMtyKp2-12">
          <mxGeometry y="30" width="191" height="30" as="geometry" />
        </mxCell>
        <mxCell id="pSGtF9QR5gS2GcMtyKp2-14" value="Cross Domain Reports&lt;br&gt;&lt;ul&gt;&lt;li&gt;Offloc&lt;/li&gt;&lt;li&gt;Contingency Report&lt;/li&gt;&lt;li&gt;Unlock Report&lt;/li&gt;&lt;/ul&gt;" style="text;strokeColor=none;fillColor=none;align=left;verticalAlign=middle;spacingLeft=4;spacingRight=4;overflow=hidden;points=[[0,0.5],[1,0.5]];portConstraint=eastwest;rotatable=0;whiteSpace=wrap;html=1;strokeWidth=3;" vertex="1" parent="pSGtF9QR5gS2GcMtyKp2-12">
          <mxGeometry y="60" width="191" height="90" as="geometry" />
        </mxCell>
        <mxCell id="pSGtF9QR5gS2GcMtyKp2-15" value="MIS Reports" style="text;strokeColor=none;fillColor=none;align=left;verticalAlign=middle;spacingLeft=4;spacingRight=4;overflow=hidden;points=[[0,0.5],[1,0.5]];portConstraint=eastwest;rotatable=0;whiteSpace=wrap;html=1;strokeWidth=3;" vertex="1" parent="pSGtF9QR5gS2GcMtyKp2-12">
          <mxGeometry y="150" width="191" height="30" as="geometry" />
        </mxCell>
        <mxCell id="pSGtF9QR5gS2GcMtyKp2-16" value="FOI Reports" style="text;strokeColor=none;fillColor=none;align=left;verticalAlign=middle;spacingLeft=4;spacingRight=4;overflow=hidden;points=[[0,0.5],[1,0.5]];portConstraint=eastwest;rotatable=0;whiteSpace=wrap;html=1;strokeWidth=3;" vertex="1" parent="pSGtF9QR5gS2GcMtyKp2-12">
          <mxGeometry y="180" width="191" height="30" as="geometry" />
        </mxCell>
        <mxCell id="pSGtF9QR5gS2GcMtyKp2-17" value="etc" style="text;strokeColor=none;fillColor=none;align=left;verticalAlign=middle;spacingLeft=4;spacingRight=4;overflow=hidden;points=[[0,0.5],[1,0.5]];portConstraint=eastwest;rotatable=0;whiteSpace=wrap;html=1;strokeWidth=3;" vertex="1" parent="pSGtF9QR5gS2GcMtyKp2-12">
          <mxGeometry y="210" width="191" height="30" as="geometry" />
        </mxCell>
        <mxCell id="pSGtF9QR5gS2GcMtyKp2-18" value="NOMIS ETL&lt;br&gt;to NART etc&amp;nbsp;" style="rounded=1;whiteSpace=wrap;html=1;fillColor=#ffe6cc;strokeColor=#d79b00;strokeWidth=3;" vertex="1" parent="pSGtF9QR5gS2GcMtyKp2-1">
          <mxGeometry x="40" y="603" width="120" height="40" as="geometry" />
        </mxCell>
        <mxCell id="pSGtF9QR5gS2GcMtyKp2-19" value="NOMIS&lt;br&gt;Screens" style="rounded=1;whiteSpace=wrap;html=1;fillColor=#ffe6cc;strokeColor=#d79b00;strokeWidth=3;" vertex="1" parent="pSGtF9QR5gS2GcMtyKp2-1">
          <mxGeometry x="149" y="479" width="50" height="40" as="geometry" />
        </mxCell>
        <mxCell id="pSGtF9QR5gS2GcMtyKp2-20" value="Sub-domain Microservice API" style="rounded=1;whiteSpace=wrap;html=1;strokeWidth=3;fillColor=#d5e8d4;strokeColor=#82b366;" vertex="1" parent="pSGtF9QR5gS2GcMtyKp2-1">
          <mxGeometry x="481" y="404" width="120" height="40" as="geometry" />
        </mxCell>
        <mxCell id="pSGtF9QR5gS2GcMtyKp2-22" value="" style="endArrow=none;html=1;rounded=0;strokeColor=#000000;strokeWidth=3;fontSize=14;fontColor=#FF0000;edgeStyle=elbowEdgeStyle;elbow=vertical;startArrow=none;entryX=0.5;entryY=1;entryDx=0;entryDy=0;" edge="1" parent="pSGtF9QR5gS2GcMtyKp2-1" source="pSGtF9QR5gS2GcMtyKp2-20" target="akiohdTLJtmqq1WnYXgh-0">
          <mxGeometry width="50" height="50" relative="1" as="geometry">
            <mxPoint x="541" y="404" as="sourcePoint" />
            <mxPoint x="540" y="70" as="targetPoint" />
            <Array as="points">
              <mxPoint x="540" y="350" />
              <mxPoint x="550" y="130" />
              <mxPoint x="530" y="230" />
              <mxPoint x="350" y="340" />
            </Array>
          </mxGeometry>
        </mxCell>
        <mxCell id="pSGtF9QR5gS2GcMtyKp2-23" style="edgeStyle=elbowEdgeStyle;rounded=0;orthogonalLoop=1;jettySize=auto;elbow=vertical;html=1;exitX=1;exitY=0.5;exitDx=0;exitDy=0;strokeColor=#000000;strokeWidth=3;fontSize=14;fontColor=#FF0000;startArrow=none;startFill=0;endArrow=none;endFill=0;dashed=1;dashPattern=1 1;" edge="1" parent="pSGtF9QR5gS2GcMtyKp2-1" source="pSGtF9QR5gS2GcMtyKp2-24" target="pSGtF9QR5gS2GcMtyKp2-20">
          <mxGeometry relative="1" as="geometry">
            <Array as="points">
              <mxPoint x="520" y="420" />
              <mxPoint x="470" y="300" />
              <mxPoint x="470" y="250" />
            </Array>
          </mxGeometry>
        </mxCell>
        <mxCell id="pSGtF9QR5gS2GcMtyKp2-24" value="Data Migration &amp;amp; Synchronisation Services" style="rounded=1;whiteSpace=wrap;html=1;fillColor=#ffe6cc;strokeColor=#d79b00;strokeWidth=3;" vertex="1" parent="pSGtF9QR5gS2GcMtyKp2-1">
          <mxGeometry x="350" y="384" width="100" height="80" as="geometry" />
        </mxCell>
        <mxCell id="akiohdTLJtmqq1WnYXgh-0" value="Domain API&lt;br&gt;Own" style="rounded=1;whiteSpace=wrap;html=1;fillColor=#d5e8d4;strokeColor=#82b366;strokeWidth=3;" vertex="1" parent="pSGtF9QR5gS2GcMtyKp2-1">
          <mxGeometry x="552" y="200" width="120" height="40" as="geometry" />
        </mxCell>
        <mxCell id="akiohdTLJtmqq1WnYXgh-1" value="Domain API&lt;br&gt;Dependent on" style="rounded=1;whiteSpace=wrap;html=1;fillColor=#d5e8d4;strokeColor=#82b366;strokeWidth=3;fillStyle=hatch;" vertex="1" parent="pSGtF9QR5gS2GcMtyKp2-1">
          <mxGeometry x="199" y="200" width="120" height="40" as="geometry" />
        </mxCell>
        <mxCell id="akiohdTLJtmqq1WnYXgh-2" value="Orchestration&lt;br&gt;Layer" style="rounded=1;whiteSpace=wrap;html=1;fillColor=#d5e8d4;strokeColor=#82b366;strokeWidth=3;" vertex="1" parent="pSGtF9QR5gS2GcMtyKp2-1">
          <mxGeometry x="552" y="120" width="120" height="40" as="geometry" />
        </mxCell>
        <mxCell id="akiohdTLJtmqq1WnYXgh-3" value="" style="endArrow=none;html=1;rounded=0;strokeColor=#000000;strokeWidth=3;fontSize=14;fontColor=#FF0000;edgeStyle=elbowEdgeStyle;elbow=vertical;startArrow=none;entryX=0.5;entryY=1;entryDx=0;entryDy=0;exitX=0.5;exitY=0;exitDx=0;exitDy=0;" edge="1" parent="pSGtF9QR5gS2GcMtyKp2-1" source="pSGtF9QR5gS2GcMtyKp2-7" target="akiohdTLJtmqq1WnYXgh-1">
          <mxGeometry width="50" height="50" relative="1" as="geometry">
            <mxPoint x="550" y="414" as="sourcePoint" />
            <mxPoint x="550" y="80" as="targetPoint" />
            <Array as="points">
              <mxPoint x="250" y="360" />
              <mxPoint x="560" y="140" />
              <mxPoint x="540" y="240" />
              <mxPoint x="360" y="350" />
            </Array>
          </mxGeometry>
        </mxCell>
        <mxCell id="nogGNwQy5vD31sLvsh1j-0" value="Sub-domain Microservice API" style="rounded=1;whiteSpace=wrap;html=1;strokeWidth=3;fillColor=#d5e8d4;strokeColor=#82b366;" vertex="1" parent="pSGtF9QR5gS2GcMtyKp2-1">
          <mxGeometry x="620" y="404" width="120" height="40" as="geometry" />
        </mxCell>
        <mxCell id="nogGNwQy5vD31sLvsh1j-1" value="Domain&lt;br&gt;Data" style="shape=cylinder3;whiteSpace=wrap;html=1;boundedLbl=1;backgroundOutline=1;size=15;shadow=0;fontFamily=Helvetica;fontSize=12;align=center;strokeColor=#82b366;strokeWidth=3;fillColor=#d5e8d4;sketch=0;" vertex="1" parent="pSGtF9QR5gS2GcMtyKp2-1">
          <mxGeometry x="570" y="459" width="90" height="80" as="geometry" />
        </mxCell>
        <mxCell id="nogGNwQy5vD31sLvsh1j-2" value="" style="endArrow=none;html=1;rounded=0;strokeColor=#000000;strokeWidth=3;fontSize=14;fontColor=#FF0000;edgeStyle=elbowEdgeStyle;elbow=vertical;startArrow=none;entryX=0.75;entryY=1;entryDx=0;entryDy=0;exitX=0.5;exitY=0;exitDx=0;exitDy=0;" edge="1" parent="pSGtF9QR5gS2GcMtyKp2-1" source="nogGNwQy5vD31sLvsh1j-0" target="akiohdTLJtmqq1WnYXgh-0">
          <mxGeometry width="50" height="50" relative="1" as="geometry">
            <mxPoint x="550" y="414" as="sourcePoint" />
            <mxPoint x="550" y="80" as="targetPoint" />
            <Array as="points">
              <mxPoint x="620" y="350" />
              <mxPoint x="560" y="140" />
              <mxPoint x="540" y="240" />
              <mxPoint x="360" y="350" />
            </Array>
          </mxGeometry>
        </mxCell>
        <mxCell id="94bG2ZO9cUU1qtgV3pnB-0" style="edgeStyle=orthogonalEdgeStyle;rounded=0;orthogonalLoop=1;jettySize=auto;html=1;startArrow=none;startFill=0;strokeWidth=3;fillColor=#f5f5f5;strokeColor=#666666;endArrow=none;endFill=0;entryX=0.75;entryY=0;entryDx=0;entryDy=0;exitX=0.25;exitY=1;exitDx=0;exitDy=0;" edge="1" parent="pSGtF9QR5gS2GcMtyKp2-1" source="akiohdTLJtmqq1WnYXgh-0" target="pSGtF9QR5gS2GcMtyKp2-7">
          <mxGeometry relative="1" as="geometry">
            <mxPoint x="521" y="210" as="sourcePoint" />
            <mxPoint x="269" y="290" as="targetPoint" />
            <Array as="points">
              <mxPoint x="582" y="310" />
              <mxPoint x="289" y="310" />
            </Array>
          </mxGeometry>
        </mxCell>
        <mxCell id="goaPM5kMclxMOoJN3zqR-0" value="" style="curved=1;endArrow=classic;html=1;rounded=0;fontSize=14;fontColor=#FF0000;strokeWidth=3;strokeColor=#FF0000;entryX=0;entryY=0.5;entryDx=0;entryDy=0;exitX=0.099;exitY=-0.067;exitDx=0;exitDy=0;exitPerimeter=0;" edge="1" parent="pSGtF9QR5gS2GcMtyKp2-1" source="pSGtF9QR5gS2GcMtyKp2-13" target="pSGtF9QR5gS2GcMtyKp2-9">
          <mxGeometry width="50" height="50" relative="1" as="geometry">
            <mxPoint x="56" y="653" as="sourcePoint" />
            <mxPoint x="370" y="13.710000000000036" as="targetPoint" />
            <Array as="points">
              <mxPoint x="10" y="340" />
              <mxPoint x="80" y="30" />
            </Array>
          </mxGeometry>
        </mxCell>
        <mxCell id="8qcW72qeHlaKPIUDsf8r-0" value="whatever is easiest" style="edgeStyle=orthogonalEdgeStyle;rounded=0;orthogonalLoop=1;jettySize=auto;html=1;startArrow=none;startFill=0;strokeWidth=3;fillColor=#f5f5f5;strokeColor=#666666;endArrow=none;endFill=0;entryX=0.5;entryY=0;entryDx=0;entryDy=0;dashed=1;dashPattern=1 1;exitX=0;exitY=0.5;exitDx=0;exitDy=0;" edge="1" parent="pSGtF9QR5gS2GcMtyKp2-1" source="akiohdTLJtmqq1WnYXgh-0" target="pSGtF9QR5gS2GcMtyKp2-24">
          <mxGeometry relative="1" as="geometry">
            <mxPoint x="560" y="280" as="sourcePoint" />
            <mxPoint x="299" y="414" as="targetPoint" />
            <Array as="points">
              <mxPoint x="400" y="220" />
            </Array>
          </mxGeometry>
        </mxCell>
        <mxCell id="pZzgSxBMFb2UhQX-LjNj-0" value="&lt;b&gt;&lt;font style=&quot;font-size: 18px;&quot;&gt;To Be Stage 2&lt;/font&gt;&lt;/b&gt;" style="rounded=1;whiteSpace=wrap;html=1;arcSize=50;fillColor=#050505;fontColor=#FFFFFF;" vertex="1" parent="pSGtF9QR5gS2GcMtyKp2-1">
          <mxGeometry x="40" y="40" width="120" height="20" as="geometry" />
        </mxCell>
        <mxCell id="zkRSEABDtupNYrmmkadV-0" value="" style="endArrow=none;html=1;rounded=0;strokeColor=#000000;strokeWidth=3;fontSize=14;fontColor=#FF0000;edgeStyle=elbowEdgeStyle;elbow=vertical;startArrow=none;entryX=0.5;entryY=1;entryDx=0;entryDy=0;exitX=0.5;exitY=0;exitDx=0;exitDy=0;" edge="1" parent="pSGtF9QR5gS2GcMtyKp2-1" source="akiohdTLJtmqq1WnYXgh-2" target="pSGtF9QR5gS2GcMtyKp2-9">
          <mxGeometry width="50" height="50" relative="1" as="geometry">
            <mxPoint x="690" y="414" as="sourcePoint" />
            <mxPoint x="652" y="330" as="targetPoint" />
            <Array as="points">
              <mxPoint x="612" y="90" />
              <mxPoint x="570" y="150" />
              <mxPoint x="550" y="250" />
              <mxPoint x="370" y="360" />
            </Array>
          </mxGeometry>
        </mxCell>
        <mxCell id="zkRSEABDtupNYrmmkadV-1" value="" style="endArrow=none;html=1;rounded=0;strokeColor=#000000;strokeWidth=3;fontSize=14;fontColor=#FF0000;edgeStyle=elbowEdgeStyle;elbow=vertical;startArrow=none;entryX=0.5;entryY=1;entryDx=0;entryDy=0;exitX=0.5;exitY=0;exitDx=0;exitDy=0;" edge="1" parent="pSGtF9QR5gS2GcMtyKp2-1" source="akiohdTLJtmqq1WnYXgh-0" target="akiohdTLJtmqq1WnYXgh-2">
          <mxGeometry width="50" height="50" relative="1" as="geometry">
            <mxPoint x="622" y="130" as="sourcePoint" />
            <mxPoint x="622" y="80" as="targetPoint" />
            <Array as="points">
              <mxPoint x="612" y="180" />
              <mxPoint x="380" y="370" />
            </Array>
          </mxGeometry>
        </mxCell>
      </root>
    </mxGraphModel>
  </diagram>
  <diagram name="Stg 5" id="irNEjnG6nl7-ZHFZoPHU">
    <mxGraphModel grid="1" page="1" gridSize="10" guides="1" tooltips="1" connect="1" arrows="1" fold="1" pageScale="1" pageWidth="827" pageHeight="1169" math="0" shadow="0">
      <root>
        <mxCell id="z2t90n-ko00lE9kxhcGA-0" />
        <mxCell id="z2t90n-ko00lE9kxhcGA-1" parent="z2t90n-ko00lE9kxhcGA-0" />
        <mxCell id="z2t90n-ko00lE9kxhcGA-3" value="Domain A" style="rounded=1;whiteSpace=wrap;html=1;fontFamily=Helvetica;fontSize=19;fontColor=default;align=right;strokeColor=none;fillColor=#EAFFEA;arcSize=7;strokeWidth=3;dashed=1;spacingBottom=50;" vertex="1" parent="z2t90n-ko00lE9kxhcGA-1">
          <mxGeometry x="510" y="80" width="290" height="540" as="geometry" />
        </mxCell>
        <mxCell id="z2t90n-ko00lE9kxhcGA-9" value="Front End Service&lt;br&gt;includes operational reports/lists" style="rounded=1;whiteSpace=wrap;html=1;strokeWidth=3;fillColor=#d5e8d4;strokeColor=#82b366;" vertex="1" parent="z2t90n-ko00lE9kxhcGA-1">
          <mxGeometry x="595" y="90" width="120" height="50" as="geometry" />
        </mxCell>
        <mxCell id="z2t90n-ko00lE9kxhcGA-10" value="New front end services improve the user experience.&lt;br&gt;&lt;br&gt;New source of truth domain data stored outside NOMIS in sub-domain microservices.&lt;br style=&quot;font-size: 18px;&quot;&gt;&lt;br style=&quot;font-size: 18px;&quot;&gt;Separation of orchestration - data fetching, joining &amp;amp; transforming etc allows the front end service to focus on user interaction.&lt;br&gt;&lt;br&gt;Services dependent on data owned by other domains access their domain APIs and thus do not need to concern themselves with complexities of subdomain microservices.&lt;br&gt;&lt;br&gt;Domain services include the provision of operational lists/reports." style="text;html=1;strokeColor=none;fillColor=none;align=left;verticalAlign=middle;whiteSpace=wrap;rounded=0;strokeWidth=3;fontSize=18;" vertex="1" parent="z2t90n-ko00lE9kxhcGA-1">
          <mxGeometry x="261" y="690" width="560" height="365" as="geometry" />
        </mxCell>
        <mxCell id="z2t90n-ko00lE9kxhcGA-11" value="Re-developed downstream services" style="swimlane;fontStyle=0;childLayout=stackLayout;horizontal=1;startSize=30;horizontalStack=0;resizeParent=1;resizeParentMax=0;resizeLast=0;collapsible=1;marginBottom=0;whiteSpace=wrap;html=1;strokeWidth=3;" vertex="1" parent="z2t90n-ko00lE9kxhcGA-1">
          <mxGeometry x="9" y="653" width="191" height="210" as="geometry" />
        </mxCell>
        <mxCell id="z2t90n-ko00lE9kxhcGA-13" value="Cross Domain Reports&lt;br&gt;&lt;ul&gt;&lt;li&gt;Offloc&lt;/li&gt;&lt;li&gt;Contingency Report&lt;/li&gt;&lt;li&gt;Unlock Report&lt;/li&gt;&lt;/ul&gt;" style="text;strokeColor=none;fillColor=none;align=left;verticalAlign=middle;spacingLeft=4;spacingRight=4;overflow=hidden;points=[[0,0.5],[1,0.5]];portConstraint=eastwest;rotatable=0;whiteSpace=wrap;html=1;strokeWidth=3;" vertex="1" parent="z2t90n-ko00lE9kxhcGA-11">
          <mxGeometry y="30" width="191" height="90" as="geometry" />
        </mxCell>
        <mxCell id="z2t90n-ko00lE9kxhcGA-14" value="MIS Reports" style="text;strokeColor=none;fillColor=none;align=left;verticalAlign=middle;spacingLeft=4;spacingRight=4;overflow=hidden;points=[[0,0.5],[1,0.5]];portConstraint=eastwest;rotatable=0;whiteSpace=wrap;html=1;strokeWidth=3;" vertex="1" parent="z2t90n-ko00lE9kxhcGA-11">
          <mxGeometry y="120" width="191" height="30" as="geometry" />
        </mxCell>
        <mxCell id="z2t90n-ko00lE9kxhcGA-15" value="FOI Reports" style="text;strokeColor=none;fillColor=none;align=left;verticalAlign=middle;spacingLeft=4;spacingRight=4;overflow=hidden;points=[[0,0.5],[1,0.5]];portConstraint=eastwest;rotatable=0;whiteSpace=wrap;html=1;strokeWidth=3;" vertex="1" parent="z2t90n-ko00lE9kxhcGA-11">
          <mxGeometry y="150" width="191" height="30" as="geometry" />
        </mxCell>
        <mxCell id="z2t90n-ko00lE9kxhcGA-16" value="etc" style="text;strokeColor=none;fillColor=none;align=left;verticalAlign=middle;spacingLeft=4;spacingRight=4;overflow=hidden;points=[[0,0.5],[1,0.5]];portConstraint=eastwest;rotatable=0;whiteSpace=wrap;html=1;strokeWidth=3;" vertex="1" parent="z2t90n-ko00lE9kxhcGA-11">
          <mxGeometry y="180" width="191" height="30" as="geometry" />
        </mxCell>
        <mxCell id="z2t90n-ko00lE9kxhcGA-19" value="Sub-domain Microservice API" style="rounded=1;whiteSpace=wrap;html=1;strokeWidth=3;fillColor=#d5e8d4;strokeColor=#82b366;" vertex="1" parent="z2t90n-ko00lE9kxhcGA-1">
          <mxGeometry x="521" y="464" width="120" height="40" as="geometry" />
        </mxCell>
        <mxCell id="z2t90n-ko00lE9kxhcGA-20" value="" style="endArrow=none;html=1;rounded=0;strokeColor=#000000;strokeWidth=3;fontSize=14;fontColor=#FF0000;edgeStyle=elbowEdgeStyle;elbow=vertical;startArrow=none;exitX=0.5;exitY=0;exitDx=0;exitDy=0;entryX=0.5;entryY=1;entryDx=0;entryDy=0;" edge="1" parent="z2t90n-ko00lE9kxhcGA-1" source="z2t90n-ko00lE9kxhcGA-25" target="z2t90n-ko00lE9kxhcGA-9">
          <mxGeometry width="50" height="50" relative="1" as="geometry">
            <mxPoint x="581" y="464" as="sourcePoint" />
            <mxPoint x="580" y="130" as="targetPoint" />
            <Array as="points">
              <mxPoint x="650" y="150" />
              <mxPoint x="590" y="190" />
              <mxPoint x="570" y="290" />
              <mxPoint x="390" y="400" />
            </Array>
          </mxGeometry>
        </mxCell>
        <mxCell id="z2t90n-ko00lE9kxhcGA-23" value="Domain A API" style="rounded=1;whiteSpace=wrap;html=1;fillColor=#d5e8d4;strokeColor=#82b366;strokeWidth=3;" vertex="1" parent="z2t90n-ko00lE9kxhcGA-1">
          <mxGeometry x="595" y="340" width="120" height="40" as="geometry" />
        </mxCell>
        <mxCell id="z2t90n-ko00lE9kxhcGA-25" value="Orchestration&lt;br&gt;Layer" style="rounded=1;whiteSpace=wrap;html=1;fillColor=#d5e8d4;strokeColor=#82b366;strokeWidth=3;" vertex="1" parent="z2t90n-ko00lE9kxhcGA-1">
          <mxGeometry x="595" y="170" width="120" height="40" as="geometry" />
        </mxCell>
        <mxCell id="z2t90n-ko00lE9kxhcGA-27" value="Sub-domain Microservice API" style="rounded=1;whiteSpace=wrap;html=1;strokeWidth=3;fillColor=#d5e8d4;strokeColor=#82b366;" vertex="1" parent="z2t90n-ko00lE9kxhcGA-1">
          <mxGeometry x="660" y="464" width="120" height="40" as="geometry" />
        </mxCell>
        <mxCell id="z2t90n-ko00lE9kxhcGA-28" value="Domain B&lt;br&gt;Data" style="shape=cylinder3;whiteSpace=wrap;html=1;boundedLbl=1;backgroundOutline=1;size=15;shadow=0;fontFamily=Helvetica;fontSize=12;align=center;strokeColor=#82b366;strokeWidth=3;fillColor=#d5e8d4;sketch=0;" vertex="1" parent="z2t90n-ko00lE9kxhcGA-1">
          <mxGeometry x="610" y="519" width="90" height="80" as="geometry" />
        </mxCell>
        <mxCell id="z2t90n-ko00lE9kxhcGA-29" value="" style="endArrow=none;html=1;rounded=0;strokeColor=#000000;strokeWidth=3;fontSize=14;fontColor=#FF0000;edgeStyle=elbowEdgeStyle;elbow=vertical;startArrow=none;entryX=0.75;entryY=1;entryDx=0;entryDy=0;exitX=0.5;exitY=0;exitDx=0;exitDy=0;" edge="1" parent="z2t90n-ko00lE9kxhcGA-1" source="z2t90n-ko00lE9kxhcGA-27" target="z2t90n-ko00lE9kxhcGA-23">
          <mxGeometry width="50" height="50" relative="1" as="geometry">
            <mxPoint x="590" y="474" as="sourcePoint" />
            <mxPoint x="590" y="140" as="targetPoint" />
            <Array as="points">
              <mxPoint x="660" y="410" />
              <mxPoint x="600" y="200" />
              <mxPoint x="580" y="300" />
              <mxPoint x="400" y="410" />
            </Array>
          </mxGeometry>
        </mxCell>
        <mxCell id="jaAHkUcpMCawecpj0oS4-0" value="Domain B" style="rounded=1;whiteSpace=wrap;html=1;fontFamily=Helvetica;fontSize=19;fontColor=default;align=right;strokeColor=none;fillColor=#EAFFEA;arcSize=7;strokeWidth=3;dashed=1;spacingBottom=50;" vertex="1" parent="z2t90n-ko00lE9kxhcGA-1">
          <mxGeometry x="40" y="80" width="290" height="540" as="geometry" />
        </mxCell>
        <mxCell id="jaAHkUcpMCawecpj0oS4-1" value="Front End Service&lt;br&gt;includes operational reports/lists" style="rounded=1;whiteSpace=wrap;html=1;strokeWidth=3;fillColor=#d5e8d4;strokeColor=#82b366;" vertex="1" parent="z2t90n-ko00lE9kxhcGA-1">
          <mxGeometry x="125" y="90" width="120" height="50" as="geometry" />
        </mxCell>
        <mxCell id="jaAHkUcpMCawecpj0oS4-2" value="Sub-domain Microservice API" style="rounded=1;whiteSpace=wrap;html=1;strokeWidth=3;fillColor=#d5e8d4;strokeColor=#82b366;" vertex="1" parent="z2t90n-ko00lE9kxhcGA-1">
          <mxGeometry x="51" y="464" width="120" height="40" as="geometry" />
        </mxCell>
        <mxCell id="jaAHkUcpMCawecpj0oS4-3" value="" style="endArrow=none;html=1;rounded=0;strokeColor=#000000;strokeWidth=3;fontSize=14;fontColor=#FF0000;edgeStyle=elbowEdgeStyle;elbow=vertical;startArrow=none;entryX=0.25;entryY=1;entryDx=0;entryDy=0;exitX=0.5;exitY=0;exitDx=0;exitDy=0;" edge="1" parent="z2t90n-ko00lE9kxhcGA-1" source="jaAHkUcpMCawecpj0oS4-2" target="jaAHkUcpMCawecpj0oS4-4">
          <mxGeometry width="50" height="50" relative="1" as="geometry">
            <mxPoint x="111" y="464" as="sourcePoint" />
            <mxPoint x="110" y="130" as="targetPoint" />
            <Array as="points">
              <mxPoint x="130" y="410" />
              <mxPoint x="130" y="420" />
              <mxPoint x="120" y="190" />
              <mxPoint x="100" y="290" />
              <mxPoint x="-80" y="400" />
            </Array>
          </mxGeometry>
        </mxCell>
        <mxCell id="jaAHkUcpMCawecpj0oS4-4" value="Domain B API" style="rounded=1;whiteSpace=wrap;html=1;fillColor=#d5e8d4;strokeColor=#82b366;strokeWidth=3;" vertex="1" parent="z2t90n-ko00lE9kxhcGA-1">
          <mxGeometry x="125" y="340" width="120" height="40" as="geometry" />
        </mxCell>
        <mxCell id="jaAHkUcpMCawecpj0oS4-5" value="Orchestration&lt;br&gt;Layer" style="rounded=1;whiteSpace=wrap;html=1;fillColor=#d5e8d4;strokeColor=#82b366;strokeWidth=3;" vertex="1" parent="z2t90n-ko00lE9kxhcGA-1">
          <mxGeometry x="125" y="180" width="120" height="40" as="geometry" />
        </mxCell>
        <mxCell id="jaAHkUcpMCawecpj0oS4-6" value="Sub-domain Microservice API" style="rounded=1;whiteSpace=wrap;html=1;strokeWidth=3;fillColor=#d5e8d4;strokeColor=#82b366;" vertex="1" parent="z2t90n-ko00lE9kxhcGA-1">
          <mxGeometry x="190" y="464" width="120" height="40" as="geometry" />
        </mxCell>
        <mxCell id="jaAHkUcpMCawecpj0oS4-7" value="Domain A&lt;br&gt;Data" style="shape=cylinder3;whiteSpace=wrap;html=1;boundedLbl=1;backgroundOutline=1;size=15;shadow=0;fontFamily=Helvetica;fontSize=12;align=center;strokeColor=#82b366;strokeWidth=3;fillColor=#d5e8d4;sketch=0;" vertex="1" parent="z2t90n-ko00lE9kxhcGA-1">
          <mxGeometry x="140" y="519" width="90" height="80" as="geometry" />
        </mxCell>
        <mxCell id="jaAHkUcpMCawecpj0oS4-8" value="" style="endArrow=none;html=1;rounded=0;strokeColor=#000000;strokeWidth=3;fontSize=14;fontColor=#FF0000;edgeStyle=elbowEdgeStyle;elbow=vertical;startArrow=none;entryX=0.683;entryY=1.05;entryDx=0;entryDy=0;exitX=0.5;exitY=0;exitDx=0;exitDy=0;entryPerimeter=0;" edge="1" parent="z2t90n-ko00lE9kxhcGA-1" source="jaAHkUcpMCawecpj0oS4-6" target="jaAHkUcpMCawecpj0oS4-4">
          <mxGeometry width="50" height="50" relative="1" as="geometry">
            <mxPoint x="120" y="474" as="sourcePoint" />
            <mxPoint x="120" y="140" as="targetPoint" />
            <Array as="points">
              <mxPoint x="190" y="410" />
              <mxPoint x="130" y="200" />
              <mxPoint x="110" y="300" />
              <mxPoint x="-70" y="410" />
            </Array>
          </mxGeometry>
        </mxCell>
        <mxCell id="jaAHkUcpMCawecpj0oS4-9" value="" style="endArrow=none;html=1;rounded=0;strokeColor=#000000;strokeWidth=3;fontSize=14;fontColor=#FF0000;edgeStyle=elbowEdgeStyle;elbow=vertical;startArrow=none;exitX=0.5;exitY=0;exitDx=0;exitDy=0;entryX=0.5;entryY=1;entryDx=0;entryDy=0;" edge="1" parent="z2t90n-ko00lE9kxhcGA-1" source="jaAHkUcpMCawecpj0oS4-5" target="jaAHkUcpMCawecpj0oS4-1">
          <mxGeometry width="50" height="50" relative="1" as="geometry">
            <mxPoint x="505" y="180" as="sourcePoint" />
            <mxPoint x="505" y="140" as="targetPoint" />
            <Array as="points">
              <mxPoint x="180" y="160" />
              <mxPoint x="440" y="200" />
              <mxPoint x="420" y="300" />
              <mxPoint x="240" y="410" />
            </Array>
          </mxGeometry>
        </mxCell>
        <mxCell id="jaAHkUcpMCawecpj0oS4-10" value="" style="endArrow=none;html=1;rounded=0;strokeColor=#000000;strokeWidth=3;fontSize=14;fontColor=#FF0000;edgeStyle=elbowEdgeStyle;elbow=vertical;startArrow=none;entryX=0.25;entryY=1;entryDx=0;entryDy=0;exitX=0.5;exitY=0;exitDx=0;exitDy=0;" edge="1" parent="z2t90n-ko00lE9kxhcGA-1" source="z2t90n-ko00lE9kxhcGA-19" target="z2t90n-ko00lE9kxhcGA-23">
          <mxGeometry width="50" height="50" relative="1" as="geometry">
            <mxPoint x="730" y="474" as="sourcePoint" />
            <mxPoint x="695" y="390" as="targetPoint" />
            <Array as="points">
              <mxPoint x="600" y="410" />
              <mxPoint x="610" y="210" />
              <mxPoint x="590" y="310" />
              <mxPoint x="410" y="420" />
            </Array>
          </mxGeometry>
        </mxCell>
        <mxCell id="jaAHkUcpMCawecpj0oS4-11" value="" style="endArrow=none;html=1;rounded=0;strokeColor=#000000;strokeWidth=3;fontSize=14;fontColor=#FF0000;edgeStyle=elbowEdgeStyle;elbow=vertical;startArrow=none;entryX=0.5;entryY=1;entryDx=0;entryDy=0;exitX=0.5;exitY=0;exitDx=0;exitDy=0;" edge="1" parent="z2t90n-ko00lE9kxhcGA-1" source="z2t90n-ko00lE9kxhcGA-23" target="z2t90n-ko00lE9kxhcGA-25">
          <mxGeometry width="50" height="50" relative="1" as="geometry">
            <mxPoint x="420" y="474" as="sourcePoint" />
            <mxPoint x="376.96000000000004" y="392" as="targetPoint" />
            <Array as="points">
              <mxPoint x="660" y="270" />
              <mxPoint x="360" y="420" />
              <mxPoint x="300" y="210" />
              <mxPoint x="280" y="310" />
              <mxPoint x="100" y="420" />
            </Array>
          </mxGeometry>
        </mxCell>
        <mxCell id="jaAHkUcpMCawecpj0oS4-12" value="" style="endArrow=none;html=1;rounded=0;strokeColor=#000000;strokeWidth=3;fontSize=14;fontColor=#FF0000;edgeStyle=elbowEdgeStyle;elbow=vertical;startArrow=none;entryX=0.25;entryY=1;entryDx=0;entryDy=0;exitX=0.75;exitY=0;exitDx=0;exitDy=0;" edge="1" parent="z2t90n-ko00lE9kxhcGA-1" source="jaAHkUcpMCawecpj0oS4-4" target="z2t90n-ko00lE9kxhcGA-25">
          <mxGeometry width="50" height="50" relative="1" as="geometry">
            <mxPoint x="625" y="290" as="sourcePoint" />
            <mxPoint x="625" y="160" as="targetPoint" />
            <Array as="points">
              <mxPoint x="420" y="270" />
              <mxPoint x="330" y="370" />
              <mxPoint x="270" y="160" />
              <mxPoint x="250" y="260" />
              <mxPoint x="70" y="370" />
            </Array>
          </mxGeometry>
        </mxCell>
        <mxCell id="jaAHkUcpMCawecpj0oS4-13" value="" style="endArrow=none;html=1;rounded=0;strokeColor=#000000;strokeWidth=3;fontSize=14;fontColor=#FF0000;edgeStyle=elbowEdgeStyle;elbow=vertical;startArrow=none;entryX=0.5;entryY=1;entryDx=0;entryDy=0;exitX=0.5;exitY=0;exitDx=0;exitDy=0;" edge="1" parent="z2t90n-ko00lE9kxhcGA-1" source="jaAHkUcpMCawecpj0oS4-4" target="jaAHkUcpMCawecpj0oS4-5">
          <mxGeometry width="50" height="50" relative="1" as="geometry">
            <mxPoint x="505" y="350" as="sourcePoint" />
            <mxPoint x="505" y="220" as="targetPoint" />
            <Array as="points">
              <mxPoint x="180" y="280" />
              <mxPoint x="210" y="430" />
              <mxPoint x="150" y="220" />
              <mxPoint x="130" y="320" />
              <mxPoint x="-50" y="430" />
            </Array>
          </mxGeometry>
        </mxCell>
        <mxCell id="uCppnIvCJA7ignHof3Wb-0" value="&lt;b&gt;&lt;font style=&quot;font-size: 18px;&quot;&gt;Stage 5&lt;/font&gt;&lt;/b&gt;" style="rounded=1;whiteSpace=wrap;html=1;arcSize=50;fillColor=#050505;fontColor=#FFFFFF;" vertex="1" parent="z2t90n-ko00lE9kxhcGA-1">
          <mxGeometry x="40" y="40" width="120" height="20" as="geometry" />
        </mxCell>
        <mxCell id="oHxFY_bxCDoVz2dxkf9R-0" value="" style="sketch=0;points=[[0,0,0],[0.25,0,0],[0.5,0,0],[0.75,0,0],[1,0,0],[0,1,0],[0.25,1,0],[0.5,1,0],[0.75,1,0],[1,1,0],[0,0.25,0],[0,0.5,0],[0,0.75,0],[1,0.25,0],[1,0.5,0],[1,0.75,0]];outlineConnect=0;fontColor=#232F3E;gradientColor=#FF4F8B;gradientDirection=north;fillColor=#BC1356;strokeColor=#ffffff;dashed=0;verticalLabelPosition=bottom;verticalAlign=top;align=center;html=1;fontSize=12;fontStyle=0;aspect=fixed;shape=mxgraph.aws4.resourceIcon;resIcon=mxgraph.aws4.sns;" vertex="1" parent="z2t90n-ko00lE9kxhcGA-1">
          <mxGeometry x="384" y="345" width="30" height="30" as="geometry" />
        </mxCell>
        <mxCell id="oHxFY_bxCDoVz2dxkf9R-1" value="" style="endArrow=classic;html=1;rounded=0;edgeStyle=orthogonalEdgeStyle;curved=1;exitX=1;exitY=0.75;exitDx=0;exitDy=0;entryX=0;entryY=0.5;entryDx=0;entryDy=0;entryPerimeter=0;" edge="1" parent="z2t90n-ko00lE9kxhcGA-1" source="jaAHkUcpMCawecpj0oS4-0" target="oHxFY_bxCDoVz2dxkf9R-0">
          <mxGeometry width="50" height="50" relative="1" as="geometry">
            <mxPoint x="390" y="560" as="sourcePoint" />
            <mxPoint x="440" y="510" as="targetPoint" />
            <Array as="points">
              <mxPoint x="350" y="485" />
              <mxPoint x="350" y="360" />
            </Array>
          </mxGeometry>
        </mxCell>
        <mxCell id="oHxFY_bxCDoVz2dxkf9R-3" value="other domains might&lt;br&gt;want to know of this&lt;br&gt;happening" style="edgeLabel;html=1;align=center;verticalAlign=middle;resizable=0;points=[];" connectable="0" vertex="1" parent="oHxFY_bxCDoVz2dxkf9R-1">
          <mxGeometry x="0.2301" y="-22" relative="1" as="geometry">
            <mxPoint x="-12" y="34" as="offset" />
          </mxGeometry>
        </mxCell>
        <mxCell id="oHxFY_bxCDoVz2dxkf9R-2" value="" style="endArrow=classic;html=1;rounded=0;edgeStyle=orthogonalEdgeStyle;curved=1;entryX=0;entryY=0.75;entryDx=0;entryDy=0;exitX=1;exitY=0.5;exitDx=0;exitDy=0;exitPerimeter=0;startArrow=none;" edge="1" parent="z2t90n-ko00lE9kxhcGA-1" source="P9gf_dP14NIi2Bu3dmkd-0" target="z2t90n-ko00lE9kxhcGA-3">
          <mxGeometry width="50" height="50" relative="1" as="geometry">
            <mxPoint x="450" y="360" as="sourcePoint" />
            <mxPoint x="420" y="365" as="targetPoint" />
            <Array as="points">
              <mxPoint x="470" y="360" />
              <mxPoint x="470" y="485" />
            </Array>
          </mxGeometry>
        </mxCell>
        <mxCell id="P9gf_dP14NIi2Bu3dmkd-3" value="this domain needs to&lt;br&gt;react to this happening" style="edgeLabel;html=1;align=center;verticalAlign=middle;resizable=0;points=[];" connectable="0" vertex="1" parent="oHxFY_bxCDoVz2dxkf9R-2">
          <mxGeometry x="-0.027" y="2" relative="1" as="geometry">
            <mxPoint as="offset" />
          </mxGeometry>
        </mxCell>
        <mxCell id="P9gf_dP14NIi2Bu3dmkd-0" value="" style="sketch=0;points=[[0,0,0],[0.25,0,0],[0.5,0,0],[0.75,0,0],[1,0,0],[0,1,0],[0.25,1,0],[0.5,1,0],[0.75,1,0],[1,1,0],[0,0.25,0],[0,0.5,0],[0,0.75,0],[1,0.25,0],[1,0.5,0],[1,0.75,0]];outlineConnect=0;fontColor=#232F3E;gradientColor=#FF4F8B;gradientDirection=north;fillColor=#BC1356;strokeColor=#ffffff;dashed=0;verticalLabelPosition=bottom;verticalAlign=top;align=center;html=1;fontSize=12;fontStyle=0;aspect=fixed;shape=mxgraph.aws4.resourceIcon;resIcon=mxgraph.aws4.sqs;" vertex="1" parent="z2t90n-ko00lE9kxhcGA-1">
          <mxGeometry x="420" y="345" width="30" height="30" as="geometry" />
        </mxCell>
        <mxCell id="P9gf_dP14NIi2Bu3dmkd-6" value="HMPPS Domain Events" style="text;html=1;strokeColor=none;fillColor=none;align=center;verticalAlign=middle;whiteSpace=wrap;rounded=0;" vertex="1" parent="z2t90n-ko00lE9kxhcGA-1">
          <mxGeometry x="384" y="300" width="60" height="30" as="geometry" />
        </mxCell>
      </root>
    </mxGraphModel>
  </diagram>
  <diagram name="Core Domain" id="NQUbiNofKG086S-PdGy1">
    <mxGraphModel grid="1" page="1" gridSize="10" guides="1" tooltips="1" connect="1" arrows="1" fold="1" pageScale="1" pageWidth="827" pageHeight="1169" math="0" shadow="0">
      <root>
        <mxCell id="SAlDt-15YEoCGSczfo7X-0" />
        <mxCell id="SAlDt-15YEoCGSczfo7X-1" parent="SAlDt-15YEoCGSczfo7X-0" />
        <mxCell id="SAlDt-15YEoCGSczfo7X-2" value="Domain A" style="rounded=1;whiteSpace=wrap;html=1;fontFamily=Helvetica;fontSize=19;fontColor=default;align=right;strokeColor=none;fillColor=#EAFFEA;arcSize=7;strokeWidth=3;dashed=1;spacingBottom=50;" parent="SAlDt-15YEoCGSczfo7X-1" vertex="1">
          <mxGeometry x="290" y="100" width="290" height="540" as="geometry" />
        </mxCell>
        <mxCell id="SAlDt-15YEoCGSczfo7X-3" value="Front End Service&lt;br&gt;includes operational reports/lists" style="rounded=1;whiteSpace=wrap;html=1;strokeWidth=3;fillColor=#d5e8d4;strokeColor=#82b366;" parent="SAlDt-15YEoCGSczfo7X-1" vertex="1">
          <mxGeometry x="375" y="110" width="120" height="50" as="geometry" />
        </mxCell>
        <mxCell id="SAlDt-15YEoCGSczfo7X-4" value="Other Domains are dependent on the data from this domain so the highest priority components are those which remove the dependency on NOMIS APIs&amp;nbsp;i.e. the Domain API and Domain Events.&lt;br&gt;" style="text;html=1;strokeColor=none;fillColor=none;align=left;verticalAlign=middle;whiteSpace=wrap;rounded=0;strokeWidth=3;fontSize=18;" parent="SAlDt-15YEoCGSczfo7X-1" vertex="1">
          <mxGeometry x="244" y="670" width="560" height="90" as="geometry" />
        </mxCell>
        <mxCell id="SAlDt-15YEoCGSczfo7X-5" value="Re-developed downstream services" style="swimlane;fontStyle=0;childLayout=stackLayout;horizontal=1;startSize=30;horizontalStack=0;resizeParent=1;resizeParentMax=0;resizeLast=0;collapsible=1;marginBottom=0;whiteSpace=wrap;html=1;strokeWidth=3;" parent="SAlDt-15YEoCGSczfo7X-1" vertex="1">
          <mxGeometry x="9" y="653" width="191" height="210" as="geometry" />
        </mxCell>
        <mxCell id="SAlDt-15YEoCGSczfo7X-6" value="Cross Domain Reports&lt;br&gt;&lt;ul&gt;&lt;li&gt;Offloc&lt;/li&gt;&lt;li&gt;Contingency Report&lt;/li&gt;&lt;li&gt;Unlock Report&lt;/li&gt;&lt;/ul&gt;" style="text;strokeColor=none;fillColor=none;align=left;verticalAlign=middle;spacingLeft=4;spacingRight=4;overflow=hidden;points=[[0,0.5],[1,0.5]];portConstraint=eastwest;rotatable=0;whiteSpace=wrap;html=1;strokeWidth=3;" parent="SAlDt-15YEoCGSczfo7X-5" vertex="1">
          <mxGeometry y="30" width="191" height="90" as="geometry" />
        </mxCell>
        <mxCell id="SAlDt-15YEoCGSczfo7X-7" value="MIS Reports" style="text;strokeColor=none;fillColor=none;align=left;verticalAlign=middle;spacingLeft=4;spacingRight=4;overflow=hidden;points=[[0,0.5],[1,0.5]];portConstraint=eastwest;rotatable=0;whiteSpace=wrap;html=1;strokeWidth=3;" parent="SAlDt-15YEoCGSczfo7X-5" vertex="1">
          <mxGeometry y="120" width="191" height="30" as="geometry" />
        </mxCell>
        <mxCell id="SAlDt-15YEoCGSczfo7X-8" value="FOI Reports" style="text;strokeColor=none;fillColor=none;align=left;verticalAlign=middle;spacingLeft=4;spacingRight=4;overflow=hidden;points=[[0,0.5],[1,0.5]];portConstraint=eastwest;rotatable=0;whiteSpace=wrap;html=1;strokeWidth=3;" parent="SAlDt-15YEoCGSczfo7X-5" vertex="1">
          <mxGeometry y="150" width="191" height="30" as="geometry" />
        </mxCell>
        <mxCell id="SAlDt-15YEoCGSczfo7X-9" value="etc" style="text;strokeColor=none;fillColor=none;align=left;verticalAlign=middle;spacingLeft=4;spacingRight=4;overflow=hidden;points=[[0,0.5],[1,0.5]];portConstraint=eastwest;rotatable=0;whiteSpace=wrap;html=1;strokeWidth=3;" parent="SAlDt-15YEoCGSczfo7X-5" vertex="1">
          <mxGeometry y="180" width="191" height="30" as="geometry" />
        </mxCell>
        <mxCell id="SAlDt-15YEoCGSczfo7X-10" value="Sub-domain Microservice API" style="rounded=1;whiteSpace=wrap;html=1;strokeWidth=3;fillColor=#d5e8d4;strokeColor=#82b366;" parent="SAlDt-15YEoCGSczfo7X-1" vertex="1">
          <mxGeometry x="301" y="484" width="120" height="40" as="geometry" />
        </mxCell>
        <mxCell id="SAlDt-15YEoCGSczfo7X-11" value="" style="endArrow=none;html=1;rounded=0;strokeColor=#000000;strokeWidth=3;fontSize=14;fontColor=#FF0000;edgeStyle=elbowEdgeStyle;elbow=vertical;startArrow=none;exitX=0.5;exitY=0;exitDx=0;exitDy=0;entryX=0.5;entryY=1;entryDx=0;entryDy=0;" parent="SAlDt-15YEoCGSczfo7X-1" source="SAlDt-15YEoCGSczfo7X-13" target="SAlDt-15YEoCGSczfo7X-3" edge="1">
          <mxGeometry width="50" height="50" relative="1" as="geometry">
            <mxPoint x="361" y="484" as="sourcePoint" />
            <mxPoint x="360" y="150" as="targetPoint" />
            <Array as="points">
              <mxPoint x="430" y="170" />
              <mxPoint x="370" y="210" />
              <mxPoint x="350" y="310" />
              <mxPoint x="170" y="420" />
            </Array>
          </mxGeometry>
        </mxCell>
        <mxCell id="SAlDt-15YEoCGSczfo7X-12" value="Domain API" style="rounded=1;whiteSpace=wrap;html=1;fillColor=#d5e8d4;strokeColor=#82b366;strokeWidth=3;" parent="SAlDt-15YEoCGSczfo7X-1" vertex="1">
          <mxGeometry x="375" y="360" width="120" height="40" as="geometry" />
        </mxCell>
        <mxCell id="SAlDt-15YEoCGSczfo7X-13" value="Orchestration&lt;br&gt;Layer" style="rounded=1;whiteSpace=wrap;html=1;fillColor=#d5e8d4;strokeColor=#82b366;strokeWidth=3;" parent="SAlDt-15YEoCGSczfo7X-1" vertex="1">
          <mxGeometry x="375" y="190" width="120" height="40" as="geometry" />
        </mxCell>
        <mxCell id="SAlDt-15YEoCGSczfo7X-14" value="Sub-domain Microservice API" style="rounded=1;whiteSpace=wrap;html=1;strokeWidth=3;fillColor=#d5e8d4;strokeColor=#82b366;" parent="SAlDt-15YEoCGSczfo7X-1" vertex="1">
          <mxGeometry x="440" y="484" width="120" height="40" as="geometry" />
        </mxCell>
        <mxCell id="SAlDt-15YEoCGSczfo7X-15" value="Domain&lt;br&gt;Data" style="shape=cylinder3;whiteSpace=wrap;html=1;boundedLbl=1;backgroundOutline=1;size=15;shadow=0;fontFamily=Helvetica;fontSize=12;align=center;strokeColor=#82b366;strokeWidth=3;fillColor=#d5e8d4;sketch=0;" parent="SAlDt-15YEoCGSczfo7X-1" vertex="1">
          <mxGeometry x="390" y="539" width="90" height="80" as="geometry" />
        </mxCell>
        <mxCell id="SAlDt-15YEoCGSczfo7X-16" value="" style="endArrow=none;html=1;rounded=0;strokeColor=#000000;strokeWidth=3;fontSize=14;fontColor=#FF0000;edgeStyle=elbowEdgeStyle;elbow=vertical;startArrow=none;entryX=0.75;entryY=1;entryDx=0;entryDy=0;exitX=0.5;exitY=0;exitDx=0;exitDy=0;" parent="SAlDt-15YEoCGSczfo7X-1" source="SAlDt-15YEoCGSczfo7X-14" target="SAlDt-15YEoCGSczfo7X-12" edge="1">
          <mxGeometry width="50" height="50" relative="1" as="geometry">
            <mxPoint x="370" y="494" as="sourcePoint" />
            <mxPoint x="370" y="160" as="targetPoint" />
            <Array as="points">
              <mxPoint x="440" y="430" />
              <mxPoint x="380" y="220" />
              <mxPoint x="360" y="320" />
              <mxPoint x="180" y="430" />
            </Array>
          </mxGeometry>
        </mxCell>
        <mxCell id="SAlDt-15YEoCGSczfo7X-27" value="" style="endArrow=none;html=1;rounded=0;strokeColor=#000000;strokeWidth=3;fontSize=14;fontColor=#FF0000;edgeStyle=elbowEdgeStyle;elbow=vertical;startArrow=none;entryX=0.25;entryY=1;entryDx=0;entryDy=0;exitX=0.5;exitY=0;exitDx=0;exitDy=0;" parent="SAlDt-15YEoCGSczfo7X-1" source="SAlDt-15YEoCGSczfo7X-10" target="SAlDt-15YEoCGSczfo7X-12" edge="1">
          <mxGeometry width="50" height="50" relative="1" as="geometry">
            <mxPoint x="510" y="494" as="sourcePoint" />
            <mxPoint x="475" y="410" as="targetPoint" />
            <Array as="points">
              <mxPoint x="380" y="430" />
              <mxPoint x="390" y="230" />
              <mxPoint x="370" y="330" />
              <mxPoint x="190" y="440" />
            </Array>
          </mxGeometry>
        </mxCell>
        <mxCell id="SAlDt-15YEoCGSczfo7X-28" value="" style="endArrow=none;html=1;rounded=0;strokeColor=#000000;strokeWidth=3;fontSize=14;fontColor=#FF0000;edgeStyle=elbowEdgeStyle;elbow=vertical;startArrow=none;entryX=0.5;entryY=1;entryDx=0;entryDy=0;exitX=0.5;exitY=0;exitDx=0;exitDy=0;" parent="SAlDt-15YEoCGSczfo7X-1" source="SAlDt-15YEoCGSczfo7X-12" target="SAlDt-15YEoCGSczfo7X-13" edge="1">
          <mxGeometry width="50" height="50" relative="1" as="geometry">
            <mxPoint x="200" y="494" as="sourcePoint" />
            <mxPoint x="156.96000000000004" y="412" as="targetPoint" />
            <Array as="points">
              <mxPoint x="440" y="290" />
              <mxPoint x="140" y="440" />
              <mxPoint x="80" y="230" />
              <mxPoint x="60" y="330" />
              <mxPoint x="-120" y="440" />
            </Array>
          </mxGeometry>
        </mxCell>
        <mxCell id="SAlDt-15YEoCGSczfo7X-31" value="&lt;span style=&quot;font-size: 18px;&quot;&gt;&lt;b&gt;Core data domain i.e. one with many dependencies&lt;/b&gt;&lt;/span&gt;" style="rounded=1;whiteSpace=wrap;html=1;arcSize=50;fillColor=#050505;fontColor=#FFFFFF;" parent="SAlDt-15YEoCGSczfo7X-1" vertex="1">
          <mxGeometry x="40" y="40" width="480" height="20" as="geometry" />
        </mxCell>
        <mxCell id="SAlDt-15YEoCGSczfo7X-32" value="HMPPS Domain&lt;br&gt;Events SNS" style="sketch=0;points=[[0,0,0],[0.25,0,0],[0.5,0,0],[0.75,0,0],[1,0,0],[0,1,0],[0.25,1,0],[0.5,1,0],[0.75,1,0],[1,1,0],[0,0.25,0],[0,0.5,0],[0,0.75,0],[1,0.25,0],[1,0.5,0],[1,0.75,0]];outlineConnect=0;fontColor=#232F3E;gradientColor=#FF4F8B;gradientDirection=north;fillColor=#BC1356;strokeColor=#ffffff;dashed=0;verticalLabelPosition=bottom;verticalAlign=top;align=center;html=1;fontSize=12;fontStyle=0;aspect=fixed;shape=mxgraph.aws4.resourceIcon;resIcon=mxgraph.aws4.sns;" parent="SAlDt-15YEoCGSczfo7X-1" vertex="1">
          <mxGeometry x="720" y="170" width="30" height="30" as="geometry" />
        </mxCell>
        <mxCell id="SAlDt-15YEoCGSczfo7X-33" value="" style="endArrow=classic;html=1;rounded=0;edgeStyle=orthogonalEdgeStyle;curved=1;exitX=1;exitY=0;exitDx=0;exitDy=0;" parent="SAlDt-15YEoCGSczfo7X-1" source="SAlDt-15YEoCGSczfo7X-2" target="SAlDt-15YEoCGSczfo7X-32" edge="1">
          <mxGeometry width="50" height="50" relative="1" as="geometry">
            <mxPoint x="110" y="505" as="sourcePoint" />
            <mxPoint x="220" y="530" as="targetPoint" />
            <Array as="points">
              <mxPoint x="580" y="80" />
              <mxPoint x="735" y="80" />
            </Array>
          </mxGeometry>
        </mxCell>
        <mxCell id="SAlDt-15YEoCGSczfo7X-35" value="" style="endArrow=classic;html=1;rounded=0;edgeStyle=orthogonalEdgeStyle;curved=1;entryX=0;entryY=0.25;entryDx=0;entryDy=0;exitX=1;exitY=0.5;exitDx=0;exitDy=0;exitPerimeter=0;" parent="SAlDt-15YEoCGSczfo7X-1" source="PTZ9zFHs0ubltzyEkRIL-0" target="SAlDt-15YEoCGSczfo7X-2" edge="1">
          <mxGeometry width="50" height="50" relative="1" as="geometry">
            <mxPoint x="230" y="380" as="sourcePoint" />
            <mxPoint x="200" y="385" as="targetPoint" />
            <Array as="points">
              <mxPoint x="220" y="185" />
              <mxPoint x="220" y="235" />
            </Array>
          </mxGeometry>
        </mxCell>
        <mxCell id="SAlDt-15YEoCGSczfo7X-36" value="this domain needs to&lt;br&gt;react to this happening" style="edgeLabel;html=1;align=center;verticalAlign=middle;resizable=0;points=[];" parent="SAlDt-15YEoCGSczfo7X-35" vertex="1" connectable="0">
          <mxGeometry x="-0.1238" y="-1" relative="1" as="geometry">
            <mxPoint x="11" y="-29" as="offset" />
          </mxGeometry>
        </mxCell>
        <mxCell id="PTZ9zFHs0ubltzyEkRIL-0" value="HMPPS Domain&lt;br&gt;Events SQS" style="sketch=0;points=[[0,0,0],[0.25,0,0],[0.5,0,0],[0.75,0,0],[1,0,0],[0,1,0],[0.25,1,0],[0.5,1,0],[0.75,1,0],[1,1,0],[0,0.25,0],[0,0.5,0],[0,0.75,0],[1,0.25,0],[1,0.5,0],[1,0.75,0]];outlineConnect=0;fontColor=#232F3E;gradientColor=#FF4F8B;gradientDirection=north;fillColor=#BC1356;strokeColor=#ffffff;dashed=0;verticalLabelPosition=bottom;verticalAlign=top;align=center;html=1;fontSize=12;fontStyle=0;aspect=fixed;shape=mxgraph.aws4.resourceIcon;resIcon=mxgraph.aws4.sqs;" vertex="1" parent="SAlDt-15YEoCGSczfo7X-1">
          <mxGeometry x="140" y="170" width="30" height="30" as="geometry" />
        </mxCell>
        <mxCell id="hN3fqs4mT2I1UCu2Bi2--0" value="Domain B" style="rounded=1;whiteSpace=wrap;html=1;fontFamily=Helvetica;fontSize=19;fontColor=default;align=center;strokeColor=none;fillColor=#EAFFEA;arcSize=7;strokeWidth=3;dashed=1;spacingBottom=0;" vertex="1" parent="SAlDt-15YEoCGSczfo7X-1">
          <mxGeometry x="685" y="250" width="100" height="50" as="geometry" />
        </mxCell>
        <mxCell id="hN3fqs4mT2I1UCu2Bi2--1" value="Domain B is dependent on domain A&#39;s data and events" style="text;html=1;strokeColor=none;fillColor=none;align=center;verticalAlign=middle;whiteSpace=wrap;rounded=0;" vertex="1" parent="SAlDt-15YEoCGSczfo7X-1">
          <mxGeometry x="652.5" y="310" width="165" height="30" as="geometry" />
        </mxCell>
        <mxCell id="hN3fqs4mT2I1UCu2Bi2--2" value="&lt;b&gt;&lt;font style=&quot;font-size: 16px;&quot;&gt;1&lt;/font&gt;&lt;/b&gt;" style="ellipse;whiteSpace=wrap;html=1;aspect=fixed;strokeWidth=3;strokeColor=#FF0000;" vertex="1" parent="SAlDt-15YEoCGSczfo7X-1">
          <mxGeometry x="370" y="350" width="20" height="20" as="geometry" />
        </mxCell>
        <mxCell id="hN3fqs4mT2I1UCu2Bi2--3" value="&lt;b&gt;&lt;font style=&quot;font-size: 16px;&quot;&gt;1&lt;/font&gt;&lt;/b&gt;" style="ellipse;whiteSpace=wrap;html=1;aspect=fixed;strokeWidth=3;strokeColor=#FF0000;" vertex="1" parent="SAlDt-15YEoCGSczfo7X-1">
          <mxGeometry x="700" y="150" width="20" height="20" as="geometry" />
        </mxCell>
        <mxCell id="hN3fqs4mT2I1UCu2Bi2--4" value="&lt;b&gt;&lt;font style=&quot;font-size: 16px;&quot;&gt;1&lt;/font&gt;&lt;/b&gt;" style="ellipse;whiteSpace=wrap;html=1;aspect=fixed;strokeWidth=3;strokeColor=#FF0000;" vertex="1" parent="SAlDt-15YEoCGSczfo7X-1">
          <mxGeometry x="220" y="682.5" width="20" height="20" as="geometry" />
        </mxCell>
        <mxCell id="hN3fqs4mT2I1UCu2Bi2--5" value="&lt;b&gt;&lt;font style=&quot;font-size: 16px;&quot;&gt;2&lt;/font&gt;&lt;/b&gt;" style="ellipse;whiteSpace=wrap;html=1;aspect=fixed;strokeWidth=3;strokeColor=#FF0000;" vertex="1" parent="SAlDt-15YEoCGSczfo7X-1">
          <mxGeometry x="360" y="100" width="20" height="20" as="geometry" />
        </mxCell>
        <mxCell id="hN3fqs4mT2I1UCu2Bi2--8" value="&lt;b&gt;&lt;font style=&quot;font-size: 16px;&quot;&gt;2&lt;/font&gt;&lt;/b&gt;" style="ellipse;whiteSpace=wrap;html=1;aspect=fixed;strokeWidth=3;strokeColor=#FF0000;" vertex="1" parent="SAlDt-15YEoCGSczfo7X-1">
          <mxGeometry x="220" y="778" width="20" height="20" as="geometry" />
        </mxCell>
        <mxCell id="hN3fqs4mT2I1UCu2Bi2--9" value="If we then consider that business value has the next highest priority, the next component to look at is the DPS UI - and associated orchestration layer.&amp;nbsp; This new UI can enable augmentation of the NOMIS data as and when required." style="text;html=1;strokeColor=none;fillColor=none;align=left;verticalAlign=middle;whiteSpace=wrap;rounded=0;strokeWidth=3;fontSize=18;" vertex="1" parent="SAlDt-15YEoCGSczfo7X-1">
          <mxGeometry x="245" y="770" width="520" height="90" as="geometry" />
        </mxCell>
        <mxCell id="hN3fqs4mT2I1UCu2Bi2--12" value="&lt;b&gt;&lt;font style=&quot;font-size: 16px;&quot;&gt;2&lt;/font&gt;&lt;/b&gt;" style="ellipse;whiteSpace=wrap;html=1;aspect=fixed;strokeWidth=3;strokeColor=#FF0000;" vertex="1" parent="SAlDt-15YEoCGSczfo7X-1">
          <mxGeometry x="360" y="180" width="20" height="20" as="geometry" />
        </mxCell>
        <mxCell id="hN3fqs4mT2I1UCu2Bi2--13" value="&lt;b&gt;&lt;font style=&quot;font-size: 16px;&quot;&gt;3&lt;/font&gt;&lt;/b&gt;" style="ellipse;whiteSpace=wrap;html=1;aspect=fixed;strokeWidth=3;strokeColor=#FF0000;" vertex="1" parent="SAlDt-15YEoCGSczfo7X-1">
          <mxGeometry x="290" y="470" width="20" height="20" as="geometry" />
        </mxCell>
        <mxCell id="hN3fqs4mT2I1UCu2Bi2--14" value="&lt;b&gt;&lt;font style=&quot;font-size: 16px;&quot;&gt;3&lt;/font&gt;&lt;/b&gt;" style="ellipse;whiteSpace=wrap;html=1;aspect=fixed;strokeWidth=3;strokeColor=#FF0000;fontSize=16;" vertex="1" parent="SAlDt-15YEoCGSczfo7X-1">
          <mxGeometry x="430" y="470" width="20" height="20" as="geometry" />
        </mxCell>
        <mxCell id="hN3fqs4mT2I1UCu2Bi2--16" value="&lt;b&gt;&lt;font style=&quot;font-size: 16px;&quot;&gt;3&lt;/font&gt;&lt;/b&gt;" style="ellipse;whiteSpace=wrap;html=1;aspect=fixed;strokeWidth=3;strokeColor=#FF0000;" vertex="1" parent="SAlDt-15YEoCGSczfo7X-1">
          <mxGeometry x="380" y="539" width="20" height="20" as="geometry" />
        </mxCell>
        <mxCell id="hN3fqs4mT2I1UCu2Bi2--17" value="&lt;b&gt;&lt;font style=&quot;font-size: 16px;&quot;&gt;3&lt;/font&gt;&lt;/b&gt;" style="ellipse;whiteSpace=wrap;html=1;aspect=fixed;strokeWidth=3;strokeColor=#FF0000;" vertex="1" parent="SAlDt-15YEoCGSczfo7X-1">
          <mxGeometry x="220" y="880" width="20" height="20" as="geometry" />
        </mxCell>
        <mxCell id="hN3fqs4mT2I1UCu2Bi2--18" value="The final components to be considered are the data storage microservices which, once populated allow NOMIS storage to be switched off." style="text;html=1;strokeColor=none;fillColor=none;align=left;verticalAlign=middle;whiteSpace=wrap;rounded=0;strokeWidth=3;fontSize=18;" vertex="1" parent="SAlDt-15YEoCGSczfo7X-1">
          <mxGeometry x="245" y="880" width="540" height="65" as="geometry" />
        </mxCell>
      </root>
    </mxGraphModel>
  </diagram>
  <diagram name="Default Domain" id="t9VDwQ9b9URPcP0Jo5zW">
    <mxGraphModel dx="1201" dy="686" grid="1" gridSize="10" guides="1" tooltips="1" connect="1" arrows="1" fold="1" page="1" pageScale="1" pageWidth="827" pageHeight="1169" math="0" shadow="0">
      <root>
        <mxCell id="3yNbrJTuZeWlu97Rgaz0-0" />
        <mxCell id="3yNbrJTuZeWlu97Rgaz0-1" parent="3yNbrJTuZeWlu97Rgaz0-0" />
        <mxCell id="e-2qs5dMtwoo_rG2cWgX-22" value="" style="rounded=1;whiteSpace=wrap;html=1;fillColor=#e1d5e7;strokeColor=#9673a6;strokeWidth=3;" parent="3yNbrJTuZeWlu97Rgaz0-1" vertex="1">
          <mxGeometry x="540" y="211" width="120" height="40" as="geometry" />
        </mxCell>
        <mxCell id="3yNbrJTuZeWlu97Rgaz0-2" value="" style="rounded=1;whiteSpace=wrap;html=1;fontFamily=Helvetica;fontSize=19;fontColor=default;align=right;strokeColor=none;fillColor=#EAFFEA;arcSize=7;strokeWidth=3;dashed=1;spacingBottom=50;" parent="3yNbrJTuZeWlu97Rgaz0-1" vertex="1">
          <mxGeometry x="338" y="30" width="170" height="430" as="geometry" />
        </mxCell>
        <mxCell id="3yNbrJTuZeWlu97Rgaz0-3" value="Front End Service&lt;br&gt;includes operational reports/lists" style="rounded=1;whiteSpace=wrap;html=1;strokeWidth=3;fillColor=#d5e8d4;strokeColor=#82b366;" parent="3yNbrJTuZeWlu97Rgaz0-1" vertex="1">
          <mxGeometry x="364" y="40" width="120" height="50" as="geometry" />
        </mxCell>
        <mxCell id="3yNbrJTuZeWlu97Rgaz0-11" value="" style="endArrow=none;html=1;rounded=0;strokeColor=#000000;strokeWidth=3;fontSize=14;fontColor=#FF0000;edgeStyle=elbowEdgeStyle;elbow=vertical;startArrow=none;exitX=0.5;exitY=0;exitDx=0;exitDy=0;entryX=0.5;entryY=1;entryDx=0;entryDy=0;" parent="3yNbrJTuZeWlu97Rgaz0-1" source="3yNbrJTuZeWlu97Rgaz0-13" target="3yNbrJTuZeWlu97Rgaz0-3" edge="1">
          <mxGeometry width="50" height="50" relative="1" as="geometry">
            <mxPoint x="350" y="414" as="sourcePoint" />
            <mxPoint x="349" y="80" as="targetPoint" />
            <Array as="points">
              <mxPoint x="419" y="100" />
              <mxPoint x="359" y="140" />
              <mxPoint x="339" y="240" />
              <mxPoint x="159" y="350" />
            </Array>
          </mxGeometry>
        </mxCell>
        <mxCell id="3yNbrJTuZeWlu97Rgaz0-12" value="Domain API" style="rounded=1;whiteSpace=wrap;html=1;fillColor=#d5e8d4;strokeColor=#82b366;strokeWidth=3;" parent="3yNbrJTuZeWlu97Rgaz0-1" vertex="1">
          <mxGeometry x="364" y="191" width="120" height="40" as="geometry" />
        </mxCell>
        <mxCell id="3yNbrJTuZeWlu97Rgaz0-13" value="Orchestration&lt;br&gt;Layer" style="rounded=1;whiteSpace=wrap;html=1;fillColor=#d5e8d4;strokeColor=#82b366;strokeWidth=3;" parent="3yNbrJTuZeWlu97Rgaz0-1" vertex="1">
          <mxGeometry x="364" y="110" width="120" height="40" as="geometry" />
        </mxCell>
        <mxCell id="3yNbrJTuZeWlu97Rgaz0-15" value="Domain&lt;br&gt;Data" style="shape=cylinder3;whiteSpace=wrap;html=1;boundedLbl=1;backgroundOutline=1;size=15;shadow=0;fontFamily=Helvetica;fontSize=12;align=center;strokeColor=#82b366;strokeWidth=3;fillColor=#d5e8d4;sketch=0;" parent="3yNbrJTuZeWlu97Rgaz0-1" vertex="1">
          <mxGeometry x="379" y="370" width="90" height="80" as="geometry" />
        </mxCell>
        <mxCell id="3yNbrJTuZeWlu97Rgaz0-17" value="" style="endArrow=none;html=1;rounded=0;strokeColor=#000000;strokeWidth=3;fontSize=14;fontColor=#FF0000;edgeStyle=elbowEdgeStyle;elbow=vertical;startArrow=none;exitX=0.592;exitY=0;exitDx=0;exitDy=0;entryX=0.5;entryY=1;entryDx=0;entryDy=0;exitPerimeter=0;" parent="3yNbrJTuZeWlu97Rgaz0-1" source="3yNbrJTuZeWlu97Rgaz0-10" target="3yNbrJTuZeWlu97Rgaz0-12" edge="1">
          <mxGeometry width="50" height="50" relative="1" as="geometry">
            <mxPoint x="499" y="325" as="sourcePoint" />
            <mxPoint x="464" y="241" as="targetPoint" />
            <Array as="points">
              <mxPoint x="369" y="261" />
              <mxPoint x="379" y="61" />
              <mxPoint x="359" y="161" />
              <mxPoint x="179" y="271" />
            </Array>
          </mxGeometry>
        </mxCell>
        <mxCell id="3yNbrJTuZeWlu97Rgaz0-18" value="" style="endArrow=none;html=1;rounded=0;strokeColor=#000000;strokeWidth=3;fontSize=14;fontColor=#FF0000;edgeStyle=elbowEdgeStyle;elbow=vertical;startArrow=none;entryX=0.5;entryY=1;entryDx=0;entryDy=0;exitX=0.5;exitY=0;exitDx=0;exitDy=0;" parent="3yNbrJTuZeWlu97Rgaz0-1" source="3yNbrJTuZeWlu97Rgaz0-12" target="3yNbrJTuZeWlu97Rgaz0-13" edge="1">
          <mxGeometry width="50" height="50" relative="1" as="geometry">
            <mxPoint x="189" y="424" as="sourcePoint" />
            <mxPoint x="145.96000000000004" y="342" as="targetPoint" />
            <Array as="points">
              <mxPoint x="439" y="190" />
              <mxPoint x="129" y="370" />
              <mxPoint x="69" y="160" />
              <mxPoint x="49" y="260" />
              <mxPoint x="-131" y="370" />
            </Array>
          </mxGeometry>
        </mxCell>
        <mxCell id="3yNbrJTuZeWlu97Rgaz0-19" value="&lt;span style=&quot;font-size: 18px;&quot;&gt;&lt;b&gt;Default Domain Structure&lt;/b&gt;&lt;/span&gt;" style="rounded=1;whiteSpace=wrap;html=1;arcSize=50;fillColor=#050505;fontColor=#FFFFFF;" parent="3yNbrJTuZeWlu97Rgaz0-1" vertex="1">
          <mxGeometry x="244" y="480" width="360" height="20" as="geometry" />
        </mxCell>
        <mxCell id="3yNbrJTuZeWlu97Rgaz0-20" value="HMPPS Domain&lt;br&gt;Events SNS" style="sketch=0;points=[[0,0,0],[0.25,0,0],[0.5,0,0],[0.75,0,0],[1,0,0],[0,1,0],[0.25,1,0],[0.5,1,0],[0.75,1,0],[1,1,0],[0,0.25,0],[0,0.5,0],[0,0.75,0],[1,0.25,0],[1,0.5,0],[1,0.75,0]];outlineConnect=0;fontColor=#232F3E;gradientColor=#FF4F8B;gradientDirection=north;fillColor=#BC1356;strokeColor=#ffffff;dashed=0;verticalLabelPosition=bottom;verticalAlign=top;align=center;html=1;fontSize=12;fontStyle=0;aspect=fixed;shape=mxgraph.aws4.resourceIcon;resIcon=mxgraph.aws4.sns;" parent="3yNbrJTuZeWlu97Rgaz0-1" vertex="1">
          <mxGeometry x="557.5" y="297.5" width="45" height="45" as="geometry" />
        </mxCell>
        <mxCell id="3yNbrJTuZeWlu97Rgaz0-24" value="Domain&#39;s SQS&lt;br&gt;listening to HMPPS&lt;br&gt;Domain Events SNS" style="sketch=0;points=[[0,0,0],[0.25,0,0],[0.5,0,0],[0.75,0,0],[1,0,0],[0,1,0],[0.25,1,0],[0.5,1,0],[0.75,1,0],[1,1,0],[0,0.25,0],[0,0.5,0],[0,0.75,0],[1,0.25,0],[1,0.5,0],[1,0.75,0]];outlineConnect=0;fontColor=#232F3E;gradientColor=#FF4F8B;gradientDirection=north;fillColor=#BC1356;strokeColor=#ffffff;dashed=0;verticalLabelPosition=bottom;verticalAlign=top;align=center;html=1;fontSize=12;fontStyle=0;aspect=fixed;shape=mxgraph.aws4.resourceIcon;resIcon=mxgraph.aws4.sqs;" parent="3yNbrJTuZeWlu97Rgaz0-1" vertex="1">
          <mxGeometry x="240" y="297.5" width="45" height="45" as="geometry" />
        </mxCell>
        <mxCell id="e-2qs5dMtwoo_rG2cWgX-0" value="" style="endArrow=classic;html=1;rounded=0;strokeWidth=3;exitX=0.997;exitY=0.672;exitDx=0;exitDy=0;exitPerimeter=0;" parent="3yNbrJTuZeWlu97Rgaz0-1" target="3yNbrJTuZeWlu97Rgaz0-20" edge="1">
          <mxGeometry width="50" height="50" relative="1" as="geometry">
            <mxPoint x="511.49" y="318.96000000000004" as="sourcePoint" />
            <mxPoint x="743" y="334" as="targetPoint" />
          </mxGeometry>
        </mxCell>
        <mxCell id="e-2qs5dMtwoo_rG2cWgX-1" value="" style="endArrow=classic;html=1;rounded=0;entryX=0;entryY=0.5;entryDx=0;entryDy=0;strokeWidth=3;" parent="3yNbrJTuZeWlu97Rgaz0-1" source="3yNbrJTuZeWlu97Rgaz0-24" edge="1">
          <mxGeometry width="50" height="50" relative="1" as="geometry">
            <mxPoint x="215" y="470" as="sourcePoint" />
            <mxPoint x="335" y="320" as="targetPoint" />
          </mxGeometry>
        </mxCell>
        <mxCell id="e-2qs5dMtwoo_rG2cWgX-5" value="" style="group" parent="3yNbrJTuZeWlu97Rgaz0-1" connectable="0" vertex="1">
          <mxGeometry x="353" y="280" width="140" height="60" as="geometry" />
        </mxCell>
        <mxCell id="e-2qs5dMtwoo_rG2cWgX-4" value="" style="rounded=1;whiteSpace=wrap;html=1;strokeWidth=3;fillColor=#d5e8d4;strokeColor=#82b366;" parent="e-2qs5dMtwoo_rG2cWgX-5" vertex="1">
          <mxGeometry x="20" y="20" width="120" height="40" as="geometry" />
        </mxCell>
        <mxCell id="e-2qs5dMtwoo_rG2cWgX-3" value="" style="rounded=1;whiteSpace=wrap;html=1;strokeWidth=3;fillColor=#d5e8d4;strokeColor=#82b366;" parent="e-2qs5dMtwoo_rG2cWgX-5" vertex="1">
          <mxGeometry x="10" y="10" width="120" height="40" as="geometry" />
        </mxCell>
        <mxCell id="3yNbrJTuZeWlu97Rgaz0-10" value="1 - n sub-domain Microservice APIs" style="rounded=1;whiteSpace=wrap;html=1;strokeWidth=3;fillColor=#d5e8d4;strokeColor=#82b366;" parent="e-2qs5dMtwoo_rG2cWgX-5" vertex="1">
          <mxGeometry width="120" height="40" as="geometry" />
        </mxCell>
        <mxCell id="e-2qs5dMtwoo_rG2cWgX-6" value="" style="endArrow=none;html=1;rounded=0;entryX=0.25;entryY=1;entryDx=0;entryDy=0;exitX=0.145;exitY=0;exitDx=0;exitDy=4.35;exitPerimeter=0;strokeWidth=3;" parent="3yNbrJTuZeWlu97Rgaz0-1" source="3yNbrJTuZeWlu97Rgaz0-15" target="3yNbrJTuZeWlu97Rgaz0-10" edge="1">
          <mxGeometry width="50" height="50" relative="1" as="geometry">
            <mxPoint x="149" y="460" as="sourcePoint" />
            <mxPoint x="199" y="410" as="targetPoint" />
          </mxGeometry>
        </mxCell>
        <mxCell id="e-2qs5dMtwoo_rG2cWgX-7" value="" style="endArrow=none;html=1;rounded=0;entryX=0.5;entryY=1;entryDx=0;entryDy=0;exitX=0.5;exitY=0;exitDx=0;exitDy=0;exitPerimeter=0;strokeWidth=3;" parent="3yNbrJTuZeWlu97Rgaz0-1" source="3yNbrJTuZeWlu97Rgaz0-15" target="e-2qs5dMtwoo_rG2cWgX-3" edge="1">
          <mxGeometry width="50" height="50" relative="1" as="geometry">
            <mxPoint x="402.04999999999995" y="384.3499999999999" as="sourcePoint" />
            <mxPoint x="404" y="330" as="targetPoint" />
          </mxGeometry>
        </mxCell>
        <mxCell id="e-2qs5dMtwoo_rG2cWgX-21" value="" style="rounded=1;whiteSpace=wrap;html=1;fillColor=#e1d5e7;strokeColor=#9673a6;strokeWidth=3;" parent="3yNbrJTuZeWlu97Rgaz0-1" vertex="1">
          <mxGeometry x="530" y="201" width="120" height="40" as="geometry" />
        </mxCell>
        <mxCell id="e-2qs5dMtwoo_rG2cWgX-8" value="" style="endArrow=none;html=1;rounded=0;strokeWidth=3;entryX=0.75;entryY=1;entryDx=0;entryDy=0;exitX=0.855;exitY=0;exitDx=0;exitDy=4.35;exitPerimeter=0;" parent="3yNbrJTuZeWlu97Rgaz0-1" source="3yNbrJTuZeWlu97Rgaz0-15" target="e-2qs5dMtwoo_rG2cWgX-4" edge="1">
          <mxGeometry width="50" height="50" relative="1" as="geometry">
            <mxPoint x="159" y="410" as="sourcePoint" />
            <mxPoint x="209" y="360" as="targetPoint" />
          </mxGeometry>
        </mxCell>
        <mxCell id="e-2qs5dMtwoo_rG2cWgX-10" value="Core Domain API" style="rounded=1;whiteSpace=wrap;html=1;fillColor=#e1d5e7;strokeColor=#9673a6;strokeWidth=3;" parent="3yNbrJTuZeWlu97Rgaz0-1" vertex="1">
          <mxGeometry x="520" y="191" width="120" height="40" as="geometry" />
        </mxCell>
        <mxCell id="e-2qs5dMtwoo_rG2cWgX-12" value="" style="endArrow=classic;html=1;rounded=0;strokeWidth=3;entryX=0.75;entryY=1;entryDx=0;entryDy=0;exitX=0.5;exitY=0;exitDx=0;exitDy=0;edgeStyle=elbowEdgeStyle;elbow=vertical;" parent="3yNbrJTuZeWlu97Rgaz0-1" source="e-2qs5dMtwoo_rG2cWgX-10" target="3yNbrJTuZeWlu97Rgaz0-13" edge="1">
          <mxGeometry width="50" height="50" relative="1" as="geometry">
            <mxPoint x="239" y="201" as="sourcePoint" />
            <mxPoint x="434" y="160" as="targetPoint" />
          </mxGeometry>
        </mxCell>
        <mxCell id="e-2qs5dMtwoo_rG2cWgX-16" value="HMPPS Audit" style="shape=hexagon;perimeter=hexagonPerimeter2;whiteSpace=wrap;html=1;fixedSize=1;fillColor=#f8cecc;strokeColor=#b85450;" parent="3yNbrJTuZeWlu97Rgaz0-1" vertex="1">
          <mxGeometry x="70" y="35" width="70" height="55" as="geometry" />
        </mxCell>
        <mxCell id="e-2qs5dMtwoo_rG2cWgX-17" value="HMPPS Auth" style="shape=hexagon;perimeter=hexagonPerimeter2;whiteSpace=wrap;html=1;fixedSize=1;fillColor=#f8cecc;strokeColor=#b85450;" parent="3yNbrJTuZeWlu97Rgaz0-1" vertex="1">
          <mxGeometry x="70" y="183.5" width="70" height="55" as="geometry" />
        </mxCell>
        <mxCell id="e-2qs5dMtwoo_rG2cWgX-18" value="App Insights" style="shape=hexagon;perimeter=hexagonPerimeter2;whiteSpace=wrap;html=1;fixedSize=1;fillColor=#f8cecc;strokeColor=#b85450;size=20;" parent="3yNbrJTuZeWlu97Rgaz0-1" vertex="1">
          <mxGeometry x="710" y="80" width="70" height="55" as="geometry" />
        </mxCell>
        <mxCell id="e-2qs5dMtwoo_rG2cWgX-20" value="Business level user interactions are recorded using HMPPS Audit" style="text;html=1;strokeColor=none;fillColor=none;align=center;verticalAlign=middle;whiteSpace=wrap;rounded=0;" parent="3yNbrJTuZeWlu97Rgaz0-1" vertex="1">
          <mxGeometry x="150" y="50" width="180" height="30" as="geometry" />
        </mxCell>
        <mxCell id="e-2qs5dMtwoo_rG2cWgX-23" value="Access to components is controlled using HMPPS Auth" style="text;html=1;strokeColor=none;fillColor=none;align=center;verticalAlign=middle;whiteSpace=wrap;rounded=0;" parent="3yNbrJTuZeWlu97Rgaz0-1" vertex="1">
          <mxGeometry x="150" y="196" width="180" height="30" as="geometry" />
        </mxCell>
        <mxCell id="e-2qs5dMtwoo_rG2cWgX-24" value="System log entries&amp;nbsp; are sent from all components to App Insights" style="text;html=1;strokeColor=none;fillColor=none;align=center;verticalAlign=middle;whiteSpace=wrap;rounded=0;rotation=0;" parent="3yNbrJTuZeWlu97Rgaz0-1" vertex="1">
          <mxGeometry x="517" y="92.5" width="190" height="30" as="geometry" />
        </mxCell>
      </root>
    </mxGraphModel>
  </diagram>
  <diagram name="Outlier Domain, low transformation" id="tXefKn0e7L2SIOEqbNKa">
    <mxGraphModel grid="1" page="1" gridSize="10" guides="1" tooltips="1" connect="1" arrows="1" fold="1" pageScale="1" pageWidth="827" pageHeight="1169" math="0" shadow="0">
      <root>
        <mxCell id="M0B5UsXD2Q-DAAGamrOb-0" />
        <mxCell id="M0B5UsXD2Q-DAAGamrOb-1" parent="M0B5UsXD2Q-DAAGamrOb-0" />
        <mxCell id="M0B5UsXD2Q-DAAGamrOb-2" value="Domain A" style="rounded=1;whiteSpace=wrap;html=1;fontFamily=Helvetica;fontSize=19;fontColor=default;align=right;strokeColor=none;fillColor=#EAFFEA;arcSize=7;strokeWidth=3;dashed=1;spacingBottom=50;" parent="M0B5UsXD2Q-DAAGamrOb-1" vertex="1">
          <mxGeometry x="290" y="100" width="290" height="540" as="geometry" />
        </mxCell>
        <mxCell id="M0B5UsXD2Q-DAAGamrOb-3" value="Front End Service&lt;br&gt;includes operational reports/lists" style="rounded=1;whiteSpace=wrap;html=1;strokeWidth=3;fillColor=#d5e8d4;strokeColor=#82b366;" parent="M0B5UsXD2Q-DAAGamrOb-1" vertex="1">
          <mxGeometry x="375" y="110" width="120" height="50" as="geometry" />
        </mxCell>
        <mxCell id="M0B5UsXD2Q-DAAGamrOb-4" value="No other domains are dependent on this domains data - the domain team is not constrained by having to reduce the impact of this dependency.&lt;br&gt;&lt;br&gt;The priority driver for this domain is to get off NOMIS - business transformation should be kept to a minimum." style="text;html=1;strokeColor=none;fillColor=none;align=left;verticalAlign=middle;whiteSpace=wrap;rounded=0;strokeWidth=3;fontSize=18;" parent="M0B5UsXD2Q-DAAGamrOb-1" vertex="1">
          <mxGeometry x="250" y="653" width="560" height="130" as="geometry" />
        </mxCell>
        <mxCell id="M0B5UsXD2Q-DAAGamrOb-5" value="Re-developed downstream services" style="swimlane;fontStyle=0;childLayout=stackLayout;horizontal=1;startSize=30;horizontalStack=0;resizeParent=1;resizeParentMax=0;resizeLast=0;collapsible=1;marginBottom=0;whiteSpace=wrap;html=1;strokeWidth=3;" parent="M0B5UsXD2Q-DAAGamrOb-1" vertex="1">
          <mxGeometry x="9" y="653" width="191" height="210" as="geometry" />
        </mxCell>
        <mxCell id="M0B5UsXD2Q-DAAGamrOb-6" value="Cross Domain Reports&lt;br&gt;&lt;ul&gt;&lt;li&gt;Offloc&lt;/li&gt;&lt;li&gt;Contingency Report&lt;/li&gt;&lt;li&gt;Unlock Report&lt;/li&gt;&lt;/ul&gt;" style="text;strokeColor=none;fillColor=none;align=left;verticalAlign=middle;spacingLeft=4;spacingRight=4;overflow=hidden;points=[[0,0.5],[1,0.5]];portConstraint=eastwest;rotatable=0;whiteSpace=wrap;html=1;strokeWidth=3;" parent="M0B5UsXD2Q-DAAGamrOb-5" vertex="1">
          <mxGeometry y="30" width="191" height="90" as="geometry" />
        </mxCell>
        <mxCell id="M0B5UsXD2Q-DAAGamrOb-7" value="MIS Reports" style="text;strokeColor=none;fillColor=none;align=left;verticalAlign=middle;spacingLeft=4;spacingRight=4;overflow=hidden;points=[[0,0.5],[1,0.5]];portConstraint=eastwest;rotatable=0;whiteSpace=wrap;html=1;strokeWidth=3;" parent="M0B5UsXD2Q-DAAGamrOb-5" vertex="1">
          <mxGeometry y="120" width="191" height="30" as="geometry" />
        </mxCell>
        <mxCell id="M0B5UsXD2Q-DAAGamrOb-8" value="FOI Reports" style="text;strokeColor=none;fillColor=none;align=left;verticalAlign=middle;spacingLeft=4;spacingRight=4;overflow=hidden;points=[[0,0.5],[1,0.5]];portConstraint=eastwest;rotatable=0;whiteSpace=wrap;html=1;strokeWidth=3;" parent="M0B5UsXD2Q-DAAGamrOb-5" vertex="1">
          <mxGeometry y="150" width="191" height="30" as="geometry" />
        </mxCell>
        <mxCell id="M0B5UsXD2Q-DAAGamrOb-9" value="etc" style="text;strokeColor=none;fillColor=none;align=left;verticalAlign=middle;spacingLeft=4;spacingRight=4;overflow=hidden;points=[[0,0.5],[1,0.5]];portConstraint=eastwest;rotatable=0;whiteSpace=wrap;html=1;strokeWidth=3;" parent="M0B5UsXD2Q-DAAGamrOb-5" vertex="1">
          <mxGeometry y="180" width="191" height="30" as="geometry" />
        </mxCell>
        <mxCell id="M0B5UsXD2Q-DAAGamrOb-10" value="Sub-domain Microservice API" style="rounded=1;whiteSpace=wrap;html=1;strokeWidth=3;fillColor=#d5e8d4;strokeColor=#82b366;" parent="M0B5UsXD2Q-DAAGamrOb-1" vertex="1">
          <mxGeometry x="301" y="484" width="120" height="40" as="geometry" />
        </mxCell>
        <mxCell id="M0B5UsXD2Q-DAAGamrOb-11" value="" style="endArrow=none;html=1;rounded=0;strokeColor=#000000;strokeWidth=3;fontSize=14;fontColor=#FF0000;edgeStyle=elbowEdgeStyle;elbow=vertical;startArrow=none;exitX=0.5;exitY=0;exitDx=0;exitDy=0;entryX=0.5;entryY=1;entryDx=0;entryDy=0;" parent="M0B5UsXD2Q-DAAGamrOb-1" source="M0B5UsXD2Q-DAAGamrOb-13" target="M0B5UsXD2Q-DAAGamrOb-3" edge="1">
          <mxGeometry width="50" height="50" relative="1" as="geometry">
            <mxPoint x="361" y="484" as="sourcePoint" />
            <mxPoint x="360" y="150" as="targetPoint" />
            <Array as="points">
              <mxPoint x="430" y="170" />
              <mxPoint x="370" y="210" />
              <mxPoint x="350" y="310" />
              <mxPoint x="170" y="420" />
            </Array>
          </mxGeometry>
        </mxCell>
        <mxCell id="M0B5UsXD2Q-DAAGamrOb-12" value="Domain A API" style="rounded=1;whiteSpace=wrap;html=1;fillColor=#d5e8d4;strokeColor=#82b366;strokeWidth=3;" parent="M0B5UsXD2Q-DAAGamrOb-1" vertex="1">
          <mxGeometry x="375" y="360" width="120" height="40" as="geometry" />
        </mxCell>
        <mxCell id="M0B5UsXD2Q-DAAGamrOb-13" value="Orchestration&lt;br&gt;Layer" style="rounded=1;whiteSpace=wrap;html=1;fillColor=#d5e8d4;strokeColor=#82b366;strokeWidth=3;" parent="M0B5UsXD2Q-DAAGamrOb-1" vertex="1">
          <mxGeometry x="375" y="190" width="120" height="40" as="geometry" />
        </mxCell>
        <mxCell id="M0B5UsXD2Q-DAAGamrOb-14" value="Sub-domain Microservice API" style="rounded=1;whiteSpace=wrap;html=1;strokeWidth=3;fillColor=#d5e8d4;strokeColor=#82b366;" parent="M0B5UsXD2Q-DAAGamrOb-1" vertex="1">
          <mxGeometry x="440" y="484" width="120" height="40" as="geometry" />
        </mxCell>
        <mxCell id="M0B5UsXD2Q-DAAGamrOb-15" value="Domain B&lt;br&gt;Data" style="shape=cylinder3;whiteSpace=wrap;html=1;boundedLbl=1;backgroundOutline=1;size=15;shadow=0;fontFamily=Helvetica;fontSize=12;align=center;strokeColor=#82b366;strokeWidth=3;fillColor=#d5e8d4;sketch=0;" parent="M0B5UsXD2Q-DAAGamrOb-1" vertex="1">
          <mxGeometry x="390" y="539" width="90" height="80" as="geometry" />
        </mxCell>
        <mxCell id="M0B5UsXD2Q-DAAGamrOb-16" value="" style="endArrow=none;html=1;rounded=0;strokeColor=#000000;strokeWidth=3;fontSize=14;fontColor=#FF0000;edgeStyle=elbowEdgeStyle;elbow=vertical;startArrow=none;entryX=0.75;entryY=1;entryDx=0;entryDy=0;exitX=0.5;exitY=0;exitDx=0;exitDy=0;" parent="M0B5UsXD2Q-DAAGamrOb-1" source="M0B5UsXD2Q-DAAGamrOb-14" target="M0B5UsXD2Q-DAAGamrOb-12" edge="1">
          <mxGeometry width="50" height="50" relative="1" as="geometry">
            <mxPoint x="370" y="494" as="sourcePoint" />
            <mxPoint x="370" y="160" as="targetPoint" />
            <Array as="points">
              <mxPoint x="440" y="430" />
              <mxPoint x="380" y="220" />
              <mxPoint x="360" y="320" />
              <mxPoint x="180" y="430" />
            </Array>
          </mxGeometry>
        </mxCell>
        <mxCell id="M0B5UsXD2Q-DAAGamrOb-17" value="" style="endArrow=none;html=1;rounded=0;strokeColor=#000000;strokeWidth=3;fontSize=14;fontColor=#FF0000;edgeStyle=elbowEdgeStyle;elbow=vertical;startArrow=none;entryX=0.25;entryY=1;entryDx=0;entryDy=0;exitX=0.5;exitY=0;exitDx=0;exitDy=0;" parent="M0B5UsXD2Q-DAAGamrOb-1" source="M0B5UsXD2Q-DAAGamrOb-10" target="M0B5UsXD2Q-DAAGamrOb-12" edge="1">
          <mxGeometry width="50" height="50" relative="1" as="geometry">
            <mxPoint x="510" y="494" as="sourcePoint" />
            <mxPoint x="475" y="410" as="targetPoint" />
            <Array as="points">
              <mxPoint x="380" y="430" />
              <mxPoint x="390" y="230" />
              <mxPoint x="370" y="330" />
              <mxPoint x="190" y="440" />
            </Array>
          </mxGeometry>
        </mxCell>
        <mxCell id="M0B5UsXD2Q-DAAGamrOb-18" value="" style="endArrow=none;html=1;rounded=0;strokeColor=#000000;strokeWidth=3;fontSize=14;fontColor=#FF0000;edgeStyle=elbowEdgeStyle;elbow=vertical;startArrow=none;entryX=0.5;entryY=1;entryDx=0;entryDy=0;exitX=0.5;exitY=0;exitDx=0;exitDy=0;" parent="M0B5UsXD2Q-DAAGamrOb-1" source="M0B5UsXD2Q-DAAGamrOb-12" target="M0B5UsXD2Q-DAAGamrOb-13" edge="1">
          <mxGeometry width="50" height="50" relative="1" as="geometry">
            <mxPoint x="200" y="494" as="sourcePoint" />
            <mxPoint x="156.96000000000004" y="412" as="targetPoint" />
            <Array as="points">
              <mxPoint x="440" y="290" />
              <mxPoint x="140" y="440" />
              <mxPoint x="80" y="230" />
              <mxPoint x="60" y="330" />
              <mxPoint x="-120" y="440" />
            </Array>
          </mxGeometry>
        </mxCell>
        <mxCell id="M0B5UsXD2Q-DAAGamrOb-19" value="&lt;span style=&quot;font-size: 18px;&quot;&gt;&lt;b&gt;Outlier domain (few or no dependencies), minimal business transformation proposed&lt;/b&gt;&lt;/span&gt;" style="rounded=1;whiteSpace=wrap;html=1;arcSize=50;fillColor=#050505;fontColor=#FFFFFF;" parent="M0B5UsXD2Q-DAAGamrOb-1" vertex="1">
          <mxGeometry x="35" y="40" width="735" height="20" as="geometry" />
        </mxCell>
        <mxCell id="M0B5UsXD2Q-DAAGamrOb-20" value="HMPPS Domain&lt;br&gt;Events SNS" style="sketch=0;points=[[0,0,0],[0.25,0,0],[0.5,0,0],[0.75,0,0],[1,0,0],[0,1,0],[0.25,1,0],[0.5,1,0],[0.75,1,0],[1,1,0],[0,0.25,0],[0,0.5,0],[0,0.75,0],[1,0.25,0],[1,0.5,0],[1,0.75,0]];outlineConnect=0;fontColor=#232F3E;gradientColor=#FF4F8B;gradientDirection=north;fillColor=#BC1356;strokeColor=#ffffff;dashed=0;verticalLabelPosition=bottom;verticalAlign=top;align=center;html=1;fontSize=12;fontStyle=0;aspect=fixed;shape=mxgraph.aws4.resourceIcon;resIcon=mxgraph.aws4.sns;" parent="M0B5UsXD2Q-DAAGamrOb-1" vertex="1">
          <mxGeometry x="720" y="170" width="30" height="30" as="geometry" />
        </mxCell>
        <mxCell id="M0B5UsXD2Q-DAAGamrOb-21" value="" style="endArrow=classic;html=1;rounded=0;edgeStyle=orthogonalEdgeStyle;curved=1;exitX=1;exitY=0;exitDx=0;exitDy=0;" parent="M0B5UsXD2Q-DAAGamrOb-1" source="M0B5UsXD2Q-DAAGamrOb-2" target="M0B5UsXD2Q-DAAGamrOb-20" edge="1">
          <mxGeometry width="50" height="50" relative="1" as="geometry">
            <mxPoint x="110" y="505" as="sourcePoint" />
            <mxPoint x="220" y="530" as="targetPoint" />
            <Array as="points">
              <mxPoint x="580" y="80" />
              <mxPoint x="735" y="80" />
            </Array>
          </mxGeometry>
        </mxCell>
        <mxCell id="M0B5UsXD2Q-DAAGamrOb-22" value="" style="endArrow=classic;html=1;rounded=0;edgeStyle=orthogonalEdgeStyle;curved=1;entryX=0;entryY=0.25;entryDx=0;entryDy=0;exitX=1;exitY=0.5;exitDx=0;exitDy=0;exitPerimeter=0;" parent="M0B5UsXD2Q-DAAGamrOb-1" source="M0B5UsXD2Q-DAAGamrOb-24" target="M0B5UsXD2Q-DAAGamrOb-2" edge="1">
          <mxGeometry width="50" height="50" relative="1" as="geometry">
            <mxPoint x="230" y="380" as="sourcePoint" />
            <mxPoint x="200" y="385" as="targetPoint" />
            <Array as="points">
              <mxPoint x="220" y="185" />
              <mxPoint x="220" y="235" />
            </Array>
          </mxGeometry>
        </mxCell>
        <mxCell id="M0B5UsXD2Q-DAAGamrOb-23" value="this domain needs to&lt;br&gt;react to this happening" style="edgeLabel;html=1;align=center;verticalAlign=middle;resizable=0;points=[];" parent="M0B5UsXD2Q-DAAGamrOb-22" vertex="1" connectable="0">
          <mxGeometry x="-0.1238" y="-1" relative="1" as="geometry">
            <mxPoint x="11" y="-29" as="offset" />
          </mxGeometry>
        </mxCell>
        <mxCell id="M0B5UsXD2Q-DAAGamrOb-24" value="HMPPS Domain&lt;br&gt;Events SQS" style="sketch=0;points=[[0,0,0],[0.25,0,0],[0.5,0,0],[0.75,0,0],[1,0,0],[0,1,0],[0.25,1,0],[0.5,1,0],[0.75,1,0],[1,1,0],[0,0.25,0],[0,0.5,0],[0,0.75,0],[1,0.25,0],[1,0.5,0],[1,0.75,0]];outlineConnect=0;fontColor=#232F3E;gradientColor=#FF4F8B;gradientDirection=north;fillColor=#BC1356;strokeColor=#ffffff;dashed=0;verticalLabelPosition=bottom;verticalAlign=top;align=center;html=1;fontSize=12;fontStyle=0;aspect=fixed;shape=mxgraph.aws4.resourceIcon;resIcon=mxgraph.aws4.sqs;" parent="M0B5UsXD2Q-DAAGamrOb-1" vertex="1">
          <mxGeometry x="140" y="170" width="30" height="30" as="geometry" />
        </mxCell>
        <mxCell id="M0B5UsXD2Q-DAAGamrOb-25" value="Domain B" style="rounded=1;whiteSpace=wrap;html=1;fontFamily=Helvetica;fontSize=19;fontColor=default;align=center;strokeColor=none;fillColor=#EAFFEA;arcSize=7;strokeWidth=3;dashed=1;spacingBottom=0;" parent="M0B5UsXD2Q-DAAGamrOb-1" vertex="1">
          <mxGeometry x="685" y="250" width="100" height="50" as="geometry" />
        </mxCell>
        <mxCell id="M0B5UsXD2Q-DAAGamrOb-26" value="Domain B is dependent on domain A&#39;s data and events" style="text;html=1;strokeColor=none;fillColor=none;align=center;verticalAlign=middle;whiteSpace=wrap;rounded=0;" parent="M0B5UsXD2Q-DAAGamrOb-1" vertex="1">
          <mxGeometry x="652.5" y="310" width="165" height="30" as="geometry" />
        </mxCell>
        <mxCell id="M0B5UsXD2Q-DAAGamrOb-27" value="&lt;b&gt;&lt;font style=&quot;font-size: 16px;&quot;&gt;1&lt;/font&gt;&lt;/b&gt;" style="ellipse;whiteSpace=wrap;html=1;aspect=fixed;strokeWidth=3;strokeColor=#FF0000;" parent="M0B5UsXD2Q-DAAGamrOb-1" vertex="1">
          <mxGeometry x="360" y="100" width="20" height="20" as="geometry" />
        </mxCell>
        <mxCell id="M0B5UsXD2Q-DAAGamrOb-28" value="&lt;b&gt;&lt;font style=&quot;font-size: 16px;&quot;&gt;2&lt;/font&gt;&lt;/b&gt;" style="ellipse;whiteSpace=wrap;html=1;aspect=fixed;strokeWidth=3;strokeColor=#FF0000;" parent="M0B5UsXD2Q-DAAGamrOb-1" vertex="1">
          <mxGeometry x="700" y="150" width="20" height="20" as="geometry" />
        </mxCell>
        <mxCell id="M0B5UsXD2Q-DAAGamrOb-29" value="&lt;b&gt;&lt;font style=&quot;font-size: 16px;&quot;&gt;1&lt;/font&gt;&lt;/b&gt;" style="ellipse;whiteSpace=wrap;html=1;aspect=fixed;strokeWidth=3;strokeColor=#FF0000;" parent="M0B5UsXD2Q-DAAGamrOb-1" vertex="1">
          <mxGeometry x="230" y="833" width="20" height="20" as="geometry" />
        </mxCell>
        <mxCell id="M0B5UsXD2Q-DAAGamrOb-30" value="&lt;b&gt;&lt;font style=&quot;font-size: 16px;&quot;&gt;2&lt;/font&gt;&lt;/b&gt;" style="ellipse;whiteSpace=wrap;html=1;aspect=fixed;strokeWidth=3;strokeColor=#FF0000;" parent="M0B5UsXD2Q-DAAGamrOb-1" vertex="1">
          <mxGeometry x="360" y="350" width="20" height="20" as="geometry" />
        </mxCell>
        <mxCell id="M0B5UsXD2Q-DAAGamrOb-31" value="&lt;b&gt;&lt;font style=&quot;font-size: 16px;&quot;&gt;2&lt;/font&gt;&lt;/b&gt;" style="ellipse;whiteSpace=wrap;html=1;aspect=fixed;strokeWidth=3;strokeColor=#FF0000;" parent="M0B5UsXD2Q-DAAGamrOb-1" vertex="1">
          <mxGeometry x="230" y="930" width="20" height="20" as="geometry" />
        </mxCell>
        <mxCell id="M0B5UsXD2Q-DAAGamrOb-32" value="The next priority is the data storage microservices &amp;amp; events. The team may choose to address this at the same time as (1). It is recommended that this is attacked on a sub-domain by sub-domain basis.&lt;br&gt;&lt;br&gt;The domain team may choose to address (1) and (2) at the same time" style="text;html=1;strokeColor=none;fillColor=none;align=left;verticalAlign=middle;whiteSpace=wrap;rounded=0;strokeWidth=3;fontSize=18;" parent="M0B5UsXD2Q-DAAGamrOb-1" vertex="1">
          <mxGeometry x="255" y="920" width="520" height="150" as="geometry" />
        </mxCell>
        <mxCell id="M0B5UsXD2Q-DAAGamrOb-33" value="&lt;b&gt;&lt;font style=&quot;font-size: 16px;&quot;&gt;2&lt;/font&gt;&lt;/b&gt;" style="ellipse;whiteSpace=wrap;html=1;aspect=fixed;strokeWidth=3;strokeColor=#FF0000;" parent="M0B5UsXD2Q-DAAGamrOb-1" vertex="1">
          <mxGeometry x="290" y="470" width="20" height="20" as="geometry" />
        </mxCell>
        <mxCell id="M0B5UsXD2Q-DAAGamrOb-35" value="&lt;b&gt;&lt;font style=&quot;font-size: 16px;&quot;&gt;3&lt;/font&gt;&lt;/b&gt;" style="ellipse;whiteSpace=wrap;html=1;aspect=fixed;strokeWidth=3;strokeColor=#FF0000;fontSize=16;" parent="M0B5UsXD2Q-DAAGamrOb-1" vertex="1">
          <mxGeometry x="430" y="470" width="20" height="20" as="geometry" />
        </mxCell>
        <mxCell id="M0B5UsXD2Q-DAAGamrOb-37" value="&lt;b&gt;&lt;font style=&quot;font-size: 16px;&quot;&gt;3&lt;/font&gt;&lt;/b&gt;" style="ellipse;whiteSpace=wrap;html=1;aspect=fixed;strokeWidth=3;strokeColor=#FF0000;" parent="M0B5UsXD2Q-DAAGamrOb-1" vertex="1">
          <mxGeometry x="230" y="1100" width="20" height="20" as="geometry" />
        </mxCell>
        <mxCell id="M0B5UsXD2Q-DAAGamrOb-38" value="Once one sub-domain of data is strangled from NOMIS, other sub-domains can follow." style="text;html=1;strokeColor=none;fillColor=none;align=left;verticalAlign=middle;whiteSpace=wrap;rounded=0;strokeWidth=3;fontSize=18;" parent="M0B5UsXD2Q-DAAGamrOb-1" vertex="1">
          <mxGeometry x="255" y="1090" width="540" height="65" as="geometry" />
        </mxCell>
        <mxCell id="FXpi-6vwd6-cIZMYTIbm-0" value="The component which provides greatest business value earliest is the DPS UI - this is the top priority item. The details of where the UI gets it&#39;s data from is abstracted away by the Orchestration layer" style="text;html=1;strokeColor=none;fillColor=none;align=left;verticalAlign=middle;whiteSpace=wrap;rounded=0;strokeWidth=3;fontSize=18;" vertex="1" parent="M0B5UsXD2Q-DAAGamrOb-1">
          <mxGeometry x="250" y="833" width="550" height="57" as="geometry" />
        </mxCell>
        <mxCell id="FXpi-6vwd6-cIZMYTIbm-1" value="&lt;b&gt;&lt;font style=&quot;font-size: 16px;&quot;&gt;1&lt;/font&gt;&lt;/b&gt;" style="ellipse;whiteSpace=wrap;html=1;aspect=fixed;strokeWidth=3;strokeColor=#FF0000;" vertex="1" parent="M0B5UsXD2Q-DAAGamrOb-1">
          <mxGeometry x="360" y="180" width="20" height="20" as="geometry" />
        </mxCell>
      </root>
    </mxGraphModel>
  </diagram>
  <diagram name="Outlier Domain, high transformation" id="ySpDC6Z0w71vIzOe0D4P">
    <mxGraphModel grid="1" page="1" gridSize="10" guides="1" tooltips="1" connect="1" arrows="1" fold="1" pageScale="1" pageWidth="827" pageHeight="1169" math="0" shadow="0">
      <root>
        <mxCell id="Lg5-S7IEezFE1TF8m1ox-0" />
        <mxCell id="Lg5-S7IEezFE1TF8m1ox-1" parent="Lg5-S7IEezFE1TF8m1ox-0" />
        <mxCell id="Lg5-S7IEezFE1TF8m1ox-2" value="Domain A" style="rounded=1;whiteSpace=wrap;html=1;fontFamily=Helvetica;fontSize=19;fontColor=default;align=right;strokeColor=none;fillColor=#EAFFEA;arcSize=7;strokeWidth=3;dashed=1;spacingBottom=50;" parent="Lg5-S7IEezFE1TF8m1ox-1" vertex="1">
          <mxGeometry x="290" y="100" width="290" height="540" as="geometry" />
        </mxCell>
        <mxCell id="Lg5-S7IEezFE1TF8m1ox-3" value="Front End Service&lt;br&gt;includes operational reports/lists" style="rounded=1;whiteSpace=wrap;html=1;strokeWidth=3;fillColor=#d5e8d4;strokeColor=#82b366;" parent="Lg5-S7IEezFE1TF8m1ox-1" vertex="1">
          <mxGeometry x="375" y="110" width="120" height="50" as="geometry" />
        </mxCell>
        <mxCell id="Lg5-S7IEezFE1TF8m1ox-4" value="No other domains are dependent on this domains data - the domain team is not constrained by having to reduce the impact of this dependency.&lt;br&gt;&lt;br&gt;The priority driver for this domain is business transformation - the drive to get off NOMIS exists but is of lower priority in the short term." style="text;html=1;strokeColor=none;fillColor=none;align=left;verticalAlign=middle;whiteSpace=wrap;rounded=0;strokeWidth=3;fontSize=18;" parent="Lg5-S7IEezFE1TF8m1ox-1" vertex="1">
          <mxGeometry x="250" y="670" width="560" height="130" as="geometry" />
        </mxCell>
        <mxCell id="Lg5-S7IEezFE1TF8m1ox-5" value="Re-developed downstream services" style="swimlane;fontStyle=0;childLayout=stackLayout;horizontal=1;startSize=30;horizontalStack=0;resizeParent=1;resizeParentMax=0;resizeLast=0;collapsible=1;marginBottom=0;whiteSpace=wrap;html=1;strokeWidth=3;" parent="Lg5-S7IEezFE1TF8m1ox-1" vertex="1">
          <mxGeometry x="9" y="653" width="191" height="210" as="geometry" />
        </mxCell>
        <mxCell id="Lg5-S7IEezFE1TF8m1ox-6" value="Cross Domain Reports&lt;br&gt;&lt;ul&gt;&lt;li&gt;Offloc&lt;/li&gt;&lt;li&gt;Contingency Report&lt;/li&gt;&lt;li&gt;Unlock Report&lt;/li&gt;&lt;/ul&gt;" style="text;strokeColor=none;fillColor=none;align=left;verticalAlign=middle;spacingLeft=4;spacingRight=4;overflow=hidden;points=[[0,0.5],[1,0.5]];portConstraint=eastwest;rotatable=0;whiteSpace=wrap;html=1;strokeWidth=3;" parent="Lg5-S7IEezFE1TF8m1ox-5" vertex="1">
          <mxGeometry y="30" width="191" height="90" as="geometry" />
        </mxCell>
        <mxCell id="Lg5-S7IEezFE1TF8m1ox-7" value="MIS Reports" style="text;strokeColor=none;fillColor=none;align=left;verticalAlign=middle;spacingLeft=4;spacingRight=4;overflow=hidden;points=[[0,0.5],[1,0.5]];portConstraint=eastwest;rotatable=0;whiteSpace=wrap;html=1;strokeWidth=3;" parent="Lg5-S7IEezFE1TF8m1ox-5" vertex="1">
          <mxGeometry y="120" width="191" height="30" as="geometry" />
        </mxCell>
        <mxCell id="Lg5-S7IEezFE1TF8m1ox-8" value="FOI Reports" style="text;strokeColor=none;fillColor=none;align=left;verticalAlign=middle;spacingLeft=4;spacingRight=4;overflow=hidden;points=[[0,0.5],[1,0.5]];portConstraint=eastwest;rotatable=0;whiteSpace=wrap;html=1;strokeWidth=3;" parent="Lg5-S7IEezFE1TF8m1ox-5" vertex="1">
          <mxGeometry y="150" width="191" height="30" as="geometry" />
        </mxCell>
        <mxCell id="Lg5-S7IEezFE1TF8m1ox-9" value="etc" style="text;strokeColor=none;fillColor=none;align=left;verticalAlign=middle;spacingLeft=4;spacingRight=4;overflow=hidden;points=[[0,0.5],[1,0.5]];portConstraint=eastwest;rotatable=0;whiteSpace=wrap;html=1;strokeWidth=3;" parent="Lg5-S7IEezFE1TF8m1ox-5" vertex="1">
          <mxGeometry y="180" width="191" height="30" as="geometry" />
        </mxCell>
        <mxCell id="Lg5-S7IEezFE1TF8m1ox-10" value="Sub-domain Microservice API" style="rounded=1;whiteSpace=wrap;html=1;strokeWidth=3;fillColor=#d5e8d4;strokeColor=#82b366;" parent="Lg5-S7IEezFE1TF8m1ox-1" vertex="1">
          <mxGeometry x="301" y="484" width="120" height="40" as="geometry" />
        </mxCell>
        <mxCell id="Lg5-S7IEezFE1TF8m1ox-11" value="" style="endArrow=none;html=1;rounded=0;strokeColor=#000000;strokeWidth=3;fontSize=14;fontColor=#FF0000;edgeStyle=elbowEdgeStyle;elbow=vertical;startArrow=none;exitX=0.5;exitY=0;exitDx=0;exitDy=0;entryX=0.5;entryY=1;entryDx=0;entryDy=0;" parent="Lg5-S7IEezFE1TF8m1ox-1" source="Lg5-S7IEezFE1TF8m1ox-13" target="Lg5-S7IEezFE1TF8m1ox-3" edge="1">
          <mxGeometry width="50" height="50" relative="1" as="geometry">
            <mxPoint x="361" y="484" as="sourcePoint" />
            <mxPoint x="360" y="150" as="targetPoint" />
            <Array as="points">
              <mxPoint x="430" y="170" />
              <mxPoint x="370" y="210" />
              <mxPoint x="350" y="310" />
              <mxPoint x="170" y="420" />
            </Array>
          </mxGeometry>
        </mxCell>
        <mxCell id="Lg5-S7IEezFE1TF8m1ox-12" value="Domain A API" style="rounded=1;whiteSpace=wrap;html=1;fillColor=#d5e8d4;strokeColor=#82b366;strokeWidth=3;" parent="Lg5-S7IEezFE1TF8m1ox-1" vertex="1">
          <mxGeometry x="375" y="360" width="120" height="40" as="geometry" />
        </mxCell>
        <mxCell id="Lg5-S7IEezFE1TF8m1ox-13" value="Orchestration&lt;br&gt;Layer" style="rounded=1;whiteSpace=wrap;html=1;fillColor=#d5e8d4;strokeColor=#82b366;strokeWidth=3;" parent="Lg5-S7IEezFE1TF8m1ox-1" vertex="1">
          <mxGeometry x="375" y="190" width="120" height="40" as="geometry" />
        </mxCell>
        <mxCell id="Lg5-S7IEezFE1TF8m1ox-14" value="Sub-domain Microservice API" style="rounded=1;whiteSpace=wrap;html=1;strokeWidth=3;fillColor=#d5e8d4;strokeColor=#82b366;" parent="Lg5-S7IEezFE1TF8m1ox-1" vertex="1">
          <mxGeometry x="440" y="484" width="120" height="40" as="geometry" />
        </mxCell>
        <mxCell id="Lg5-S7IEezFE1TF8m1ox-15" value="Domain B&lt;br&gt;Data" style="shape=cylinder3;whiteSpace=wrap;html=1;boundedLbl=1;backgroundOutline=1;size=15;shadow=0;fontFamily=Helvetica;fontSize=12;align=center;strokeColor=#82b366;strokeWidth=3;fillColor=#d5e8d4;sketch=0;" parent="Lg5-S7IEezFE1TF8m1ox-1" vertex="1">
          <mxGeometry x="390" y="539" width="90" height="80" as="geometry" />
        </mxCell>
        <mxCell id="Lg5-S7IEezFE1TF8m1ox-16" value="" style="endArrow=none;html=1;rounded=0;strokeColor=#000000;strokeWidth=3;fontSize=14;fontColor=#FF0000;edgeStyle=elbowEdgeStyle;elbow=vertical;startArrow=none;entryX=0.75;entryY=1;entryDx=0;entryDy=0;exitX=0.5;exitY=0;exitDx=0;exitDy=0;" parent="Lg5-S7IEezFE1TF8m1ox-1" source="Lg5-S7IEezFE1TF8m1ox-14" target="Lg5-S7IEezFE1TF8m1ox-12" edge="1">
          <mxGeometry width="50" height="50" relative="1" as="geometry">
            <mxPoint x="370" y="494" as="sourcePoint" />
            <mxPoint x="370" y="160" as="targetPoint" />
            <Array as="points">
              <mxPoint x="440" y="430" />
              <mxPoint x="380" y="220" />
              <mxPoint x="360" y="320" />
              <mxPoint x="180" y="430" />
            </Array>
          </mxGeometry>
        </mxCell>
        <mxCell id="Lg5-S7IEezFE1TF8m1ox-17" value="" style="endArrow=none;html=1;rounded=0;strokeColor=#000000;strokeWidth=3;fontSize=14;fontColor=#FF0000;edgeStyle=elbowEdgeStyle;elbow=vertical;startArrow=none;entryX=0.25;entryY=1;entryDx=0;entryDy=0;exitX=0.5;exitY=0;exitDx=0;exitDy=0;" parent="Lg5-S7IEezFE1TF8m1ox-1" source="Lg5-S7IEezFE1TF8m1ox-10" target="Lg5-S7IEezFE1TF8m1ox-12" edge="1">
          <mxGeometry width="50" height="50" relative="1" as="geometry">
            <mxPoint x="510" y="494" as="sourcePoint" />
            <mxPoint x="475" y="410" as="targetPoint" />
            <Array as="points">
              <mxPoint x="380" y="430" />
              <mxPoint x="390" y="230" />
              <mxPoint x="370" y="330" />
              <mxPoint x="190" y="440" />
            </Array>
          </mxGeometry>
        </mxCell>
        <mxCell id="Lg5-S7IEezFE1TF8m1ox-18" value="" style="endArrow=none;html=1;rounded=0;strokeColor=#000000;strokeWidth=3;fontSize=14;fontColor=#FF0000;edgeStyle=elbowEdgeStyle;elbow=vertical;startArrow=none;entryX=0.5;entryY=1;entryDx=0;entryDy=0;exitX=0.5;exitY=0;exitDx=0;exitDy=0;" parent="Lg5-S7IEezFE1TF8m1ox-1" source="Lg5-S7IEezFE1TF8m1ox-12" target="Lg5-S7IEezFE1TF8m1ox-13" edge="1">
          <mxGeometry width="50" height="50" relative="1" as="geometry">
            <mxPoint x="200" y="494" as="sourcePoint" />
            <mxPoint x="156.96000000000004" y="412" as="targetPoint" />
            <Array as="points">
              <mxPoint x="440" y="290" />
              <mxPoint x="140" y="440" />
              <mxPoint x="80" y="230" />
              <mxPoint x="60" y="330" />
              <mxPoint x="-120" y="440" />
            </Array>
          </mxGeometry>
        </mxCell>
        <mxCell id="Lg5-S7IEezFE1TF8m1ox-19" value="&lt;span style=&quot;font-size: 18px;&quot;&gt;&lt;b&gt;Outlier domain (few or no dependencies), significant business transformation proposed&lt;/b&gt;&lt;/span&gt;" style="rounded=1;whiteSpace=wrap;html=1;arcSize=50;fillColor=#050505;fontColor=#FFFFFF;" parent="Lg5-S7IEezFE1TF8m1ox-1" vertex="1">
          <mxGeometry x="35" y="40" width="775" height="20" as="geometry" />
        </mxCell>
        <mxCell id="Lg5-S7IEezFE1TF8m1ox-20" value="HMPPS Domain&lt;br&gt;Events SNS" style="sketch=0;points=[[0,0,0],[0.25,0,0],[0.5,0,0],[0.75,0,0],[1,0,0],[0,1,0],[0.25,1,0],[0.5,1,0],[0.75,1,0],[1,1,0],[0,0.25,0],[0,0.5,0],[0,0.75,0],[1,0.25,0],[1,0.5,0],[1,0.75,0]];outlineConnect=0;fontColor=#232F3E;gradientColor=#FF4F8B;gradientDirection=north;fillColor=#BC1356;strokeColor=#ffffff;dashed=0;verticalLabelPosition=bottom;verticalAlign=top;align=center;html=1;fontSize=12;fontStyle=0;aspect=fixed;shape=mxgraph.aws4.resourceIcon;resIcon=mxgraph.aws4.sns;" parent="Lg5-S7IEezFE1TF8m1ox-1" vertex="1">
          <mxGeometry x="720" y="170" width="30" height="30" as="geometry" />
        </mxCell>
        <mxCell id="Lg5-S7IEezFE1TF8m1ox-21" value="" style="endArrow=classic;html=1;rounded=0;edgeStyle=orthogonalEdgeStyle;curved=1;exitX=1;exitY=0;exitDx=0;exitDy=0;" parent="Lg5-S7IEezFE1TF8m1ox-1" source="Lg5-S7IEezFE1TF8m1ox-2" target="Lg5-S7IEezFE1TF8m1ox-20" edge="1">
          <mxGeometry width="50" height="50" relative="1" as="geometry">
            <mxPoint x="110" y="505" as="sourcePoint" />
            <mxPoint x="220" y="530" as="targetPoint" />
            <Array as="points">
              <mxPoint x="580" y="80" />
              <mxPoint x="735" y="80" />
            </Array>
          </mxGeometry>
        </mxCell>
        <mxCell id="Lg5-S7IEezFE1TF8m1ox-22" value="" style="endArrow=classic;html=1;rounded=0;edgeStyle=orthogonalEdgeStyle;curved=1;entryX=0;entryY=0.25;entryDx=0;entryDy=0;exitX=1;exitY=0.5;exitDx=0;exitDy=0;exitPerimeter=0;" parent="Lg5-S7IEezFE1TF8m1ox-1" source="Lg5-S7IEezFE1TF8m1ox-24" target="Lg5-S7IEezFE1TF8m1ox-2" edge="1">
          <mxGeometry width="50" height="50" relative="1" as="geometry">
            <mxPoint x="230" y="380" as="sourcePoint" />
            <mxPoint x="200" y="385" as="targetPoint" />
            <Array as="points">
              <mxPoint x="220" y="185" />
              <mxPoint x="220" y="235" />
            </Array>
          </mxGeometry>
        </mxCell>
        <mxCell id="Lg5-S7IEezFE1TF8m1ox-23" value="this domain needs to&lt;br&gt;react to this happening" style="edgeLabel;html=1;align=center;verticalAlign=middle;resizable=0;points=[];" parent="Lg5-S7IEezFE1TF8m1ox-22" vertex="1" connectable="0">
          <mxGeometry x="-0.1238" y="-1" relative="1" as="geometry">
            <mxPoint x="11" y="-29" as="offset" />
          </mxGeometry>
        </mxCell>
        <mxCell id="Lg5-S7IEezFE1TF8m1ox-24" value="HMPPS Domain&lt;br&gt;Events SQS" style="sketch=0;points=[[0,0,0],[0.25,0,0],[0.5,0,0],[0.75,0,0],[1,0,0],[0,1,0],[0.25,1,0],[0.5,1,0],[0.75,1,0],[1,1,0],[0,0.25,0],[0,0.5,0],[0,0.75,0],[1,0.25,0],[1,0.5,0],[1,0.75,0]];outlineConnect=0;fontColor=#232F3E;gradientColor=#FF4F8B;gradientDirection=north;fillColor=#BC1356;strokeColor=#ffffff;dashed=0;verticalLabelPosition=bottom;verticalAlign=top;align=center;html=1;fontSize=12;fontStyle=0;aspect=fixed;shape=mxgraph.aws4.resourceIcon;resIcon=mxgraph.aws4.sqs;" parent="Lg5-S7IEezFE1TF8m1ox-1" vertex="1">
          <mxGeometry x="140" y="170" width="30" height="30" as="geometry" />
        </mxCell>
        <mxCell id="Lg5-S7IEezFE1TF8m1ox-25" value="Domain B" style="rounded=1;whiteSpace=wrap;html=1;fontFamily=Helvetica;fontSize=19;fontColor=default;align=center;strokeColor=none;fillColor=#EAFFEA;arcSize=7;strokeWidth=3;dashed=1;spacingBottom=0;" parent="Lg5-S7IEezFE1TF8m1ox-1" vertex="1">
          <mxGeometry x="685" y="250" width="100" height="50" as="geometry" />
        </mxCell>
        <mxCell id="Lg5-S7IEezFE1TF8m1ox-26" value="Domain B is dependent on domain A&#39;s data and events" style="text;html=1;strokeColor=none;fillColor=none;align=center;verticalAlign=middle;whiteSpace=wrap;rounded=0;" parent="Lg5-S7IEezFE1TF8m1ox-1" vertex="1">
          <mxGeometry x="652.5" y="310" width="165" height="30" as="geometry" />
        </mxCell>
        <mxCell id="Lg5-S7IEezFE1TF8m1ox-37" value="Domain solution should align to the DPS architectural pattern but the team is largely free to construct and release components of this pattern in the order which best addresses the business need.&lt;br&gt;&lt;br&gt;The domain team must publish and keep to a roadmap which includes timescales for &quot;getting off NOMIS&quot;. These timescales should align to DPS strategic objectives." style="text;html=1;strokeColor=none;fillColor=none;align=left;verticalAlign=middle;whiteSpace=wrap;rounded=0;strokeWidth=3;fontSize=18;" parent="Lg5-S7IEezFE1TF8m1ox-1" vertex="1">
          <mxGeometry x="250" y="830" width="550" height="237" as="geometry" />
        </mxCell>
      </root>
    </mxGraphModel>
  </diagram>
  <diagram name="Current Challenges" id="ZqbybR6kAD8hLZpYV0na">
    <mxGraphModel grid="1" page="1" gridSize="10" guides="1" tooltips="1" connect="1" arrows="1" fold="1" pageScale="1" pageWidth="827" pageHeight="1169" math="0" shadow="0">
      <root>
        <mxCell id="g1oN7ItUor9xSrTpbjW_-0" />
        <mxCell id="g1oN7ItUor9xSrTpbjW_-1" parent="g1oN7ItUor9xSrTpbjW_-0" />
        <mxCell id="g1oN7ItUor9xSrTpbjW_-4" value="Visit&lt;br&gt;Scheduler" style="shape=hexagon;perimeter=hexagonPerimeter2;whiteSpace=wrap;html=1;fixedSize=1;shadow=0;sketch=0;strokeColor=#b85450;strokeWidth=4;align=center;labelPosition=center;verticalLabelPosition=middle;verticalAlign=middle;fillColor=#f8cecc;spacingBottom=49;" parent="g1oN7ItUor9xSrTpbjW_-1" vertex="1">
          <mxGeometry x="40" y="310" width="250" height="210" as="geometry" />
        </mxCell>
        <mxCell id="g1oN7ItUor9xSrTpbjW_-5" value="Booking staff front end application" style="shape=hexagon;perimeter=hexagonPerimeter2;whiteSpace=wrap;html=1;fixedSize=1;shadow=0;sketch=0;strokeColor=#82b366;strokeWidth=4;align=center;labelPosition=center;verticalLabelPosition=middle;verticalAlign=middle;fillColor=#d5e8d4;" parent="g1oN7ItUor9xSrTpbjW_-1" vertex="1">
          <mxGeometry x="40" y="70" width="250" height="210" as="geometry" />
        </mxCell>
        <mxCell id="MmwlJWAj75KV_ajriZuR-0" value="UI content, data rendering and user interaction logic" style="rounded=1;whiteSpace=wrap;html=1;strokeWidth=4;fontSize=10;" vertex="1" parent="g1oN7ItUor9xSrTpbjW_-1">
          <mxGeometry x="104" y="100" width="120" height="40" as="geometry" />
        </mxCell>
        <mxCell id="MmwlJWAj75KV_ajriZuR-1" value="Orchestration Logic" style="rounded=1;whiteSpace=wrap;html=1;strokeWidth=4;fontSize=10;" vertex="1" parent="g1oN7ItUor9xSrTpbjW_-1">
          <mxGeometry x="104" y="210" width="120" height="40" as="geometry" />
        </mxCell>
        <mxCell id="MmwlJWAj75KV_ajriZuR-2" value="Visit Session Timetables" style="rounded=1;whiteSpace=wrap;html=1;strokeWidth=4;fontSize=10;" vertex="1" parent="g1oN7ItUor9xSrTpbjW_-1">
          <mxGeometry x="124" y="420" width="80" height="40" as="geometry" />
        </mxCell>
        <mxCell id="MmwlJWAj75KV_ajriZuR-4" value="Prisons&lt;br&gt;deployed to" style="rounded=1;whiteSpace=wrap;html=1;strokeWidth=4;fontSize=10;" vertex="1" parent="g1oN7ItUor9xSrTpbjW_-1">
          <mxGeometry x="174" y="470" width="80" height="40" as="geometry" />
        </mxCell>
        <mxCell id="MmwlJWAj75KV_ajriZuR-5" value="Booked Visits" style="rounded=1;whiteSpace=wrap;html=1;strokeWidth=4;fontSize=10;" vertex="1" parent="g1oN7ItUor9xSrTpbjW_-1">
          <mxGeometry x="70" y="470" width="80" height="40" as="geometry" />
        </mxCell>
        <mxCell id="MmwlJWAj75KV_ajriZuR-7" value="Orchestration Logic" style="rounded=1;whiteSpace=wrap;html=1;strokeWidth=4;fontSize=10;" vertex="1" parent="g1oN7ItUor9xSrTpbjW_-1">
          <mxGeometry x="105" y="320" width="120" height="40" as="geometry" />
        </mxCell>
        <mxCell id="MmwlJWAj75KV_ajriZuR-8" value="" style="endArrow=classic;html=1;rounded=0;fontSize=10;strokeWidth=4;" edge="1" parent="g1oN7ItUor9xSrTpbjW_-1">
          <mxGeometry width="50" height="50" relative="1" as="geometry">
            <mxPoint x="302" y="300" as="sourcePoint" />
            <mxPoint x="462" y="300" as="targetPoint" />
            <Array as="points" />
          </mxGeometry>
        </mxCell>
        <mxCell id="MmwlJWAj75KV_ajriZuR-10" value="Booking staff front end application" style="shape=hexagon;perimeter=hexagonPerimeter2;whiteSpace=wrap;html=1;fixedSize=1;shadow=0;sketch=0;strokeColor=#82b366;strokeWidth=4;align=center;labelPosition=center;verticalLabelPosition=middle;verticalAlign=middle;fillColor=#d5e8d4;spacingTop=51;" vertex="1" parent="g1oN7ItUor9xSrTpbjW_-1">
          <mxGeometry x="490" y="70" width="250" height="90" as="geometry" />
        </mxCell>
        <mxCell id="MmwlJWAj75KV_ajriZuR-11" value="UI content, data rendering and user interaction logic" style="rounded=1;whiteSpace=wrap;html=1;strokeWidth=4;fontSize=10;" vertex="1" parent="g1oN7ItUor9xSrTpbjW_-1">
          <mxGeometry x="555" y="86" width="120" height="40" as="geometry" />
        </mxCell>
        <mxCell id="w096yOcHoZn-XNjJ10-m-0" value="Visit Session Timetables" style="shape=hexagon;perimeter=hexagonPerimeter2;whiteSpace=wrap;html=1;fixedSize=1;shadow=0;sketch=0;strokeColor=#b85450;strokeWidth=4;align=center;labelPosition=center;verticalLabelPosition=middle;verticalAlign=middle;fillColor=#f8cecc;" vertex="1" parent="g1oN7ItUor9xSrTpbjW_-1">
          <mxGeometry x="465" y="436" width="90" height="80" as="geometry" />
        </mxCell>
        <mxCell id="w096yOcHoZn-XNjJ10-m-1" value="Booked Visits" style="shape=hexagon;perimeter=hexagonPerimeter2;whiteSpace=wrap;html=1;fixedSize=1;shadow=0;sketch=0;strokeColor=#b85450;strokeWidth=4;align=center;labelPosition=center;verticalLabelPosition=middle;verticalAlign=middle;fillColor=#f8cecc;" vertex="1" parent="g1oN7ItUor9xSrTpbjW_-1">
          <mxGeometry x="570" y="436" width="90" height="80" as="geometry" />
        </mxCell>
        <mxCell id="w096yOcHoZn-XNjJ10-m-2" value="Prison Deployed to" style="shape=hexagon;perimeter=hexagonPerimeter2;whiteSpace=wrap;html=1;fixedSize=1;shadow=0;sketch=0;strokeColor=#b85450;strokeWidth=4;align=center;labelPosition=center;verticalLabelPosition=middle;verticalAlign=middle;fillColor=#f8cecc;" vertex="1" parent="g1oN7ItUor9xSrTpbjW_-1">
          <mxGeometry x="675" y="436" width="90" height="80" as="geometry" />
        </mxCell>
        <mxCell id="w096yOcHoZn-XNjJ10-m-3" value="" style="shape=hexagon;perimeter=hexagonPerimeter2;whiteSpace=wrap;html=1;fixedSize=1;shadow=0;sketch=0;strokeColor=#d6b656;strokeWidth=4;align=center;labelPosition=center;verticalLabelPosition=middle;verticalAlign=middle;fillColor=#fff2cc;spacingBottom=49;" vertex="1" parent="g1oN7ItUor9xSrTpbjW_-1">
          <mxGeometry x="496" y="248" width="250" height="120" as="geometry" />
        </mxCell>
        <mxCell id="MmwlJWAj75KV_ajriZuR-9" value="" style="shape=hexagon;perimeter=hexagonPerimeter2;whiteSpace=wrap;html=1;fixedSize=1;shadow=0;sketch=0;strokeColor=#d6b656;strokeWidth=4;align=center;labelPosition=center;verticalLabelPosition=middle;verticalAlign=middle;fillColor=#fff2cc;spacingBottom=49;" vertex="1" parent="g1oN7ItUor9xSrTpbjW_-1">
          <mxGeometry x="485" y="240" width="250" height="120" as="geometry" />
        </mxCell>
        <mxCell id="MmwlJWAj75KV_ajriZuR-17" value="Orchestration Logic" style="rounded=1;whiteSpace=wrap;html=1;strokeWidth=4;fontSize=10;" vertex="1" parent="g1oN7ItUor9xSrTpbjW_-1">
          <mxGeometry x="555" y="280" width="120" height="40" as="geometry" />
        </mxCell>
      </root>
    </mxGraphModel>
  </diagram>
</mxfile>
